<svg xmlns="http://www.w3.org/2000/svg" width="841.9999999999999" height="407">
 <!-- Created with Image Occlusion Enhanced -->
 <g>
  <title>Labels</title>
 </g>
 <g>
  <title>Masks</title>
  <rect id="0326ae161994454088093a196e27e79c-ao-1" height="19.31034" width="205.51724" y="293.27584" x="392.62066" stroke="#2D2D2D" fill="#FFEBA2"/>
  <g id="0326ae161994454088093a196e27e79c-ao-2" class="qshape">
   <rect height="27.58621" width="45.51724" y="63.62067" x="163.65515" stroke="#2D2D2D" fill="#FF7E7E" class="qshape"/>
   <rect height="20.68965" width="137.24138" y="67.06894" x="359.51722" stroke="#2D2D2D" fill="#FF7E7E" class="qshape"/>
   <rect height="20.68965" width="55.17241" y="110.51722" x="165.72412" stroke="#2D2D2D" fill="#FF7E7E" class="qshape"/>
   <rect height="18.62069" width="100.68965" y="113.27584" x="567.79308" stroke="#2D2D2D" fill="#FF7E7E" class="qshape"/>
   <rect height="20" width="44.13793" y="111.89653" x="742.96549" stroke="#2D2D2D" fill="#FF7E7E" class="qshape"/>
   <rect height="18.62069" width="37.24138" y="135.3448" x="167.79308" stroke="#2D2D2D" fill="#FF7E7E" class="qshape"/>
  </g>
  <g id="0326ae161994454088093a196e27e79c-ao-3">
   <rect height="19.31034" width="51.03448" y="179.48273" x="167.79308" stroke="#2D2D2D" fill="#FFEBA2"/>
   <rect height="20.68965" width="38.62069" y="178.79308" x="384.3448" stroke="#2D2D2D" fill="#FFEBA2"/>
   <rect height="19.31034" width="33.7931" y="182.24135" x="433.99997" stroke="#2D2D2D" fill="#FFEBA2"/>
   <rect height="17.93103" width="44.82759" y="180.17239" x="505.03446" stroke="#2D2D2D" fill="#FFEBA2"/>
  </g>
  <g id="0326ae161994454088093a196e27e79c-ao-4">
   <rect height="18.62069" width="126.20689" y="226.37928" x="400.89653" stroke="#2D2D2D" fill="#FFEBA2"/>
   <rect height="15.86207" width="193.7931" y="227.75859" x="642.96549" stroke="#2D2D2D" fill="#FFEBA2"/>
   <rect height="16.55172" width="211.03448" y="249.82756" x="297.44825" stroke="#2D2D2D" fill="#FFEBA2"/>
  </g>
  <g id="0326ae161994454088093a196e27e79c-ao-5">
   <rect height="20.68965" width="47.58621" y="314.65514" x="162.9655" stroke="#2D2D2D" fill="#FFEBA2"/>
   <rect height="14.48276" width="167.5862" y="339.48273" x="331.24136" stroke="#2D2D2D" fill="#FFEBA2"/>
   <rect height="17.93103" width="121.37931" y="337.41377" x="610.5517" stroke="#2D2D2D" fill="#FFEBA2"/>
   <rect height="21.37931" width="109.65517" y="360.17239" x="165.03446" stroke="#2D2D2D" fill="#FFEBA2"/>
  </g>
 </g>
</svg>