<svg height="756" width="1022" xmlns="http://www.w3.org/2000/svg">
 <!-- Created with Image Occlusion Enhanced -->
 <g>
  <title>Labels</title>
 </g>
 <g>
  <title>Masks</title>
  <rect fill="#FFEBA2" height="16.42879" id="069c7a4606ff4a798589749ce1c8ab4d-ao-1" stroke="#2D2D2D" width="131.43029" x="55.11229" y="586.02651"/>
  <rect fill="#FFEBA2" height="14.37519" id="069c7a4606ff4a798589749ce1c8ab4d-ao-2" stroke="#2D2D2D" width="127.3231" x="57.16589" y="606.56249"/>
  <rect fill="#FFEBA2" height="15.40199" id="069c7a4606ff4a798589749ce1c8ab4d-ao-3" stroke="#2D2D2D" width="139.64469" x="56.13909" y="626.07168"/>
  <rect fill="#FFEBA2" height="14.37519" id="069c7a4606ff4a798589749ce1c8ab4d-ao-4" stroke="#2D2D2D" width="103.70672" x="58.19269" y="641.47366"/>
  <rect fill="#FFEBA2" height="17.45559" id="069c7a4606ff4a798589749ce1c8ab4d-ao-5" stroke="#2D2D2D" width="87.27793" x="60.24629" y="659.95605"/>
  <rect fill="#FFEBA2" height="18.48238" id="069c7a4606ff4a798589749ce1c8ab4d-ao-6" stroke="#2D2D2D" width="99.59952" x="59.21949" y="680.49203"/>
  <rect fill="#FFEBA2" height="12.32159" id="069c7a4606ff4a798589749ce1c8ab4d-ao-7" stroke="#2D2D2D" width="92.41192" x="60.24629" y="701.02802"/>
  <rect fill="#FFEBA2" height="15.40199" id="069c7a4606ff4a798589749ce1c8ab4d-ao-8" stroke="#2D2D2D" width="40.04517" x="59.21949" y="717.4568"/>
  <rect fill="#FFEBA2" height="14.37519" id="069c7a4606ff4a798589749ce1c8ab4d-ao-9" stroke="#2D2D2D" width="61.60795" x="275.87412" y="588.08011"/>
  <rect fill="#FFEBA2" height="16.42879" id="069c7a4606ff4a798589749ce1c8ab4d-ao-10" stroke="#2D2D2D" width="55.44715" x="288.19571" y="606.56249"/>
  <rect fill="#FFEBA2" height="9.24119" id="069c7a4606ff4a798589749ce1c8ab4d-ao-11" stroke="#2D2D2D" width="81.11713" x="289.2225" y="629.15207"/>
  
  <rect fill="#FFEBA2" height="14.37519" id="069c7a4606ff4a798589749ce1c8ab4d-ao-13" stroke="#2D2D2D" width="61.60795" x="285.11531" y="664.06325"/>
  <rect fill="#FFEBA2" height="11.29479" id="069c7a4606ff4a798589749ce1c8ab4d-ao-14" stroke="#2D2D2D" width="111.92111" x="290.2493" y="683.57243"/>
  <rect fill="#FFEBA2" height="14.37519" id="069c7a4606ff4a798589749ce1c8ab4d-ao-15" stroke="#2D2D2D" width="126.2963" x="285.11531" y="700.00122"/>
  <rect fill="#FFEBA2" height="16.42879" id="069c7a4606ff4a798589749ce1c8ab4d-ao-16" stroke="#2D2D2D" width="151.96628" x="287.16891" y="717.4568"/>
  <rect fill="#FFEBA2" height="62.63475" id="069c7a4606ff4a798589749ce1c8ab4d-ao-17" stroke="#2D2D2D" width="157.10027" x="508.95753" y="628.12527"/>
 </g>
</svg>