<svg xmlns="http://www.w3.org/2000/svg" width="1155" height="534">
 <!-- Created with Image Occlusion Enhanced -->
 <g>
  <title>Labels</title>
 </g>
 <g>
  <title>Masks</title>
  <rect id="06f98c4af95f42b784dde20cbc4be75f-ao-1" height="18.01802" width="226.12613" y="403.65767" x="178.8738" stroke="#2D2D2D" fill="#FFEBA2"/>
  <rect id="06f98c4af95f42b784dde20cbc4be75f-ao-2" height="16.21622" width="214.41442" y="428.8829" x="213.10804" stroke="#2D2D2D" fill="#FFEBA2"/>
  <rect id="06f98c4af95f42b784dde20cbc4be75f-ao-3" height="14.41441" width="119.81982" y="450.50452" x="236.53146" stroke="#2D2D2D" fill="#FFEBA2"/>
  <rect id="06f98c4af95f42b784dde20cbc4be75f-ao-4" height="18.91892" width="120.72072" y="470.32434" x="209.50443" stroke="#2D2D2D" fill="#FFEBA2"/>
  <rect id="06f98c4af95f42b784dde20cbc4be75f-ao-5" height="15.31532" width="161.26126" y="495.54957" x="214.90984" stroke="#2D2D2D" fill="#FFEBA2"/>
  <rect id="06f98c4af95f42b784dde20cbc4be75f-ao-6" height="18.91892" width="278.37838" y="513.56758" x="325.72065" stroke="#2D2D2D" fill="#FFEBA2"/>
  <g id="06f98c4af95f42b784dde20cbc4be75f-ao-7">
   <rect height="16.21622" width="77.47748" y="66.72073" x="229.32425" stroke="#2D2D2D" fill="#FFEBA2"/>
   <rect height="17.11712" width="87.38739" y="111.76578" x="236.53146" stroke="#2D2D2D" fill="#FFEBA2"/>
   <rect height="22.52252" width="69.36937" y="133.3874" x="367.16209" stroke="#2D2D2D" fill="#FFEBA2"/>
   <rect height="22.52252" width="96.3964" y="176.63064" x="240.13506" stroke="#2D2D2D" fill="#FFEBA2"/>
   <rect height="23.42342" width="92.79279" y="198.25226" x="362.65759" stroke="#2D2D2D" fill="#FFEBA2"/>
  </g>
  <g id="06f98c4af95f42b784dde20cbc4be75f-ao-8">
   <rect height="21.62162" width="149.54955" y="244.19821" x="321.21615" stroke="#2D2D2D" fill="#FFEBA2"/>
   <rect height="16.21622" width="200" y="247.80181" x="609.50444" stroke="#2D2D2D" fill="#FFEBA2"/>
   <rect height="20.72072" width="64.86487" y="245.09911" x="871.66661" stroke="#2D2D2D" fill="#FFEBA2"/>
   <rect height="20.72072" width="48.64865" y="267.62163" x="250.04497" stroke="#2D2D2D" fill="#FFEBA2"/>
   <rect height="17.11712" width="66.66667" y="268.52254" x="332.92786" stroke="#2D2D2D" fill="#FFEBA2"/>
   <rect height="21.62162" width="36.03604" y="266.72073" x="546.44137" stroke="#2D2D2D" fill="#FFEBA2"/>
  </g>
  <g id="06f98c4af95f42b784dde20cbc4be75f-ao-9">
   <rect height="21.62162" width="55.85586" y="290.14416" x="295.99092" stroke="#2D2D2D" fill="#FFEBA2"/>
   <rect height="18.01802" width="93.6937" y="316.27028" x="287.88281" stroke="#2D2D2D" fill="#FFEBA2"/>
   <rect height="12.61261" width="188.28829" y="338.79281" x="270.76569" stroke="#2D2D2D" fill="#FFEBA2"/>
   <rect height="14.41441" width="77.47748" y="338.79281" x="469.8648" stroke="#2D2D2D" fill="#FFEBA2"/>
  </g>
  <g id="06f98c4af95f42b784dde20cbc4be75f-ao-10" class="qshape">
   <rect height="19.81982" width="83.78379" y="380.23425" x="312.20714" stroke="#2D2D2D" fill="#FF7E7E" class="qshape"/>
   <rect height="22.52252" width="129.72973" y="380.23425" x="404.99993" stroke="#2D2D2D" fill="#FF7E7E" class="qshape"/>
   <rect height="21.62162" width="252.25226" y="382.03605" x="635.63057" stroke="#2D2D2D" fill="#FF7E7E" class="qshape"/>
  </g>
 </g>
</svg>