<svg xmlns="http://www.w3.org/2000/svg" width="847" height="739">
 <!-- Created with Image Occlusion Enhanced -->
 <g>
  <title>Labels</title>
 </g>
 <g>
  <title>Masks</title>
  <rect id="08603bbf9fbb488889ed0b6f2bed10ba-ao-1" height="17.5" width="316.25001" y="160.49997" x="125.00004" stroke="#2D2D2D" fill="#FFEBA2"/>
  <rect id="08603bbf9fbb488889ed0b6f2bed10ba-ao-2" height="15" width="252.50001" y="202.99997" x="128.75004" stroke="#2D2D2D" fill="#FFEBA2"/>
  <rect id="08603bbf9fbb488889ed0b6f2bed10ba-ao-3" height="17.5" width="411.25001" y="227.99997" x="276.25004" stroke="#2D2D2D" fill="#FFEBA2"/>
  <g id="08603bbf9fbb488889ed0b6f2bed10ba-ao-4">
   <rect height="17.5" width="508.75002" y="47.99997" x="207.50004" stroke="#2D2D2D" fill="#FFEBA2"/>
   <rect height="17.5" width="242.50001" y="90.49997" x="233.75004" stroke="#2D2D2D" fill="#FFEBA2"/>
   <rect height="20" width="170.00001" y="112.99997" x="425.00005" stroke="#2D2D2D" fill="#FFEBA2"/>
  </g>
  <g id="08603bbf9fbb488889ed0b6f2bed10ba-ao-5">
   <rect height="16.25" width="243.75001" y="294.24997" x="120.00003" stroke="#2D2D2D" fill="#FFEBA2"/>
   <rect height="20" width="196.25001" y="292.99997" x="568.75005" stroke="#2D2D2D" fill="#FFEBA2"/>
   <rect height="16.25" width="197.50001" y="317.99998" x="118.75003" stroke="#2D2D2D" fill="#FFEBA2"/>
  </g>
  <g id="08603bbf9fbb488889ed0b6f2bed10ba-ao-6">
   <rect height="17.5" width="261.25001" y="335.49998" x="115.00003" stroke="#2D2D2D" fill="#FFEBA2"/>
   <rect height="22.5" width="137.5" y="337.99998" x="580.00005" stroke="#2D2D2D" fill="#FFEBA2"/>
  </g>
  <g id="08603bbf9fbb488889ed0b6f2bed10ba-ao-7">
   <rect height="17.5" width="68.75" y="364.24998" x="532.50005" stroke="#2D2D2D" fill="#FFEBA2"/>
   <rect height="13.75" width="97.5" y="361.74998" x="721.25006" stroke="#2D2D2D" fill="#FFEBA2"/>
  </g>
  <g id="08603bbf9fbb488889ed0b6f2bed10ba-ao-8">
   <rect height="18.75" width="235.00001" y="426.74998" x="173.75004" stroke="#2D2D2D" fill="#FFEBA2"/>
   <rect height="18.75" width="101.25" y="427.99998" x="716.25006" stroke="#2D2D2D" fill="#FFEBA2"/>
   <rect height="23.75" width="67.5" y="449.24998" x="187.50004" stroke="#2D2D2D" fill="#FFEBA2"/>
  </g>
  
  <g id="08603bbf9fbb488889ed0b6f2bed10ba-ao-10">
   <rect height="23.75" width="88.75" y="649.24999" x="231.25004" stroke="#2D2D2D" fill="#FFEBA2"/>
   <rect height="22.5" width="82.5" y="649.24999" x="348.75004" stroke="#2D2D2D" fill="#FFEBA2"/>
   <rect height="20" width="66.25" y="650.49999" x="713.75006" stroke="#2D2D2D" fill="#FFEBA2"/>
  </g>
  <g id="08603bbf9fbb488889ed0b6f2bed10ba-ao-11">
   <rect height="16.25" width="65" y="696.74999" x="178.75004" stroke="#2D2D2D" fill="#FFEBA2"/>
   <rect height="18.75" width="112.5" y="694.24999" x="666.25005" stroke="#2D2D2D" fill="#FFEBA2"/>
   <rect height="18.75" width="125" y="717.99999" x="198.75004" stroke="#2D2D2D" fill="#FFEBA2"/>
  </g>
 </g>
</svg>