<svg xmlns="http://www.w3.org/2000/svg" width="711" height="518">
 <!-- Created with Image Occlusion Enhanced -->
 <g>
  <title>Labels</title>
 </g>
 <g>
  <title>Masks</title>
  <g id="0eac1453b1a64bcc9be0919d6426de5d-ao-1">
   <rect height="21.05263" width="223.68422" y="44.80699" x="200.75441" stroke="#2D2D2D" fill="#FFEBA2"/>
   <rect height="13.1579" width="298.24562" y="70.24558" x="222.68424" stroke="#2D2D2D" fill="#FFEBA2"/>
   <rect height="21.05263" width="101.75439" y="109.71927" x="370.92985" stroke="#2D2D2D" fill="#FFEBA2"/>
   <rect height="22.80702" width="184.21053" y="130.7719" x="464.78951" stroke="#2D2D2D" fill="#FFEBA2"/>
  </g>
  <g id="0eac1453b1a64bcc9be0919d6426de5d-ao-2">
   <rect height="17.54386" width="253.50878" y="180.7719" x="201.6316" stroke="#2D2D2D" fill="#FFEBA2"/>
   <rect height="17.54386" width="252.63159" y="202.70173" x="203.38599" stroke="#2D2D2D" fill="#FFEBA2"/>
   <rect height="15.78947" width="114.03509" y="249.19296" x="235.84213" stroke="#2D2D2D" fill="#FFEBA2"/>
   <rect height="15.78947" width="95.61404" y="250.07015" x="356.01757" stroke="#2D2D2D" fill="#FFEBA2"/>
   <rect height="14.03509" width="178.94737" y="251.82454" x="463.03512" stroke="#2D2D2D" fill="#FFEBA2"/>
  </g>
  <g id="0eac1453b1a64bcc9be0919d6426de5d-ao-3" class="qshape">
   <rect height="17.54386" width="93.85965" y="293.05261" x="231.45617" stroke="#2D2D2D" fill="#FF7E7E" class="qshape"/>
   <rect height="18.42105" width="79.82456" y="317.61401" x="192.85967" stroke="#2D2D2D" fill="#FF7E7E" class="qshape"/>
   <rect height="14.03509" width="133.33334" y="318.4912" x="282.33336" stroke="#2D2D2D" fill="#FF7E7E" class="qshape"/>
  </g>
  <g id="0eac1453b1a64bcc9be0919d6426de5d-ao-4">
   <rect height="16.66667" width="34.21053" y="361.47366" x="199.87722" stroke="#2D2D2D" fill="#FFEBA2"/>
   <rect height="17.54386" width="29.82456" y="360.59647" x="253.38599" stroke="#2D2D2D" fill="#FFEBA2"/>
   <rect height="17.54386" width="52.63158" y="360.59647" x="313.03512" stroke="#2D2D2D" fill="#FFEBA2"/>
   <rect height="18.42105" width="26.31579" y="381.6491" x="120.92985" stroke="#2D2D2D" fill="#FFEBA2"/>
   <rect height="19.29825" width="40.35088" y="425.50875" x="115.66669" stroke="#2D2D2D" fill="#FFEBA2"/>
  </g>
  <g id="0eac1453b1a64bcc9be0919d6426de5d-ao-5">
   <rect height="19.29825" width="38.59649" y="473.75437" x="230.57897" stroke="#2D2D2D" fill="#FFEBA2"/>
   <rect height="17.54386" width="49.12281" y="472.87717" x="286.71933" stroke="#2D2D2D" fill="#FFEBA2"/>
   <rect height="18.42105" width="26.31579" y="494.807" x="190.22809" stroke="#2D2D2D" fill="#FFEBA2"/>
  </g>
 </g>
</svg>