<svg xmlns="http://www.w3.org/2000/svg" width="834.0000000000001" height="763">
 <!-- Created with Image Occlusion Enhanced -->
 <g>
  <title>Labels</title>
 </g>
 <g>
  <title>Masks</title>
  <rect id="1164c50e27964d45a51e4c7bfcfddbb6-ao-1" height="93.50649" width="335.06494" y="62.974" x="120.28573" stroke="#2D2D2D" fill="#FFEBA2"/>
  <rect id="1164c50e27964d45a51e4c7bfcfddbb6-ao-2" height="85.71429" width="516.88312" y="177.25972" x="115.09092" stroke="#2D2D2D" fill="#FFEBA2"/>
  <g id="1164c50e27964d45a51e4c7bfcfddbb6-ao-3">
   <rect height="20.77922" width="107.79221" y="307.12985" x="264.44157" stroke="#2D2D2D" fill="#FFEBA2"/>
   <rect height="14.28571" width="207.79221" y="338.29868" x="246.25975" stroke="#2D2D2D" fill="#FFEBA2"/>
   <rect height="19.48052" width="233.76624" y="356.4805" x="370.93508" stroke="#2D2D2D" fill="#FFEBA2"/>
  </g>
  
  <g id="1164c50e27964d45a51e4c7bfcfddbb6-ao-5">
   <rect height="20.77922" width="66.23377" y="535.70128" x="260.54547" stroke="#2D2D2D" fill="#FFEBA2"/>
   <rect height="22.07792" width="105.19481" y="560.37661" x="599.50651" stroke="#2D2D2D" fill="#FFEBA2"/>
   <rect height="20.77922" width="135.06494" y="583.75323" x="355.35066" stroke="#2D2D2D" fill="#FFEBA2"/>
   <rect stroke="#2D2D2D" height="12.98702" width="141.55844" y="587.64934" x="564.44157" fill="#FFEBA2"/>
   <rect height="14.28571" width="175.32468" y="607.12985" x="203.40261" stroke="#2D2D2D" fill="#FFEBA2"/>
   <rect height="19.48052" width="167.53247" y="629.20778" x="291.7143" stroke="#2D2D2D" fill="#FFEBA2"/>
  </g>
  <g id="1164c50e27964d45a51e4c7bfcfddbb6-ao-6">
   <rect height="23.37662" width="110.38961" y="672.06492" x="268.33767" stroke="#2D2D2D" fill="#FFEBA2"/>
   <rect height="19.48052" width="124.67533" y="673.36362" x="395.6104" stroke="#2D2D2D" fill="#FFEBA2"/>
   <rect height="19.48052" width="90.90909" y="696.74024" x="474.83118" stroke="#2D2D2D" fill="#FFEBA2"/>
   <rect height="18.18182" width="151.94805" y="722.71427" x="341.06495" stroke="#2D2D2D" fill="#FFEBA2"/>
   <rect height="15.58442" width="151.94805" y="722.71427" x="511.19482" stroke="#2D2D2D" fill="#FFEBA2"/>
   <rect stroke="#2D2D2D" height="16.88312" width="74.02597" y="743.49349" x="330.67534" fill="#FFEBA2"/>
   <rect height="15.58442" width="159.74026" y="744.79219" x="542.36365" stroke-linecap="null" stroke-linejoin="null" stroke-dasharray="null" stroke="#2D2D2D" fill="#FFEBA2"/>
   <rect height="15.58442" width="62.33766" y="743.49349" x="408.59742" stroke-linecap="null" stroke-linejoin="null" stroke-dasharray="null" stroke="#2D2D2D" fill="#FFEBA2"/>
   <rect height="18.18182" width="58.44156" y="743.49349" x="478.72729" stroke-linecap="null" stroke-linejoin="null" stroke-dasharray="null" stroke="#2D2D2D" fill="#FFEBA2"/>
  </g>
 </g>
</svg>