<svg height="679.9999999999999" width="926" xmlns="http://www.w3.org/2000/svg">
 <!-- Created with Image Occlusion Enhanced -->
 <g>
  <title>Labels</title>
 </g>
 <g>
  <title>Masks</title>
  <rect fill="#FFEBA2" height="20.3404" id="18a70619bdb74bb78ad325956a9d6bc1-ao-1" stroke="#2D2D2D" width="83.90416" x="110.08919" y="84.03638"/>
  <rect fill="#FFEBA2" height="20.3404" id="18a70619bdb74bb78ad325956a9d6bc1-ao-2" stroke="#2D2D2D" width="82.63289" x="341.46127" y="193.36604"/>
  <rect fill="#FFEBA2" height="20.3404" id="18a70619bdb74bb78ad325956a9d6bc1-ao-3" stroke="#2D2D2D" width="123.31369" x="204.16356" y="269.64255"/>
  <rect fill="#FFEBA2" height="26.69678" id="18a70619bdb74bb78ad325956a9d6bc1-ao-4" stroke="#2D2D2D" width="150.01047" x="26.18503" y="385.3286"/>
  <rect class="qshape" fill="#FF7E7E" height="25.4255" id="18a70619bdb74bb78ad325956a9d6bc1-ao-5" stroke="#2D2D2D" width="144.92537" x="40.16906" y="564.57839"/>
  <rect fill="#FFEBA2" height="22.88295" id="18a70619bdb74bb78ad325956a9d6bc1-ao-6" stroke="#2D2D2D" width="163.9945" x="265.18476" y="649.75383"/>
  <rect fill="#FFEBA2" height="24.15423" id="18a70619bdb74bb78ad325956a9d6bc1-ao-7" stroke="#2D2D2D" width="95.34564" x="394.85483" y="612.88685"/>
  <rect fill="#FFEBA2" height="43.22336" id="18a70619bdb74bb78ad325956a9d6bc1-ao-8" stroke="#2D2D2D" width="96.61691" x="514.3547" y="620.5145"/>
  <rect fill="#FFEBA2" height="44.49463" id="18a70619bdb74bb78ad325956a9d6bc1-ao-9" stroke="#2D2D2D" width="92.80309" x="808.01926" y="593.81772"/>
  <rect fill="#FFEBA2" height="43.22336" id="18a70619bdb74bb78ad325956a9d6bc1-ao-10" stroke="#2D2D2D" width="92.80309" x="829.63094" y="503.55719"/>
  <rect fill="#FFEBA2" height="38.13826" id="18a70619bdb74bb78ad325956a9d6bc1-ao-11" stroke="#2D2D2D" width="129.67007" x="759.71081" y="422.19558"/>
  <rect fill="#FFEBA2" height="22.88295" id="18a70619bdb74bb78ad325956a9d6bc1-ao-12" stroke="#2D2D2D" width="43.22336" x="801.66289" y="377.70094"/>
  <rect fill="#FFEBA2" height="30.5106" id="18a70619bdb74bb78ad325956a9d6bc1-ao-13" stroke="#2D2D2D" width="50.85101" x="869.04047" y="241.6745"/>
  <rect fill="#FFEBA2" height="30.5106" id="18a70619bdb74bb78ad325956a9d6bc1-ao-14" stroke="#2D2D2D" width="95.34564" x="637.66839" y="26.829"/>
  <rect fill="#FFEBA2" height="25.4255" id="18a70619bdb74bb78ad325956a9d6bc1-ao-15" stroke="#2D2D2D" width="188.14873" x="349.08893" y="348.46162"/>
  <rect fill="#FFEBA2" height="24.15423" id="18a70619bdb74bb78ad325956a9d6bc1-ao-16" stroke="#2D2D2D" width="110.60094" x="430.45054" y="400.5839"/>
  <rect fill="#FFEBA2" height="26.69678" id="18a70619bdb74bb78ad325956a9d6bc1-ao-17" stroke="#2D2D2D" width="176.70725" x="397.39738" y="456.52"/>
 </g>
</svg>