<svg xmlns="http://www.w3.org/2000/svg" width="811" height="333">
 <!-- Created with Image Occlusion Enhanced -->
 <g>
  <title>Labels</title>
 </g>
 <g>
  <title>Masks</title>
  <g id="1bb8f519a1f846b5975c63c87ba22919-ao-1">
   <rect height="63.52941" width="630.00003" y="43.58825" x="111.23532" stroke="#2D2D2D" fill="#FFEBA2"/>
   <rect height="16.47059" width="106.47059" y="111.23531" x="230.05886" stroke="#2D2D2D" fill="#FFEBA2"/>
   <rect height="21.76471" width="197.64707" y="132.41178" x="574.76476" stroke="#2D2D2D" fill="#FFEBA2"/>
  </g>
  <g id="1bb8f519a1f846b5975c63c87ba22919-ao-2">
   <rect height="18.82353" width="141.17648" y="178.29414" x="127.70591" stroke="#2D2D2D" fill="#FFEBA2"/>
   <rect height="14.11765" width="219.41177" y="203.00002" x="147.11768" stroke="#2D2D2D" fill="#FFEBA2"/>
   <rect height="17.64706" width="447.64708" y="312.41179" x="111.23532" stroke="#2D2D2D" fill="#FFEBA2"/>
  </g>
  <g id="1bb8f519a1f846b5975c63c87ba22919-ao-3">
   <rect height="20.58824" width="102.94118" y="244.76473" x="114.1765" stroke="#2D2D2D" fill="#FFEBA2"/>
   <rect height="18.23529" width="94.11765" y="247.70591" x="227.11768" stroke="#2D2D2D" fill="#FFEBA2"/>
   <rect height="18.82353" width="65.29412" y="246.52944" x="328.29416" stroke="#2D2D2D" fill="#FFEBA2"/>
   <rect height="21.17647" width="61.17647" y="245.35297" x="404.17651" stroke="#2D2D2D" fill="#FFEBA2"/>
   <rect height="23.52941" width="61.17647" y="245.35297" x="476.52946" stroke="#2D2D2D" fill="#FFEBA2"/>
   <rect height="21.17647" width="63.52941" y="245.35297" x="544.17652" stroke="#2D2D2D" fill="#FFEBA2"/>
   <rect height="17.64706" width="92.94118" y="245.35297" x="619.47064" stroke="#2D2D2D" fill="#FFEBA2"/>
   <rect height="17.05882" width="145.88236" y="270.05885" x="113.58827" stroke="#2D2D2D" fill="#FFEBA2"/>
   <rect height="15.88235" width="157.05883" y="269.47061" x="264.76474" stroke="#2D2D2D" fill="#FFEBA2"/>
  </g>
 </g>
</svg>