<svg xmlns="http://www.w3.org/2000/svg" width="1334" height="742">
 <!-- Created with Image Occlusion Enhanced -->
 <g>
  <title>Labels</title>
 </g>
 <g>
  <title>Masks</title>
  <g id="1d66e8ce02be4762b76e56e4b82bbdc7-ao-1">
   <rect height="35" width="146.25001" y="300.00004" x="1182.75012" stroke="#2D2D2D" fill="#FFEBA2"/>
   <rect height="15" width="95" y="300.00004" x="461.50008" stroke-linecap="null" stroke-linejoin="null" stroke-dasharray="null" stroke="#2D2D2D" fill="#FFEBA2"/>
  </g>
  <g id="1d66e8ce02be4762b76e56e4b82bbdc7-ao-2" class="qshape">
   <rect height="17.5" width="78.75" y="275.00004" x="359.00008" stroke="#2D2D2D" fill="#FF7E7E" class="qshape"/>
   <rect height="12.5" width="92.5" y="222.50004" x="359.00008" stroke="#2D2D2D" fill="#FF7E7E" class="qshape"/>
   <rect height="31.25" width="166.25001" y="385.00005" x="1132.75011" stroke="#2D2D2D" fill="#FF7E7E" class="qshape"/>
  </g>
  <g id="1d66e8ce02be4762b76e56e4b82bbdc7-ao-3">
   <rect height="36.25" width="88.75" y="418.75005" x="1087.75011" stroke="#2D2D2D" fill="#FFEBA2"/>
   <rect height="21.25" width="41.25" y="346.25004" x="196.50007" stroke="#2D2D2D" fill="#FFEBA2"/>
  </g>
  <g id="1d66e8ce02be4762b76e56e4b82bbdc7-ao-4">
   <rect height="36.25" width="296.25001" y="498.75005" x="920.2501" stroke="#2D2D2D" fill="#FFEBA2"/>
   <rect height="57.5" width="47.5" y="470.00005" x="252.75007" stroke-linecap="null" stroke-linejoin="null" stroke-dasharray="null" stroke="#2D2D2D" fill="#FFEBA2"/>
  </g>
  <g id="1d66e8ce02be4762b76e56e4b82bbdc7-ao-5">
   <rect height="27.5" width="288.75001" y="545.00005" x="920.2501" stroke="#2D2D2D" fill="#FFEBA2"/>
   <rect height="18.75" width="85" y="678.75006" x="356.50008" stroke-linecap="null" stroke-linejoin="null" stroke-dasharray="null" stroke="#2D2D2D" fill="#FFEBA2"/>
   <rect height="10" width="63.75" y="703.75006" x="369.00008" stroke-linecap="null" stroke-linejoin="null" stroke-dasharray="null" stroke="#2D2D2D" fill="#FFEBA2"/>
  </g>
  <g id="1d66e8ce02be4762b76e56e4b82bbdc7-ao-6">
   <rect height="32.5" width="52.5" y="617.50006" x="1204.00012" stroke="#2D2D2D" fill="#FFEBA2"/>
   <rect height="31.25" width="76.25" y="661.25006" x="906.5001" stroke="#2D2D2D" fill="#FFEBA2"/>
   <rect stroke="#2D2D2D" height="13.75" width="35" y="575.00005" x="147.75007" fill="#FFEBA2"/>
   <rect height="13.75" width="41.25" y="593.75006" x="161.50007" stroke-linecap="null" stroke-linejoin="null" stroke-dasharray="null" stroke="#2D2D2D" fill="#FFEBA2"/>
  </g>
 </g>
</svg>