<svg xmlns="http://www.w3.org/2000/svg" width="1275" height="686">
 <!-- Created with Image Occlusion Enhanced -->
 <g>
  <title>Labels</title>
 </g>
 <g>
  <title>Masks</title>
  <g id="1eb27e93c7654b86b110b6b0ad1ecdfe-ao-1">
   <rect height="37.2093" width="123.25581" y="136.09298" x="544.06977" stroke="#2D2D2D" fill="#FFEBA2"/>
   <rect height="36.04651" width="124.4186" y="137.25578" x="692.90698" stroke="#2D2D2D" fill="#FFEBA2"/>
   <rect height="37.2093" width="136.04651" y="136.09298" x="894.06977" stroke="#2D2D2D" fill="#FFEBA2"/>
   <rect height="36.04651" width="291.86047" y="194.23252" x="566.16279" stroke="#2D2D2D" fill="#FFEBA2"/>
  </g>
  <g id="1eb27e93c7654b86b110b6b0ad1ecdfe-ao-2">
   <rect height="29.06977" width="241.86047" y="402.37205" x="345.23256" stroke="#2D2D2D" fill="#FFEBA2"/>
   <rect height="37.2093" width="79.06977" y="398.88368" x="680.11628" stroke="#2D2D2D" fill="#FFEBA2"/>
   <rect height="43.02326" width="88.37209" y="395.39531" x="885.93023" stroke="#2D2D2D" fill="#FFEBA2"/>
   <rect height="31.39535" width="145.34884" y="443.06973" x="32.44186" stroke="#2D2D2D" fill="#FFEBA2"/>
   <rect height="30.23256" width="229.06977" y="439.58136" x="368.48837" stroke="#2D2D2D" fill="#FFEBA2"/>
   <g>
    <rect height="41.86047" width="294.18605" y="246.5581" x="396.39535" stroke="#2D2D2D" fill="#FFEBA2"/>
    <rect height="32.55814" width="276.74419" y="255.86043" x="712.67442" stroke="#2D2D2D" fill="#FFEBA2"/>
    <rect height="34.88372" width="208.13953" y="252.37205" x="1005.69767" stroke="#2D2D2D" fill="#FFEBA2"/>
    <rect height="36.04651" width="79.06977" y="291.90694" x="205.69767" stroke="#2D2D2D" fill="#FFEBA2"/>
    <rect height="25.5814" width="174.4186" y="298.88368" x="418.48837" stroke="#2D2D2D" fill="#FFEBA2"/>
    <rect height="34.88372" width="234.88372" y="293.06973" x="796.39535" stroke="#2D2D2D" fill="#FFEBA2"/>
    <rect height="29.06977" width="246.51163" y="345.39531" x="103.37209" stroke="#2D2D2D" fill="#FFEBA2"/>
   </g>
  </g>
  
 </g>
</svg>