<svg xmlns="http://www.w3.org/2000/svg" width="1009" height="589">
 <!-- Created with Image Occlusion Enhanced -->
 <g>
  <title>Labels</title>
 </g>
 <g>
  <title>Masks</title>
  <g id="268626d0234a4abb8abff7f22567a8a4-ao-1">
   <rect height="32" width="144" y="166.2" x="167" stroke="#2D2D2D" fill="#FFEBA2"/>
   <rect height="30" width="146" y="200.2" x="30" stroke="#2D2D2D" fill="#FFEBA2"/>
   <rect height="22" width="72" y="232.2" x="89" stroke="#2D2D2D" fill="#FFEBA2"/>
   <rect height="24" width="77" y="265.2" x="182" stroke="#2D2D2D" fill="#FFEBA2"/>
  </g>
  <g id="268626d0234a4abb8abff7f22567a8a4-ao-2">
   <rect height="21" width="152" y="326.2" x="27" stroke="#2D2D2D" fill="#FFEBA2"/>
   <rect height="19" width="53" y="326.2" x="189" stroke="#2D2D2D" fill="#FFEBA2"/>
   <rect height="20" width="204" y="324.2" x="263" stroke="#2D2D2D" fill="#FFEBA2"/>
   <rect height="25" width="203" y="357.2" x="55" stroke="#2D2D2D" fill="#FFEBA2"/>
   <rect height="23" width="173" y="355.2" x="287" stroke="#2D2D2D" fill="#FFEBA2"/>
   <rect height="22" width="136" y="387.2" x="54" stroke="#2D2D2D" fill="#FFEBA2"/>
   <rect height="25" width="185" y="386.2" x="210" stroke="#2D2D2D" fill="#FFEBA2"/>
   <rect height="24" width="152" y="416.2" x="46" stroke="#2D2D2D" fill="#FFEBA2"/>
  </g>
  <g id="268626d0234a4abb8abff7f22567a8a4-ao-3" class="qshape">
   <rect height="30" width="100" y="205.2" x="886" stroke="#2D2D2D" fill="#FF7E7E" class="qshape"/>
   <rect height="29" width="121" y="353.2" x="889" stroke="#2D2D2D" fill="#FF7E7E" class="qshape"/>
   <rect height="26" width="55" y="457.2" x="587" stroke="#2D2D2D" fill="#FF7E7E" class="qshape"/>
  </g>
 </g>
</svg>