<svg xmlns="http://www.w3.org/2000/svg" width="864" height="220">
 <!-- Created with Image Occlusion Enhanced -->
 <g>
  <title>Labels</title>
 </g>
 <g>
  <title>Masks</title>
  <rect id="28105988c45d416e89962454cdb120de-ao-1" height="38.36478" width="735.84908" y="25.5346" x="71.09432" stroke="#2D2D2D" fill="#FFEBA2"/>
  <g id="28105988c45d416e89962454cdb120de-ao-2" class="qshape">
   <rect height="19.49686" width="101.25787" y="111.06919" x="112.60375" stroke="#2D2D2D" fill="#FF7E7E" class="qshape"/>
   <rect height="20.75472" width="44.02516" y="111.06919" x="336.50313" stroke="#2D2D2D" fill="#FF7E7E" class="qshape"/>
   <rect height="18.86793" width="53.45912" y="112.32706" x="525.18238" stroke="#2D2D2D" fill="#FF7E7E" class="qshape"/>
   <rect height="15.09434" width="128.93082" y="115.47171" x="596.25157" stroke="#2D2D2D" fill="#FF7E7E" class="qshape"/>
   <rect height="18.86793" width="33.33333" y="157.61008" x="118.89306" stroke="#2D2D2D" fill="#FF7E7E" class="qshape"/>
   <rect height="19.49686" width="13.83648" y="158.23901" x="196.88049" stroke="#2D2D2D" fill="#FF7E7E" class="qshape"/>
   <rect height="15.09434" width="118.86793" y="158.86794" x="265.43395" stroke="#2D2D2D" fill="#FF7E7E" class="qshape"/>
   <rect height="17.61006" width="49.05661" y="156.35221" x="499.39622" stroke="#2D2D2D" fill="#FF7E7E" class="qshape"/>
   <rect height="17.61006" width="37.10692" y="158.86794" x="624.55346" stroke="#2D2D2D" fill="#FF7E7E" class="qshape"/>
   <rect height="15.09434" width="52.83019" y="159.49687" x="701.91195" stroke="#2D2D2D" fill="#FF7E7E" class="qshape"/>
   <rect height="13.83648" width="35.22013" y="183.39624" x="117.00627" stroke="#2D2D2D" fill="#FF7E7E" class="qshape"/>
   <rect height="18.86793" width="136.47799" y="180.25159" x="505.0566" stroke="#2D2D2D" fill="#FF7E7E" class="qshape"/>
   <rect height="17.61006" width="52.83019" y="180.25159" x="687.44654" stroke="#2D2D2D" fill="#FF7E7E" class="qshape"/>
   <rect height="12.57862" width="77.35849" y="204.15096" x="240.90564" stroke="#2D2D2D" fill="#FF7E7E" class="qshape"/>
   <rect height="16.3522" width="131.44655" y="201.63523" x="350.33961" stroke="#2D2D2D" fill="#FF7E7E" class="qshape"/>
   <rect height="10.06289" width="160.37736" y="206.66668" x="682.41509" stroke="#2D2D2D" fill="#FF7E7E" class="qshape"/>
  </g>
 </g>
</svg>