<svg xmlns="http://www.w3.org/2000/svg" width="847" height="466.99999999999994">
 <!-- Created with Image Occlusion Enhanced -->
 <g>
  <title>Labels</title>
 </g>
 <g>
  <title>Masks</title>
  <g id="2ba9042ee2504fecb5f75ff35b11bcce-ao-1">
   <rect height="19.84127" width="84.12699" y="42.68255" x="124.4286" stroke="#2D2D2D" fill="#FFEBA2"/>
   <rect height="22.22222" width="220.63493" y="43.47621" x="376.01591" stroke="#2D2D2D" fill="#FFEBA2"/>
   <rect height="16.66667" width="78.57143" y="45.06351" x="668.87306" stroke="#2D2D2D" fill="#FFEBA2"/>
   <rect height="19.04762" width="61.90476" y="41.8889" x="780.77782" stroke="#2D2D2D" fill="#FFEBA2"/>
  </g>
  <g id="2ba9042ee2504fecb5f75ff35b11bcce-ao-2">
   <rect height="14.28571" width="434.92065" y="114.11113" x="198.23812" stroke="#2D2D2D" fill="#FFEBA2"/>
   <rect height="17.46032" width="45.2381" y="134.74605" x="192.68257" stroke="#2D2D2D" fill="#FFEBA2"/>
   <rect height="16.66667" width="34.12699" y="134.74605" x="250.61908" stroke="#2D2D2D" fill="#FFEBA2"/>
   <rect height="21.42857" width="105.55556" y="133.15875" x="625.22226" stroke="#2D2D2D" fill="#FFEBA2"/>
   <rect height="15.07937" width="127.77778" y="179.98415" x="426.80956" stroke="#2D2D2D" fill="#FFEBA2"/>
  </g>
  
  <g id="2ba9042ee2504fecb5f75ff35b11bcce-ao-4">
   <rect stroke="#2D2D2D" height="21.42857" width="96.03175" y="287.92066" x="194.26987" fill="#FFEBA2"/>
   <rect height="12.69841" width="300.79366" y="316.49209" x="197.44447" stroke-linecap="null" stroke-linejoin="null" stroke-dasharray="null" stroke="#2D2D2D" fill="#FFEBA2"/>
  </g>
  <g id="2ba9042ee2504fecb5f75ff35b11bcce-ao-5">
   <rect height="16.66667" width="33.33333" y="357.76193" x="72.04764" stroke-linecap="null" stroke-linejoin="null" stroke-dasharray="null" stroke="#2D2D2D" fill="#FFEBA2"/>
   <rect height="19.04762" width="30.15873" y="356.17463" x="205.38098" stroke-linecap="null" stroke-linejoin="null" stroke-dasharray="null" stroke="#2D2D2D" fill="#FFEBA2"/>
   <rect height="13.49206" width="61.90476" y="382.3651" x="452.20638" stroke-linecap="null" stroke-linejoin="null" stroke-dasharray="null" stroke="#2D2D2D" fill="#FFEBA2"/>
   <rect height="20.63492" width="111.11111" y="379.98415" x="584.74607" stroke-linecap="null" stroke-linejoin="null" stroke-dasharray="null" stroke="#2D2D2D" fill="#FFEBA2"/>
   <rect height="13.49206" width="65.87302" y="404.58733" x="121.25399" stroke-linecap="null" stroke-linejoin="null" stroke-dasharray="null" stroke="#2D2D2D" fill="#FFEBA2"/>
   <rect height="13.49206" width="154.76191" y="405.38098" x="211.73019" stroke-linecap="null" stroke-linejoin="null" stroke-dasharray="null" stroke="#2D2D2D" fill="#FFEBA2"/>
   <rect height="19.84127" width="423.80954" y="402.20637" x="397.44448" stroke-linecap="null" stroke-linejoin="null" stroke-dasharray="null" stroke="#2D2D2D" fill="#FFEBA2"/>
   <rect height="12.69841" width="126.19048" y="427.6032" x="118.87304" stroke-linecap="null" stroke-linejoin="null" stroke-dasharray="null" stroke="#2D2D2D" fill="#FFEBA2"/>
   <rect height="13.49206" width="150.79366" y="449.82542" x="210.14289" stroke-linecap="null" stroke-linejoin="null" stroke-dasharray="null" stroke="#2D2D2D" fill="#FFEBA2"/>
  </g>
 </g>
</svg>