<svg xmlns="http://www.w3.org/2000/svg" width="837" height="544">
 <!-- Created with Image Occlusion Enhanced -->
 <g>
  <title>Labels</title>
 </g>
 <g>
  <title>Masks</title>
  <g id="322c203c9c8146789cb5abdbd2fa9b49-ao-1">
   <rect height="25.68807" width="19.26605" y="109.76144" x="291.62383" stroke="#2D2D2D" fill="#FFEBA2"/>
   <rect height="18.34862" width="41.2844" y="134.53208" x="203.55044" stroke="#2D2D2D" fill="#FFEBA2"/>
   <rect height="19.26605" width="44.0367" y="132.69722" x="273.27521" stroke="#2D2D2D" fill="#FFEBA2"/>
   <rect height="17.43119" width="102.75229" y="181.32107" x="204.46787" stroke="#2D2D2D" fill="#FFEBA2"/>
   <rect height="20.18349" width="185.3211" y="204.25685" x="209.97246" stroke="#2D2D2D" fill="#FFEBA2"/>
   <rect height="15.59633" width="78.89908" y="206.09171" x="437.49539" stroke="#2D2D2D" fill="#FFEBA2"/>
   <rect height="22.93578" width="29.3578" y="202.42199" x="662.26603" stroke="#2D2D2D" fill="#FFEBA2"/>
   <rect height="22.01835" width="22.93578" y="202.42199" x="712.72474" stroke="#2D2D2D" fill="#FFEBA2"/>
   <rect height="19.26605" width="111.00917" y="227.19263" x="207.22016" stroke="#2D2D2D" fill="#FFEBA2"/>
   <rect height="17.43119" width="72.47706" y="228.11006" x="448.50456" stroke="#2D2D2D" fill="#FFEBA2"/>
   <rect height="20.18349" width="175.22935" y="250.12841" x="204.46787" stroke="#2D2D2D" fill="#FFEBA2"/>
  </g>
  <g id="322c203c9c8146789cb5abdbd2fa9b49-ao-2" class="qshape">
   <rect height="14.6789" width="282.5688" y="319.85318" x="203.55044" stroke="#2D2D2D" fill="#FF7E7E" class="qshape"/>
   <rect height="41.2844" width="579.8165" y="341.87153" x="207.22016" stroke="#2D2D2D" fill="#FF7E7E" class="qshape"/>
  </g>
  <g id="322c203c9c8146789cb5abdbd2fa9b49-ao-3">
   <rect height="12.84404" width="121.10092" y="387.74309" x="512.72475" stroke="#2D2D2D" fill="#FFEBA2"/>
   <rect height="12.84404" width="136.69725" y="387.74309" x="670.52291" stroke="#2D2D2D" fill="#FFEBA2"/>
   <rect height="15.59633" width="193.57798" y="413.43116" x="273.27521" stroke="#2D2D2D" fill="#FFEBA2"/>
   <rect height="18.34862" width="211.00917" y="411.5963" x="609.97245" stroke="#2D2D2D" fill="#FFEBA2"/>
   <rect height="18.34862" width="98.16514" y="432.69721" x="204.46787" stroke="#2D2D2D" fill="#FFEBA2"/>
  </g>
  <g id="322c203c9c8146789cb5abdbd2fa9b49-ao-4">
   <rect height="14.6789" width="308.25687" y="476.73391" x="236.57796" stroke="#2D2D2D" fill="#FFEBA2"/>
   <rect height="14.6789" width="330.27522" y="500.58712" x="434.7431" stroke="#2D2D2D" fill="#FFEBA2"/>
   <rect height="19.26605" width="566.05504" y="520.77061" x="256.76145" stroke="#2D2D2D" fill="#FFEBA2"/>
  </g>
 </g>
</svg>