<svg xmlns="http://www.w3.org/2000/svg" width="1440" height="810">
 <!-- Created with Image Occlusion Enhanced -->
 <g>
  <title>Labels</title>
 </g>
 <g>
  <title>Masks</title>
  <g id="3919b0324f124aa9aeed27929ccdee60-oa-1">
   <rect height="20" width="75" y="170" x="120" stroke="#2D2D2D" fill="#FFEBA2"/>
   <rect height="27.5" width="55" y="192.5" x="835" stroke="#2D2D2D" fill="#FFEBA2"/>
   <rect height="27.5" width="412.5" y="162.5" x="917.5" stroke="#2D2D2D" fill="#FFEBA2"/>
  </g>
  <g id="3919b0324f124aa9aeed27929ccdee60-oa-2">
   <rect height="22.5" width="85" y="265" x="120" stroke="#2D2D2D" fill="#FFEBA2"/>
   <rect height="27.5" width="177.5" y="260" x="690" stroke="#2D2D2D" fill="#FFEBA2"/>
   <rect height="27.5" width="277.5" y="285" x="257.5" stroke="#2D2D2D" fill="#FFEBA2"/>
   <rect height="22.5" width="230" y="262.5" x="1075" stroke="#2D2D2D" fill="#FFEBA2"/>
   <rect height="22.5" width="345" y="317.5" x="912.5" stroke="#2D2D2D" fill="#FFEBA2"/>
  </g>
  <g id="3919b0324f124aa9aeed27929ccdee60-oa-3">
   <rect height="30" width="95" y="410" x="122.5" stroke="#2D2D2D" fill="#FFEBA2"/>
   <rect height="22.5" width="87.5" y="410" x="372.5" stroke="#2D2D2D" fill="#FFEBA2"/>
   <rect height="27.5" width="197.5" y="412.5" x="1007.5" stroke="#2D2D2D" fill="#FFEBA2"/>
   <rect height="25" width="82.5" y="440" x="1227.5" stroke="#2D2D2D" fill="#FFEBA2"/>
   <rect height="22.5" width="122.5" y="470" x="912.5" stroke="#2D2D2D" fill="#FFEBA2"/>
   <rect height="17.5" width="85" y="475" x="1147.5" stroke="#2D2D2D" fill="#FFEBA2"/>
  </g>
  <g id="3919b0324f124aa9aeed27929ccdee60-oa-4">
   <rect height="25" width="85" y="507.5" x="120" stroke-linecap="null" stroke-linejoin="null" stroke-dasharray="null" stroke="#2D2D2D" fill="#FFEBA2"/>
   <rect height="20" width="352.5" y="512.5" x="432.5" stroke-linecap="null" stroke-linejoin="null" stroke-dasharray="null" stroke="#2D2D2D" fill="#FFEBA2"/>
   <rect height="22.5" width="80" y="567.5" x="412.5" stroke-linecap="null" stroke-linejoin="null" stroke-dasharray="null" stroke="#2D2D2D" fill="#FFEBA2"/>
   <rect height="20" width="517.5" y="597.5" x="377.5" stroke-linecap="null" stroke-linejoin="null" stroke-dasharray="null" stroke="#2D2D2D" fill="#FFEBA2"/>
   <rect height="25" width="300" y="510" x="1020" stroke-linecap="null" stroke-linejoin="null" stroke-dasharray="null" stroke="#2D2D2D" fill="#FFEBA2"/>
  </g>
  <g id="3919b0324f124aa9aeed27929ccdee60-oa-5">
   <rect height="27.5" width="82.5" y="662.5" x="122.5" stroke-linecap="null" stroke-linejoin="null" stroke-dasharray="null" stroke="#2D2D2D" fill="#FFEBA2"/>
   <rect height="22.5" width="130" y="665" x="265" stroke-linecap="null" stroke-linejoin="null" stroke-dasharray="null" stroke="#2D2D2D" fill="#FFEBA2"/>
   <rect height="27.5" width="140" y="662.5" x="447.5" stroke-linecap="null" stroke-linejoin="null" stroke-dasharray="null" stroke="#2D2D2D" fill="#FFEBA2"/>
   <rect height="17.5" width="205" y="667.5" x="1075" stroke-linecap="null" stroke-linejoin="null" stroke-dasharray="null" stroke="#2D2D2D" fill="#FFEBA2"/>
  </g>
 </g>
</svg>