<svg xmlns="http://www.w3.org/2000/svg" width="1003.0000000000001" height="735">
 <!-- Created with Image Occlusion Enhanced -->
 <g>
  <title>Labels</title>
 </g>
 <g>
  <title>Masks</title>
  <rect id="3ee788f7bfb5427d8b69c80e065bc62c-ao-1" height="192.5" width="175" y="108.5" x="726.74995" stroke="#2D2D2D" fill="#FFEBA2"/>
  <rect id="3ee788f7bfb5427d8b69c80e065bc62c-ao-2" height="23.75" width="160" y="556" x="52.99995" stroke="#2D2D2D" fill="#FFEBA2"/>
  <g id="3ee788f7bfb5427d8b69c80e065bc62c-ao-3">
   <rect height="35" width="250" y="149.75" x="66.74995" stroke="#2D2D2D" fill="#FFEBA2"/>
   <rect height="17.5" width="45" y="194.75" x="241.74995" stroke="#2D2D2D" fill="#FFEBA2"/>
   <rect height="17.5" width="38.75" y="221" x="201.74995" stroke="#2D2D2D" fill="#FFEBA2"/>
  </g>
  <g id="3ee788f7bfb5427d8b69c80e065bc62c-ao-4">
   <rect height="22.5" width="38.75" y="188.5" x="364.24995" stroke="#2D2D2D" fill="#FFEBA2"/>
   <rect height="32.5" width="170" y="184.75" x="510.49995" stroke="#2D2D2D" fill="#FFEBA2"/>
   <rect height="20" width="203.75" y="231" x="352.99995" stroke="#2D2D2D" fill="#FFEBA2"/>
  </g>
  <g id="3ee788f7bfb5427d8b69c80e065bc62c-ao-5">
   <rect height="23.75" width="243.75" y="491" x="370.49995" stroke="#2D2D2D" fill="#FFEBA2"/>
   <rect height="26.25" width="245" y="488.5" x="682.99995" stroke="#2D2D2D" fill="#FFEBA2"/>
   <rect height="20" width="130" y="524.75" x="36.74995" stroke="#2D2D2D" fill="#FFEBA2"/>
  </g>
  <g id="3ee788f7bfb5427d8b69c80e065bc62c-ao-6" class="qshape">
   <rect height="31.25" width="241.25" y="583.5" x="246.74995" stroke="#2D2D2D" fill="#FF7E7E" class="qshape"/>
   <rect height="23.75" width="73.75" y="586" x="501.74995" stroke="#2D2D2D" fill="#FF7E7E" class="qshape"/>
   <rect height="21.25" width="157.5" y="584.75" x="594.24995" stroke="#2D2D2D" fill="#FF7E7E" class="qshape"/>
   <rect height="26.25" width="81.25" y="584.75" x="769.24995" stroke="#2D2D2D" fill="#FF7E7E" class="qshape"/>
  </g>
 </g>
</svg>