<svg xmlns="http://www.w3.org/2000/svg" width="1584" height="1224">
 <!-- Created with Image Occlusion Enhanced -->
 <g>
  <title>Labels</title>
 </g>
 <g>
  <title>Masks</title>
  <rect id="4180d62cb3ac4e3983a93eb91a35c037-oa-1" height="76.66666" width="433.33332" y="280.99995" x="360.99995" stroke="#2D2D2D" fill="#FFEBA2"/>
  <rect id="4180d62cb3ac4e3983a93eb91a35c037-oa-2" height="100" width="113.33333" y="290.99995" x="837.6666" stroke="#2D2D2D" fill="#FFEBA2"/>
  <rect id="4180d62cb3ac4e3983a93eb91a35c037-oa-3" height="93.33333" width="126.66666" y="427.66661" x="834.33327" stroke="#2D2D2D" fill="#FFEBA2"/>
  <rect id="4180d62cb3ac4e3983a93eb91a35c037-oa-4" height="116.66666" width="140" y="544.33327" x="827.6666" stroke="#2D2D2D" fill="#FFEBA2"/>
  <rect id="4180d62cb3ac4e3983a93eb91a35c037-oa-5" height="100" width="140" y="690.99994" x="830.99994" stroke="#2D2D2D" fill="#FFEBA2"/>
  <rect id="4180d62cb3ac4e3983a93eb91a35c037-oa-6" height="219.99999" width="150" y="830.99993" x="827.6666" stroke="#2D2D2D" fill="#FFEBA2"/>
  <rect id="4180d62cb3ac4e3983a93eb91a35c037-oa-7" height="83.33333" width="393.33332" y="417.66661" x="357.66662" stroke="#2D2D2D" fill="#FFEBA2"/>
  <rect id="4180d62cb3ac4e3983a93eb91a35c037-oa-8" height="113.33333" width="403.33332" y="550.99994" x="354.33328" stroke="#2D2D2D" fill="#FFEBA2"/>
  <rect id="4180d62cb3ac4e3983a93eb91a35c037-oa-9" height="83.33333" width="396.66666" y="697.6666" x="357.66662" stroke="#2D2D2D" fill="#FFEBA2"/>
  <rect id="4180d62cb3ac4e3983a93eb91a35c037-oa-10" height="229.99999" width="449.99999" y="837.6666" x="350.99995" stroke="#2D2D2D" fill="#FFEBA2"/>
  <rect id="4180d62cb3ac4e3983a93eb91a35c037-oa-11" height="43.33333" width="80" y="824.33327" x="107.66662" stroke="#2D2D2D" fill="#FFEBA2"/>
  <rect id="4180d62cb3ac4e3983a93eb91a35c037-oa-12" height="40" width="63.33333" y="697.6666" x="107.66662" stroke="#2D2D2D" fill="#FFEBA2"/>
  <rect id="4180d62cb3ac4e3983a93eb91a35c037-oa-13" height="86.66666" width="203.33333" y="544.33327" x="110.99996" stroke="#2D2D2D" fill="#FFEBA2"/>
  <rect id="4180d62cb3ac4e3983a93eb91a35c037-oa-14" height="50" width="76.66666" y="414.33328" x="114.33329" stroke="#2D2D2D" fill="#FFEBA2"/>
  <rect id="4180d62cb3ac4e3983a93eb91a35c037-oa-15" height="60" width="180" y="274.33328" x="107.66662" stroke="#2D2D2D" fill="#FFEBA2"/>
 </g>
</svg>