<svg xmlns="http://www.w3.org/2000/svg" width="838" height="481">
 <!-- Created with Image Occlusion Enhanced -->
 <g>
  <title>Labels</title>
 </g>
 <g>
  <title>Masks</title>
  <rect id="44c19c5ea0224c64b2e11950fcd4f1d5-ao-1" height="69.9187" width="244.71545" y="154.77235" x="210.6179" stroke="#2D2D2D" fill="#FFEBA2"/>
  <rect id="44c19c5ea0224c64b2e11950fcd4f1d5-ao-2" height="68.29268" width="170.73171" y="247.45528" x="209.80489" stroke="#2D2D2D" fill="#FFEBA2"/>
  <g id="44c19c5ea0224c64b2e11950fcd4f1d5-ao-3">
   <rect height="21.13821" width="95.93496" y="63.71544" x="239.88619" stroke="#2D2D2D" fill="#FFEBA2"/>
   <rect height="18.69919" width="182.11382" y="66.15446" x="356.14635" stroke="#2D2D2D" fill="#FFEBA2"/>
   <rect height="20.3252" width="68.29268" y="88.10568" x="225.25204" stroke="#2D2D2D" fill="#FFEBA2"/>
   <rect height="22.76423" width="187.80488" y="114.12194" x="288.66668" stroke="#2D2D2D" fill="#FFEBA2"/>
  </g>
  <g id="44c19c5ea0224c64b2e11950fcd4f1d5-ao-4">
   <rect height="19.5122" width="123.57724" y="341.76422" x="417.93497" stroke="#2D2D2D" fill="#FFEBA2"/>
   <rect height="14.63415" width="117.07317" y="366.96747" x="268.34147" stroke="#2D2D2D" fill="#FFEBA2"/>
   <rect height="17.07317" width="145.52846" y="366.15447" x="494.35774" stroke="#2D2D2D" fill="#FFEBA2"/>
   <rect height="15.44715" width="100.81301" y="366.96747" x="661.83741" stroke="#2D2D2D" fill="#FFEBA2"/>
   <rect height="18.69919" width="145.52846" y="389.7317" x="213.05692" stroke="#2D2D2D" fill="#FFEBA2"/>
   <rect height="16.26016" width="52.03252" y="390.54471" x="426.87806" stroke="#2D2D2D" fill="#FFEBA2"/>
   <rect height="17.88618" width="69.10569" y="388.91869" x="593.54473" stroke="#2D2D2D" fill="#FFEBA2"/>
   <rect height="21.95122" width="48.78049" y="410.05691" x="213.05692" stroke="#2D2D2D" fill="#FFEBA2"/>
   <rect height="17.07317" width="200" y="411.68292" x="304.92684" stroke="#2D2D2D" fill="#FFEBA2"/>
   <rect height="20.3252" width="95.12195" y="411.68292" x="550.4553" stroke="#2D2D2D" fill="#FFEBA2"/>
   <rect height="13.00813" width="72.35772" y="416.56097" x="667.52847" stroke="#2D2D2D" fill="#FFEBA2"/>
  </g>
  
 </g>
</svg>