<svg xmlns="http://www.w3.org/2000/svg" width="1046" height="1046">
 <!-- Created with Image Occlusion Enhanced -->
 <g>
  <title>Labels</title>
 </g>
 <g>
  <title>Masks</title>
  <rect id="4578cca3409849e4a79818079b90d82b-oa-1" height="26.78571" width="216.07142" y="230.78569" x="478.99997" stroke="#2D2D2D" fill="#FFEBA2"/>
  <rect id="4578cca3409849e4a79818079b90d82b-oa-2" height="28.57143" width="208.92857" y="303.99998" x="480.78569" stroke="#2D2D2D" fill="#FFEBA2"/>
  <g id="4578cca3409849e4a79818079b90d82b-oa-3">
   <rect height="26.78571" width="157.14285" y="370.0714" x="130.78569" stroke="#2D2D2D" fill="#FFEBA2"/>
   <rect height="28.57143" width="155.35714" y="368.28569" x="373.64283" stroke="#2D2D2D" fill="#FFEBA2"/>
   <rect height="21.42857" width="157.14285" y="371.85712" x="625.42854" stroke="#2D2D2D" fill="#FFEBA2"/>
  </g>
  <g id="4578cca3409849e4a79818079b90d82b-oa-4">
   <rect height="23.21429" width="82.14286" y="421.85712" x="96.85712" stroke="#2D2D2D" fill="#FFEBA2"/>
   <rect height="32.14286" width="85.71428" y="418.28569" x="346.85712" stroke="#2D2D2D" fill="#FFEBA2"/>
   <rect height="32.14286" width="87.5" y="418.28569" x="589.71426" stroke="#2D2D2D" fill="#FFEBA2"/>
  </g>
  <g id="4578cca3409849e4a79818079b90d82b-oa-5">
   <rect height="28.57143" width="87.5" y="559.35712" x="116.49998" stroke="#2D2D2D" fill="#FFEBA2"/>
   <rect height="28.57143" width="75" y="559.35712" x="220.07141" stroke="#2D2D2D" fill="#FFEBA2"/>
  </g>
  <g id="4578cca3409849e4a79818079b90d82b-oa-6">
   <rect height="25" width="78.57143" y="561.14283" x="366.49998" stroke="#2D2D2D" fill="#FFEBA2"/>
   <rect height="28.57143" width="78.57143" y="559.35712" x="466.49997" stroke="#2D2D2D" fill="#FFEBA2"/>
  </g>
  <g id="4578cca3409849e4a79818079b90d82b-oa-7">
   <rect height="26.78571" width="80.35714" y="559.35712" x="611.14283" stroke="#2D2D2D" fill="#FFEBA2"/>
   <rect height="30.35714" width="83.92857" y="555.78569" x="711.14283" stroke="#2D2D2D" fill="#FFEBA2"/>
  </g>
  <g id="4578cca3409849e4a79818079b90d82b-oa-8">
   <rect height="26.78571" width="92.85714" y="736.14283" x="116.49998" stroke="#2D2D2D" fill="#FFEBA2"/>
   <rect height="25" width="85.71428" y="736.14283" x="412.92855" stroke="#2D2D2D" fill="#FFEBA2"/>
   <rect height="28.57143" width="89.28571" y="734.35711" x="705.78569" stroke="#2D2D2D" fill="#FFEBA2"/>
  </g>
 </g>
</svg>