<svg xmlns="http://www.w3.org/2000/svg" width="1820" height="1045">
 <!-- Created with Image Occlusion Enhanced -->
 <g>
  <title>Labels</title>
 </g>
 <g>
  <title>Masks</title>
  <rect id="4a1939fdfea34e8db3e24a4caa5a959d-oa-1" height="25" width="144.64286" y="553.21425" x="85.35712" stroke="#2D2D2D" fill="#FFEBA2"/>
  <rect id="4a1939fdfea34e8db3e24a4caa5a959d-oa-2" height="25" width="75" y="606.78568" x="413.92854" stroke="#2D2D2D" fill="#FFEBA2"/>
  <rect id="4a1939fdfea34e8db3e24a4caa5a959d-oa-3" height="50" width="178.57143" y="792.49996" x="737.14283" stroke="#2D2D2D" fill="#FFEBA2"/>
  <rect id="4a1939fdfea34e8db3e24a4caa5a959d-oa-4" height="25" width="178.57143" y="578.21425" x="740.71426" stroke="#2D2D2D" fill="#FFEBA2"/>
  <rect id="4a1939fdfea34e8db3e24a4caa5a959d-oa-5" height="33.92857" width="189.28571" y="438.92854" x="746.0714" stroke="#2D2D2D" fill="#FFEBA2"/>
  <rect id="4a1939fdfea34e8db3e24a4caa5a959d-oa-6" height="30.35714" width="128.57143" y="440.71425" x="446.0714" stroke="#2D2D2D" fill="#FFEBA2"/>
  <rect id="4a1939fdfea34e8db3e24a4caa5a959d-oa-7" height="32.14286" width="180.35714" y="440.71425" x="92.49998" stroke="#2D2D2D" fill="#FFEBA2"/>
  <rect id="4a1939fdfea34e8db3e24a4caa5a959d-oa-8" height="26.78571" width="191.07143" y="287.14283" x="412.14283" stroke="#2D2D2D" fill="#FFEBA2"/>
  <rect id="4a1939fdfea34e8db3e24a4caa5a959d-oa-9" height="32.14286" width="164.28571" y="279.99997" x="1349.64282" stroke="#2D2D2D" fill="#FFEBA2"/>
  <rect id="4a1939fdfea34e8db3e24a4caa5a959d-oa-10" height="30.35714" width="173.21428" y="440.71425" x="1138.92854" stroke="#2D2D2D" fill="#FFEBA2"/>
  <rect id="4a1939fdfea34e8db3e24a4caa5a959d-oa-11" height="30.35714" width="169.64286" y="437.14283" x="1526.42853" stroke="#2D2D2D" fill="#FFEBA2"/>
  <rect id="4a1939fdfea34e8db3e24a4caa5a959d-oa-12" height="48.21429" width="262.5" y="581.78568" x="1094.28568" stroke="#2D2D2D" fill="#FFEBA2"/>
  <rect id="4a1939fdfea34e8db3e24a4caa5a959d-oa-13" height="48.21429" width="278.57143" y="710.35711" x="1096.07139" stroke="#2D2D2D" fill="#FFEBA2"/>
  <rect id="4a1939fdfea34e8db3e24a4caa5a959d-oa-14" height="33.92857" width="142.85714" y="549.64282" x="1456.78568" stroke="#2D2D2D" fill="#FFEBA2"/>
  <rect id="4a1939fdfea34e8db3e24a4caa5a959d-oa-15" height="21.42857" width="208.92857" y="606.78568" x="1453.21425" stroke="#2D2D2D" fill="#FFEBA2"/>
 </g>
</svg>