<svg xmlns="http://www.w3.org/2000/svg" width="841" height="579">
 <!-- Created with Image Occlusion Enhanced -->
 <g>
  <title>Labels</title>
 </g>
 <g>
  <title>Masks</title>
  <g id="4ff3615cd966422b92c43938728c0cb8-ao-1">
   <rect height="19.60784" width="156.86274" y="43.15684" x="194.09803" stroke="#2D2D2D" fill="#FFEBA2"/>
   <rect height="16.66667" width="185.29412" y="49.03919" x="457.82352" stroke="#2D2D2D" fill="#FFEBA2"/>
   <rect height="20.58824" width="76.47059" y="62.76468" x="208.80391" stroke="#2D2D2D" fill="#FFEBA2"/>
   <rect height="18.62745" width="54.90196" y="65.70586" x="319.58823" stroke="#2D2D2D" fill="#FFEBA2"/>
  </g>
  <g id="4ff3615cd966422b92c43938728c0cb8-ao-2">
   <rect height="23.52941" width="103.92157" y="107.86272" x="244.09803" stroke="#2D2D2D" fill="#FFEBA2"/>
   <rect height="16.66667" width="77.45098" y="112.76468" x="379.39215" stroke="#2D2D2D" fill="#FFEBA2"/>
  </g>
  <g id="4ff3615cd966422b92c43938728c0cb8-ao-3">
   <rect height="22.54902" width="159.80392" y="153.94115" x="122.5294" stroke="#2D2D2D" fill="#FFEBA2"/>
   <rect height="25.4902" width="150" y="151.98037" x="561.74509" stroke="#2D2D2D" fill="#FFEBA2"/>
   <rect height="15.68627" width="160.78431" y="181.39213" x="119.58823" stroke="#2D2D2D" fill="#FFEBA2"/>
  </g>
  <g id="4ff3615cd966422b92c43938728c0cb8-ao-4">
   <rect height="22.54902" width="103.92157" y="221.58821" x="246.05881" stroke="#2D2D2D" fill="#FFEBA2"/>
   <rect height="19.60784" width="108.82353" y="222.5686" x="382.33332" stroke="#2D2D2D" fill="#FFEBA2"/>
   <rect height="21.56863" width="151.96078" y="221.58821" x="610.76469" stroke="#2D2D2D" fill="#FFEBA2"/>
  </g>
  <g id="4ff3615cd966422b92c43938728c0cb8-ao-5">
   <rect height="18.62745" width="104.90196" y="310.8039" x="242.13725" stroke="#2D2D2D" fill="#FFEBA2"/>
   <rect height="17.64706" width="95.09804" y="312.76468" x="379.39215" stroke="#2D2D2D" fill="#FFEBA2"/>
   <rect height="18.62745" width="402.94117" y="336.29409" x="249.98038" stroke="#2D2D2D" fill="#FFEBA2"/>
   <g>
    <rect height="14.70588" width="85.29412" y="268.64703" x="206.84313" stroke="#2D2D2D" fill="#FFEBA2"/>
    <rect height="23.52941" width="234.31372" y="265.70586" x="318.60783" stroke="#2D2D2D" fill="#FFEBA2"/>
    <rect height="15.68627" width="61.76471" y="269.62743" x="570.56862" stroke="#2D2D2D" fill="#FFEBA2"/>
   </g>
  </g>
  <g id="4ff3615cd966422b92c43938728c0cb8-ao-6">
   <rect height="20.58824" width="156.86274" y="448.0588" x="116.64705" stroke="#2D2D2D" fill="#FFEBA2"/>
   <g>
    <rect height="20.58824" width="441.17647" y="378.45095" x="191.15685" stroke="#2D2D2D" fill="#FFEBA2"/>
    <rect height="21.56863" width="102.94118" y="398.0588" x="436.25489" stroke="#2D2D2D" fill="#FFEBA2"/>
    <rect height="19.60784" width="151.96078" y="422.5686" x="651.94116" stroke="#2D2D2D" fill="#FFEBA2"/>
   </g>
  </g>
  <g id="4ff3615cd966422b92c43938728c0cb8-ao-7" class="qshape">
   <rect height="23.52941" width="164.70588" y="489.23527" x="374.49019" stroke="#2D2D2D" fill="#FF7E7E" class="qshape"/>
   <rect height="19.60784" width="173.52941" y="489.23527" x="632.33332" stroke="#2D2D2D" fill="#FF7E7E" class="qshape"/>
   <rect height="19.60784" width="105.88235" y="536.29409" x="218.60783" stroke="#2D2D2D" fill="#FF7E7E" class="qshape"/>
   <rect height="16.66667" width="54.90196" y="538.25487" x="405.86273" stroke="#2D2D2D" fill="#FF7E7E" class="qshape"/>
   <rect height="16.66667" width="60.78431" y="537.27448" x="470.56862" stroke="#2D2D2D" fill="#FF7E7E" class="qshape"/>
   <rect height="15.68627" width="112.7451" y="559.8235" x="300.96077" stroke="#2D2D2D" fill="#FF7E7E" class="qshape"/>
   <rect height="19.60784" width="115.68627" y="555.90193" x="554.88234" stroke="#2D2D2D" fill="#FF7E7E" class="qshape"/>
  </g>
 </g>
</svg>