<svg xmlns="http://www.w3.org/2000/svg" width="841" height="584">
 <!-- Created with Image Occlusion Enhanced -->
 <g>
  <title>Labels</title>
 </g>
 <g>
  <title>Masks</title>
  <g id="5437c2ba626d4ec5ab84776e0cc5a653-ao-1">
   <rect height="24.75248" width="21.78218" y="85.10886" x="268.90103" stroke="#2D2D2D" fill="#FFEBA2"/>
   <rect height="24.75248" width="144.55446" y="88.07916" x="457.01984" stroke="#2D2D2D" fill="#FFEBA2"/>
   <rect height="16.83168" width="106.9307" y="92.03956" x="696.62381" stroke="#2D2D2D" fill="#FFEBA2"/>
   <rect height="21.78218" width="19.80198" y="108.87124" x="215.43568" stroke="#2D2D2D" fill="#FFEBA2"/>
   <rect height="19.80198" width="23.76238" y="111.84154" x="253.05944" stroke="#2D2D2D" fill="#FFEBA2"/>
   <rect height="22.77228" width="177.22773" y="131.64352" x="344.14855" stroke="#2D2D2D" fill="#FFEBA2"/>
   <rect height="21.78218" width="134.65347" y="131.64352" x="663.95054" stroke="#2D2D2D" fill="#FFEBA2"/>
   <rect height="17.82178" width="190.09902" y="155.4059" x="335.23766" stroke="#2D2D2D" fill="#FFEBA2"/>
  </g>
  <g id="5437c2ba626d4ec5ab84776e0cc5a653-ao-2" class="qshape">
   <rect height="15.84158" width="346.53466" y="200.95045" x="246.12875" stroke="#2D2D2D" fill="#FF7E7E" class="qshape"/>
   <rect height="18.81188" width="251.48516" y="221.74253" x="288.70301" stroke="#2D2D2D" fill="#FF7E7E" class="qshape"/>
   <rect height="39.60396" width="616.8317" y="271.24748" x="209.49508" stroke="#2D2D2D" fill="#FF7E7E" class="qshape"/>
  </g>
  <g id="5437c2ba626d4ec5ab84776e0cc5a653-ao-3">
   <rect height="15.84158" width="57.42574" y="335.60392" x="306.52479" stroke="#2D2D2D" fill="#FFEBA2"/>
   <rect height="20.79208" width="114.85149" y="333.62372" x="636.22777" stroke="#2D2D2D" fill="#FFEBA2"/>
   <rect height="15.84158" width="165.34654" y="363.3267" x="448.10895" stroke="#2D2D2D" fill="#FFEBA2"/>
   <rect stroke="#2D2D2D" height="15.84159" width="102.9703" y="361.3465" x="637.21787" fill="#FFEBA2"/>
   <rect height="15.84158" width="103.9604" y="381.14848" x="209.49508" stroke="#2D2D2D" fill="#FFEBA2"/>
   <rect height="16.83168" width="171.28713" y="406.89105" x="212.46538" stroke="#2D2D2D" fill="#FFEBA2"/>
  </g>
  <g id="5437c2ba626d4ec5ab84776e0cc5a653-ao-4">
   <rect height="20.79208" width="435.64358" y="470.25739" x="309.49509" stroke-linecap="null" stroke-linejoin="null" stroke-dasharray="null" stroke="#2D2D2D" fill="#FFEBA2"/>
   <rect height="60.39604" width="497.02972" y="516.79205" x="342.16835" stroke-linecap="null" stroke-linejoin="null" stroke-dasharray="null" stroke="#2D2D2D" fill="#FFEBA2"/>
  </g>
 </g>
</svg>