<svg xmlns="http://www.w3.org/2000/svg" width="1252" height="878">
 <!-- Created with Image Occlusion Enhanced -->
 <g>
  <title>Labels</title>
 </g>
 <g>
  <title>Masks</title>
  <rect id="67c04389e03d44a796a67989a6c93661-oa-1" height="113.33333" width="233.33333" y="258" x="448" stroke="#2D2D2D" fill="#FFEBA2"/>
  <rect id="67c04389e03d44a796a67989a6c93661-oa-2" height="42.66667" width="240" y="259.33333" x="825.33333" stroke="#2D2D2D" fill="#FFEBA2"/>
  <rect id="67c04389e03d44a796a67989a6c93661-oa-3" height="45.33333" width="156" y="394" x="448" stroke="#2D2D2D" fill="#FFEBA2"/>
  <rect id="67c04389e03d44a796a67989a6c93661-oa-4" height="76" width="264" y="392.66667" x="825.33333" stroke="#2D2D2D" fill="#FFEBA2"/>
  <rect id="67c04389e03d44a796a67989a6c93661-oa-5" height="41.33333" width="126.66667" y="484.66667" x="449.33333" stroke="#2D2D2D" fill="#FFEBA2"/>
  <rect id="67c04389e03d44a796a67989a6c93661-oa-6" height="34.66667" width="92" y="484.66667" x="828" stroke="#2D2D2D" fill="#FFEBA2"/>
  <rect id="67c04389e03d44a796a67989a6c93661-oa-7" height="50.66667" width="352" y="572.66667" x="444" stroke="#2D2D2D" fill="#FFEBA2"/>
  <rect id="67c04389e03d44a796a67989a6c93661-oa-8" height="44" width="297.33333" y="579.33333" x="828" stroke="#2D2D2D" fill="#FFEBA2"/>
  <g id="67c04389e03d44a796a67989a6c93661-oa-9">
   <rect height="41.33333" width="129.33333" y="668.66667" x="829.33333" stroke="#2D2D2D" fill="#FFEBA2"/>
   <rect height="32" width="310.66667" y="722" x="829.33333" stroke="#2D2D2D" fill="#FFEBA2"/>
   <rect height="33.33333" width="101.33333" y="767.33333" x="828" stroke="#2D2D2D" fill="#FFEBA2"/>
   <rect height="32" width="118.66667" y="818" x="826.66667" stroke="#2D2D2D" fill="#FFEBA2"/>
  </g>
  <g id="67c04389e03d44a796a67989a6c93661-oa-10">
   <rect height="74.66667" width="342.66667" y="668.66667" x="448" stroke="#2D2D2D" fill="#FFEBA2"/>
   <rect height="38.66667" width="245.33333" y="758" x="448" stroke="#2D2D2D" fill="#FFEBA2"/>
   <rect height="33.33333" width="301.33333" y="812.66667" x="449.33333" stroke="#2D2D2D" fill="#FFEBA2"/>
  </g>
 </g>
</svg>