<svg xmlns="http://www.w3.org/2000/svg" width="843" height="648">
 <!-- Created with Image Occlusion Enhanced -->
 <g>
  <title>Labels</title>
 </g>
 <g>
  <title>Masks</title>
  <rect id="6961c6c369134549affbb6943d977bd5-ao-1" height="106.59341" width="261.53846" y="541.011" x="160.07691" stroke="#2D2D2D" fill="#FFEBA2"/>
  <g id="6961c6c369134549affbb6943d977bd5-ao-2">
   <rect height="19.78022" width="98.9011" y="66.28572" x="191.94504" stroke="#2D2D2D" fill="#FFEBA2"/>
   <rect height="19.78022" width="159.34066" y="66.28572" x="488.64834" stroke="#2D2D2D" fill="#FFEBA2"/>
   <rect height="17.58242" width="81.31868" y="68.48353" x="658.97802" stroke="#2D2D2D" fill="#FFEBA2"/>
   <rect height="20.87912" width="51.64835" y="65.18682" x="749.08791" stroke="#2D2D2D" fill="#FFEBA2"/>
  </g>
  <g id="6961c6c369134549affbb6943d977bd5-ao-3">
   <rect height="14.28571" width="142.85714" y="136.61539" x="202.93406" stroke="#2D2D2D" fill="#FFEBA2"/>
   <rect height="17.58242" width="64.83517" y="136.61539" x="478.75823" stroke="#2D2D2D" fill="#FFEBA2"/>
   <rect height="19.78022" width="45.05495" y="155.29671" x="319.41757" stroke="#2D2D2D" fill="#FFEBA2"/>
   <rect height="13.18681" width="132.96703" y="182.76924" x="342.4945" stroke="#2D2D2D" fill="#FFEBA2"/>
  </g>
  <g id="6961c6c369134549affbb6943d977bd5-ao-4">
   <rect height="20.87912" width="75.82418" y="222.32968" x="201.83515" stroke="#2D2D2D" fill="#FFEBA2"/>
   <rect height="17.58242" width="80.21978" y="223.42858" x="302.93406" stroke="#2D2D2D" fill="#FFEBA2"/>
   <rect height="19.78022" width="47.25275" y="246.50551" x="182.05493" stroke="#2D2D2D" fill="#FFEBA2"/>
   <rect height="23.07692" width="63.73626" y="245.4066" x="277.65933" stroke="#2D2D2D" fill="#FFEBA2"/>
  </g>
  <g id="6961c6c369134549affbb6943d977bd5-ao-5">
   <rect height="16.48352" width="298.9011" y="291.56045" x="196.34065" stroke="#2D2D2D" fill="#FFEBA2"/>
   <rect height="17.58242" width="119.78022" y="314.63737" x="196.34065" stroke="#2D2D2D" fill="#FFEBA2"/>
   <rect height="16.48352" width="58.24176" y="315.73628" x="327.10988" stroke="#2D2D2D" fill="#FFEBA2"/>
   <rect height="15.38462" width="168.13187" y="316.83518" x="394.14285" stroke="#2D2D2D" fill="#FFEBA2"/>
   <rect height="20.87912" width="89.01099" y="312.43957" x="699.63736" stroke="#2D2D2D" fill="#FFEBA2"/>
  </g>
  
 </g>
</svg>