<svg xmlns="http://www.w3.org/2000/svg" width="845" height="648">
 <!-- Created with Image Occlusion Enhanced -->
 <g>
  <title>Labels</title>
 </g>
 <g>
  <title>Masks</title>
  <rect id="77f50746dde045fba0fda45a278fadfe-ao-1" height="15.38462" width="195.6044" y="180.57144" x="311.26371" stroke="#2D2D2D" fill="#FFEBA2"/>
  <rect id="77f50746dde045fba0fda45a278fadfe-ao-2" height="16.48352" width="202.1978" y="201.45056" x="294.7802" stroke="#2D2D2D" fill="#FFEBA2"/>
  <rect id="77f50746dde045fba0fda45a278fadfe-ao-3" height="17.58242" width="253.84616" y="221.23078" x="307.96701" stroke="#2D2D2D" fill="#FFEBA2"/>
  <g id="77f50746dde045fba0fda45a278fadfe-ao-4">
   <rect height="20.87912" width="40.65934" y="130.02199" x="202.4725" stroke="#2D2D2D" fill="#FFEBA2"/>
   <rect height="23.07692" width="121.97802" y="132.21979" x="410.16481" stroke="#2D2D2D" fill="#FFEBA2"/>
   <rect height="16.48352" width="204.39561" y="134.41759" x="611.26372" stroke="#2D2D2D" fill="#FFEBA2"/>
   <rect height="18.68132" width="109.89011" y="156.39561" x="169.50547" stroke="#2D2D2D" fill="#FFEBA2"/>
  </g>
  <g id="77f50746dde045fba0fda45a278fadfe-ao-5">
   <rect height="24.17582" width="346.15385" y="266.28573" x="122.25272" stroke="#2D2D2D" fill="#FFEBA2"/>
   <rect height="26.37363" width="35.16484" y="261.89012" x="533.24174" stroke="#2D2D2D" fill="#FFEBA2"/>
   <rect height="21.97802" width="229.67033" y="308.04397" x="117.85712" stroke="#2D2D2D" fill="#FFEBA2"/>
   <rect height="20.87912" width="195.6044" y="311.34067" x="517.85712" stroke="#2D2D2D" fill="#FFEBA2"/>
   <rect height="24.17582" width="64.83517" y="311.34067" x="432.14284" stroke="#2D2D2D" fill="#FFEBA2"/>
  </g>
  <g id="77f50746dde045fba0fda45a278fadfe-ao-6">
   <rect height="21.97802" width="138.46154" y="354.19781" x="214.56042" stroke="#2D2D2D" fill="#FFEBA2"/>
   <rect height="21.97802" width="61.53846" y="354.19781" x="421.15383" stroke="#2D2D2D" fill="#FFEBA2"/>
   <rect height="17.58242" width="280.21978" y="380.57144" x="232.14283" stroke="#2D2D2D" fill="#FFEBA2"/>
   <rect height="14.28571" width="151.64835" y="405.84617" x="225.54943" stroke="#2D2D2D" fill="#FFEBA2"/>
  </g>
  
  <g id="77f50746dde045fba0fda45a278fadfe-ao-8">
   <rect height="14.28571" width="265.93407" y="515.73628" x="120.05492" stroke="#2D2D2D" fill="#FFEBA2"/>
   <rect height="24.17582" width="31.86813" y="509.14287" x="521.15383" stroke="#2D2D2D" fill="#FFEBA2"/>
   <rect stroke="#2D2D2D" height="23.07692" width="104.39544" y="509.14287" x="635.43957" fill="#FFEBA2"/>
   <rect height="20.87912" width="175.82418" y="533.3187" x="207.96701" stroke-linecap="null" stroke-linejoin="null" stroke-dasharray="null" stroke="#2D2D2D" fill="#FFEBA2"/>
  </g>
  <g id="77f50746dde045fba0fda45a278fadfe-ao-9">
   <rect height="15.38462" width="320.87912" y="602.54947" x="121.15382" stroke-linecap="null" stroke-linejoin="null" stroke-dasharray="null" stroke="#2D2D2D" fill="#FFEBA2"/>
   <rect height="15.38462" width="147.25275" y="625.62639" x="174.99998" stroke-linecap="null" stroke-linejoin="null" stroke-dasharray="null" stroke="#2D2D2D" fill="#FFEBA2"/>
   <rect height="16.48352" width="320.87912" y="626.72529" x="349.72525" stroke-linecap="null" stroke-linejoin="null" stroke-dasharray="null" stroke="#2D2D2D" fill="#FFEBA2"/>
  </g>
 </g>
</svg>