<svg xmlns="http://www.w3.org/2000/svg" width="1158" height="658">
 <!-- Created with Image Occlusion Enhanced -->
 <g>
  <title>Labels</title>
 </g>
 <g>
  <title>Masks</title>
  <g id="83a2e9f5d97f42679b9238bbb6053cb6-oa-1">
   <rect height="24" width="136" y="74" x="22" stroke="#2D2D2D" fill="#FFEBA2"/>
   <rect height="26" width="202" y="214" x="192" stroke="#2D2D2D" fill="#FFEBA2"/>
   <rect transform="rotate(-51.21563720703125 1064,189.00000000000014) " stroke="#2D2D2D" height="22" width="212.00001" y="178" x="957.99999" fill="#FFEBA2"/>
  </g>
  <g id="83a2e9f5d97f42679b9238bbb6053cb6-oa-2">
   <rect height="26" width="118" y="74" x="178" stroke-linecap="null" stroke-linejoin="null" stroke-dasharray="null" stroke="#2D2D2D" fill="#FFEBA2"/>
   <rect height="22" width="110" y="298" x="18" stroke-linecap="null" stroke-linejoin="null" stroke-dasharray="null" stroke="#2D2D2D" fill="#FFEBA2"/>
   <rect transform="rotate(-49.08561706542969 968.9999999999999,182.9999999999999) " height="22" width="118" y="172" x="910" stroke-linecap="null" stroke-linejoin="null" stroke-dasharray="null" stroke="#2D2D2D" fill="#FFEBA2"/>
  </g>
  <g id="83a2e9f5d97f42679b9238bbb6053cb6-oa-3">
   <rect height="20" width="182" y="142" x="378" stroke-linecap="null" stroke-linejoin="null" stroke-dasharray="null" stroke="#2D2D2D" fill="#FFEBA2"/>
   <rect height="26" width="184" y="364" x="406" stroke-linecap="null" stroke-linejoin="null" stroke-dasharray="null" stroke="#2D2D2D" fill="#FFEBA2"/>
   <rect stroke="#2D2D2D" transform="rotate(43.344512939453125 865,192.00000000000003) " height="178.91763" width="19.40777" y="102.54119" x="855.29612" stroke-linecap="null" stroke-linejoin="null" stroke-dasharray="null" fill="#FFEBA2"/>
  </g>
  <g id="83a2e9f5d97f42679b9238bbb6053cb6-oa-4">
   <rect height="22" width="158" y="114" x="468" stroke-linecap="null" stroke-linejoin="null" stroke-dasharray="null" stroke="#2D2D2D" fill="#FFEBA2"/>
   <rect height="20" width="168" y="546" x="6" stroke-linecap="null" stroke-linejoin="null" stroke-dasharray="null" stroke="#2D2D2D" fill="#FFEBA2"/>
   <rect transform="rotate(43.04431915283203 796.9999999999998,186.00000000000006) " height="156" width="30" y="108" x="782" stroke-linecap="null" stroke-linejoin="null" stroke-dasharray="null" stroke="#2D2D2D" fill="#FFEBA2"/>
  </g>
  <g id="83a2e9f5d97f42679b9238bbb6053cb6-oa-5">
   <rect height="18" width="84" y="116" x="370" stroke-linecap="null" stroke-linejoin="null" stroke-dasharray="null" stroke="#2D2D2D" fill="#FFEBA2"/>
   <rect height="26" width="80" y="594" x="348" stroke-linecap="null" stroke-linejoin="null" stroke-dasharray="null" stroke="#2D2D2D" fill="#FFEBA2"/>
   <rect transform="rotate(-47.62640380859375 650.9999999999999,213.99999999999994) " height="32" width="94" y="198" x="604" stroke-linecap="null" stroke-linejoin="null" stroke-dasharray="null" stroke="#2D2D2D" fill="#FFEBA2"/>
  </g>
 </g>
</svg>