<svg xmlns="http://www.w3.org/2000/svg" width="1408.0000000000002" height="792.9999999999999">
 <!-- Created with Image Occlusion Enhanced -->
 <g>
  <title>Labels</title>
 </g>
 <g>
  <title>Masks</title>
  <g id="903aaeed2e5f49fd92676843625e3e7a-ao-1">
   <rect height="39.18919" width="148.64865" y="252.13512" x="408.21613" stroke="#2D2D2D" fill="#FFEBA2"/>
   <rect height="40.54054" width="214.86486" y="249.43242" x="624.43234" stroke="#2D2D2D" fill="#FFEBA2"/>
   <rect height="31.08108" width="213.51351" y="289.97296" x="332.54046" stroke="#2D2D2D" fill="#FFEBA2"/>
   <rect height="25.67568" width="108.10811" y="329.16215" x="435.24316" stroke="#2D2D2D" fill="#FFEBA2"/>
   <rect height="24.32432" width="520.27026" y="365.64863" x="359.56748" stroke="#2D2D2D" fill="#FFEBA2"/>
   <rect height="37.83784" width="321.62162" y="392.67566" x="514.97289" stroke="#2D2D2D" fill="#FFEBA2"/>
   <rect height="17.56757" width="266.21621" y="437.27025" x="129.83776" stroke="#2D2D2D" fill="#FFEBA2"/>
   <rect height="20.27027" width="251.35135" y="433.2162" x="406.86478" stroke="#2D2D2D" fill="#FFEBA2"/>
  </g>
  <g id="903aaeed2e5f49fd92676843625e3e7a-ao-2" class="qshape">
   <rect height="29.72973" width="210.81081" y="523.75674" x="401.45937" stroke="#2D2D2D" fill="#FF7E7E" class="qshape"/>
   <rect height="22.97297" width="141.89189" y="561.59458" x="140.64857" stroke="#2D2D2D" fill="#FF7E7E" class="qshape"/>
   <rect height="27.02703" width="139.18919" y="561.59458" x="454.16208" stroke="#2D2D2D" fill="#FF7E7E" class="qshape"/>
   <rect height="25.67568" width="329.72973" y="595.37836" x="136.59451" stroke="#2D2D2D" fill="#FF7E7E" class="qshape"/>
   <rect height="21.62162" width="151.35135" y="599.43242" x="785.24315" stroke="#2D2D2D" fill="#FF7E7E" class="qshape"/>
   <rect height="28.37838" width="209.45946" y="630.5135" x="137.94586" stroke="#2D2D2D" fill="#FF7E7E" class="qshape"/>
   <rect height="21.62162" width="402.7027" y="664.29728" x="133.89181" stroke="#2D2D2D" fill="#FF7E7E" class="qshape"/>
  </g>
 </g>
</svg>