<svg xmlns="http://www.w3.org/2000/svg" width="1393" height="774">
 <!-- Created with Image Occlusion Enhanced -->
 <g>
  <title>Labels</title>
 </g>
 <g>
  <title>Masks</title>
  <g id="90ba10d052e44e179b56c91a7e99a385-ao-1">
   <rect stroke="#2D2D2D" height="64.47369" width="132.89474" y="441.52634" x="286.99989" fill="#FFEBA2"/>
   <rect height="32.89474" width="210.52632" y="716.52634" x="190.94725" stroke-linecap="null" stroke-linejoin="null" stroke-dasharray="null" stroke="#2D2D2D" fill="#FFEBA2"/>
   <rect height="27.63158" width="135.52632" y="649.42108" x="336.99989" stroke-linecap="null" stroke-linejoin="null" stroke-dasharray="null" stroke="#2D2D2D" fill="#FFEBA2"/>
  </g>
  <g id="90ba10d052e44e179b56c91a7e99a385-ao-2">
   <rect height="32.89474" width="155.26316" y="720.47371" x="886.9999" stroke="#2D2D2D" fill="#FFEBA2"/>
   <rect height="27.63158" width="150" y="723.10529" x="1225.1578" stroke="#2D2D2D" fill="#FFEBA2"/>
  </g>
  <g id="90ba10d052e44e179b56c91a7e99a385-ao-3">
   <rect height="39.47368" width="156.57895" y="174.42107" x="775.15779" stroke="#2D2D2D" fill="#FFEBA2"/>
   <rect height="32.89474" width="134.21053" y="257.31581" x="661.99989" stroke="#2D2D2D" fill="#FFEBA2"/>
   <rect height="31.57895" width="118.42105" y="256.00002" x="961.9999" stroke="#2D2D2D" fill="#FFEBA2"/>
   <rect height="32.89474" width="92.10526" y="292.84212" x="464.63147" stroke="#2D2D2D" fill="#FFEBA2"/>
   <rect height="34.21053" width="178.94737" y="334.94739" x="927.78937" stroke="#2D2D2D" fill="#FFEBA2"/>
   <rect height="36.84211" width="193.42106" y="332.31581" x="1163.31569" stroke="#2D2D2D" fill="#FFEBA2"/>
  </g>
  <g id="90ba10d052e44e179b56c91a7e99a385-ao-4" class="qshape">
   <rect height="32.89474" width="148.68421" y="413.89476" x="461.99989" stroke="#2D2D2D" fill="#FF7E7E" class="qshape"/>
   <rect height="32.89474" width="61.84211" y="415.21055" x="985.68411" stroke="#2D2D2D" fill="#FF7E7E" class="qshape"/>
   <rect height="23.68421" width="268.42106" y="456.00002" x="656.73674" stroke="#2D2D2D" fill="#FF7E7E" class="qshape"/>
   <rect height="34.21053" width="144.73684" y="450.73686" x="1101.47358" stroke="#2D2D2D" fill="#FF7E7E" class="qshape"/>
   <rect height="34.21053" width="178.94737" y="490.21055" x="460.6841" stroke="#2D2D2D" fill="#FF7E7E" class="qshape"/>
  </g>
  <g id="90ba10d052e44e179b56c91a7e99a385-ao-5">
   <rect height="36.84211" width="152.63158" y="563.89476" x="871.21042" stroke="#2D2D2D" fill="#FFEBA2"/>
   <rect height="31.57895" width="290.78948" y="569.15792" x="1038.31569" stroke="#2D2D2D" fill="#FFEBA2"/>
   <rect height="32.89474" width="194.73685" y="607.31581" x="464.63147" stroke="#2D2D2D" fill="#FFEBA2"/>
   <rect height="34.21053" width="114.47369" y="607.31581" x="875.15779" stroke="#2D2D2D" fill="#FFEBA2"/>
   <rect height="27.63158" width="255.26316" y="609.94739" x="1011.9999" stroke="#2D2D2D" fill="#FFEBA2"/>
   <rect height="27.63158" width="275" y="648.10529" x="539.63147" stroke="#2D2D2D" fill="#FFEBA2"/>
  </g>
 </g>
</svg>