<svg xmlns="http://www.w3.org/2000/svg" width="787.9999999999999" height="339">
 <!-- Created with Image Occlusion Enhanced -->
 <g>
  <title>Labels</title>
 </g>
 <g>
  <title>Masks</title>
  <rect id="99c4157bbaf14951ae6742e3bf647b97-ao-1" height="18.96552" width="541.95404" y="135.8276" x="215.21839" stroke="#2D2D2D" fill="#FFEBA2"/>
  <g id="99c4157bbaf14951ae6742e3bf647b97-ao-2">
   <rect height="19.54023" width="521.83909" y="87.55173" x="196.25287" stroke="#2D2D2D" fill="#FFEBA2"/>
   <rect height="21.26437" width="54.02299" y="112.83909" x="230.16092" stroke="#2D2D2D" fill="#FFEBA2"/>
   <rect height="16.09195" width="253.44828" y="115.71265" x="511.19541" stroke="#2D2D2D" fill="#FFEBA2"/>
  </g>
  <g id="99c4157bbaf14951ae6742e3bf647b97-ao-3">
   <rect height="17.24138" width="337.93104" y="158.24139" x="196.25287" stroke="#2D2D2D" fill="#FFEBA2"/>
   <rect height="13.21839" width="114.94253" y="159.39082" x="646.8276" stroke="#2D2D2D" fill="#FFEBA2"/>
   <rect height="18.39081" width="135.63219" y="180.65519" x="226.13793" stroke="#2D2D2D" fill="#FFEBA2"/>
   <rect height="16.66667" width="163.21839" y="181.2299" x="492.8046" stroke="#2D2D2D" fill="#FFEBA2"/>
  </g>
  <g id="99c4157bbaf14951ae6742e3bf647b97-ao-4" class="qshape">
   <rect height="17.24138" width="65.51724" y="204.79312" x="245.10345" stroke="#2D2D2D" fill="#FF7E7E" class="qshape"/>
   <rect height="15.51724" width="173.56322" y="204.2184" x="505.44828" stroke="#2D2D2D" fill="#FF7E7E" class="qshape"/>
   <rect height="16.66667" width="192.52874" y="227.20691" x="216.36782" stroke="#2D2D2D" fill="#FF7E7E" class="qshape"/>
   <rect height="15.51724" width="164.36782" y="226.6322" x="461.77012" stroke="#2D2D2D" fill="#FF7E7E" class="qshape"/>
  </g>
  <g id="99c4157bbaf14951ae6742e3bf647b97-ao-5">
   <rect height="18.39081" width="73.56322" y="269.73565" x="276.13793" stroke="#2D2D2D" fill="#FFEBA2"/>
   <rect height="14.94253" width="211.49426" y="272.0345" x="384.75862" stroke="#2D2D2D" fill="#FFEBA2"/>
   <rect height="13.7931" width="322.98851" y="294.44829" x="419.24138" stroke="#2D2D2D" fill="#FFEBA2"/>
   <rect height="14.94253" width="439.65518" y="315.71266" x="211.1954" stroke="#2D2D2D" fill="#FFEBA2"/>
  </g>
 </g>
</svg>