<svg xmlns="http://www.w3.org/2000/svg" width="807" height="427">
 <!-- Created with Image Occlusion Enhanced -->
 <g>
  <title>Labels</title>
 </g>
 <g>
  <title>Masks</title>
  <rect id="9da144b0614546c6b56d2a77c2e821f9-ao-1" height="18.11594" width="594.92753" y="69.23188" x="211.40576" stroke="#2D2D2D" fill="#FFEBA2"/>
  <rect id="9da144b0614546c6b56d2a77c2e821f9-ao-2" height="16.66667" width="171.73913" y="160.53622" x="254.15939" stroke="#2D2D2D" fill="#FFEBA2"/>
  <rect id="9da144b0614546c6b56d2a77c2e821f9-ao-3" height="18.11594" width="590.5797" y="204.73912" x="205.60866" stroke="#2D2D2D" fill="#FFEBA2"/>
  <rect id="9da144b0614546c6b56d2a77c2e821f9-ao-4" height="87.68116" width="310.86956" y="312.71013" x="162.1304" stroke="#2D2D2D" fill="#FFEBA2"/>
  <g id="9da144b0614546c6b56d2a77c2e821f9-ao-5">
   <rect height="19.56522" width="75.36232" y="92.42028" x="120.82605" stroke="#2D2D2D" fill="#FFEBA2"/>
   <rect height="14.49275" width="44.2029" y="95.31883" x="375.17388" stroke="#2D2D2D" fill="#FFEBA2"/>
   <rect height="15.94203" width="86.95652" y="118.50724" x="349.81156" stroke="#2D2D2D" fill="#FFEBA2"/>
   <rect height="17.3913" width="91.30435" y="115.60869" x="445.46373" stroke="#2D2D2D" fill="#FFEBA2"/>
   <rect height="19.56522" width="131.15942" y="114.88405" x="546.913" stroke="#2D2D2D" fill="#FFEBA2"/>
   <rect height="17.3913" width="117.3913" y="116.33332" x="687.49271" stroke="#2D2D2D" fill="#FFEBA2"/>
  </g>
  <g id="9da144b0614546c6b56d2a77c2e821f9-ao-6">
   <rect height="15.21739" width="205.7971" y="229.3768" x="238.21736" stroke="#2D2D2D" fill="#FFEBA2"/>
   <rect height="15.21739" width="194.92753" y="248.94202" x="232.42026" stroke="#2D2D2D" fill="#FFEBA2"/>
   <rect height="13.04348" width="207.24637" y="273.5797" x="227.34779" stroke="#2D2D2D" fill="#FFEBA2"/>
  </g>
  <g id="9da144b0614546c6b56d2a77c2e821f9-ao-7">
   <rect height="15.94203" width="54.34783" y="407.63767" x="280.97098" stroke="#2D2D2D" fill="#FFEBA2"/>
   <rect height="16.66667" width="81.88406" y="408.3623" x="357.78257" stroke="#2D2D2D" fill="#FFEBA2"/>
  </g>
 </g>
</svg>