<svg xmlns="http://www.w3.org/2000/svg" width="1008" height="758">
 <!-- Created with Image Occlusion Enhanced -->
 <g>
  <title>Labels</title>
 </g>
 <g>
  <title>Masks</title>
  <rect id="a7c09c8b3df14436b2e6968e29f106b3-ao-1" height="20.51282" width="165.38462" y="223.53848" x="196.87181" stroke="#2D2D2D" fill="#FFEBA2"/>
  <rect id="a7c09c8b3df14436b2e6968e29f106b3-ao-2" height="39.74359" width="230.76923" y="310.71797" x="258.41027" stroke="#2D2D2D" fill="#FFEBA2"/>
  <rect id="a7c09c8b3df14436b2e6968e29f106b3-ao-3" height="52.5641" width="139.74359" y="301.74361" x="616.10258" stroke="#2D2D2D" fill="#FFEBA2"/>
  <rect id="a7c09c8b3df14436b2e6968e29f106b3-ao-4" height="142.30769" width="211.53847" y="105.58976" x="614.82053" stroke="#2D2D2D" fill="#FFEBA2"/>
  <rect id="a7c09c8b3df14436b2e6968e29f106b3-ao-5" height="25.64103" width="134.61539" y="676.10259" x="253.28207" stroke="#2D2D2D" fill="#FFEBA2"/>
  <g id="a7c09c8b3df14436b2e6968e29f106b3-ao-6">
   <rect height="21.79487" width="202.56411" y="54.30771" x="132.76924" stroke="#2D2D2D" fill="#FFEBA2"/>
   <rect height="35.89744" width="176.92308" y="136.35899" x="266.10258" stroke="#2D2D2D" fill="#FFEBA2"/>
   <rect height="15.38462" width="232.05129" y="182.51284" x="269.94873" stroke="#2D2D2D" fill="#FFEBA2"/>
  </g>
  <g id="a7c09c8b3df14436b2e6968e29f106b3-ao-7">
   <rect height="21.79487" width="148.71795" y="463.28207" x="607.12823" stroke="#2D2D2D" fill="#FFEBA2"/>
   <rect height="29.48718" width="173.07693" y="486.35899" x="330.20514" stroke="#2D2D2D" fill="#FFEBA2"/>
   <rect height="25.64103" width="158.97436" y="520.97438" x="258.41027" stroke="#2D2D2D" fill="#FFEBA2"/>
   <rect height="28.20513" width="19.23077" y="550.46156" x="355.84617" stroke="#2D2D2D" fill="#FFEBA2"/>
   <rect height="26.92308" width="202.56411" y="550.46156" x="712.25643" stroke="#2D2D2D" fill="#FFEBA2"/>
   <rect height="25.64103" width="158.97436" y="583.79489" x="63.53847" stroke="#2D2D2D" fill="#FFEBA2"/>
   <rect height="25.64103" width="105.12821" y="582.51284" x="817.38464" stroke="#2D2D2D" fill="#FFEBA2"/>
  </g>
 </g>
</svg>