<svg xmlns="http://www.w3.org/2000/svg" width="1584" height="1224">
 <!-- Created with Image Occlusion Enhanced -->
 <g>
  <title>Labels</title>
 </g>
 <g>
  <title>Masks</title>
  <rect id="b86c59f0a36a4c63a96a2c05c301c987-oa-1" height="107.5" width="195.00001" y="223.49996" x="94.75006" stroke="#2D2D2D" fill="#FFEBA2"/>
  <rect id="b86c59f0a36a4c63a96a2c05c301c987-oa-2" height="97.5" width="285.00001" y="230.99996" x="307.25007" stroke="#2D2D2D" fill="#FFEBA2"/>
  <rect id="b86c59f0a36a4c63a96a2c05c301c987-oa-3" height="120" width="282.50001" y="355.99997" x="304.75007" stroke="#2D2D2D" fill="#FFEBA2"/>
  <rect id="b86c59f0a36a4c63a96a2c05c301c987-oa-4" height="105" width="202.50001" y="365.99997" x="92.25006" stroke="#2D2D2D" fill="#FFEBA2"/>
  <rect id="b86c59f0a36a4c63a96a2c05c301c987-oa-5" height="92.5" width="187.50001" y="510.99997" x="92.25006" stroke="#2D2D2D" fill="#FFEBA2"/>
  <rect id="b86c59f0a36a4c63a96a2c05c301c987-oa-6" height="85" width="280.00001" y="505.99997" x="304.75007" stroke="#2D2D2D" fill="#FFEBA2"/>
  <rect id="b86c59f0a36a4c63a96a2c05c301c987-oa-7" height="85" width="252.50001" y="620.99998" x="302.25007" stroke="#2D2D2D" fill="#FFEBA2"/>
  <rect id="b86c59f0a36a4c63a96a2c05c301c987-oa-8" height="90" width="182.50001" y="625.99998" x="87.25006" stroke="#2D2D2D" fill="#FFEBA2"/>
  <rect id="b86c59f0a36a4c63a96a2c05c301c987-oa-9" height="92.5" width="197.50001" y="747.24998" x="87.25006" stroke="#2D2D2D" fill="#FFEBA2"/>
  <rect id="b86c59f0a36a4c63a96a2c05c301c987-oa-10" height="87.5" width="217.50001" y="749.74998" x="309.75007" stroke="#2D2D2D" fill="#FFEBA2"/>
  <rect id="b86c59f0a36a4c63a96a2c05c301c987-oa-11" height="117.5" width="665.00003" y="219.74996" x="832.25009" stroke="#2D2D2D" fill="#FFEBA2"/>
  <rect id="b86c59f0a36a4c63a96a2c05c301c987-oa-12" height="112.5" width="595.00002" y="377.24997" x="827.25009" stroke="#2D2D2D" fill="#FFEBA2"/>
  <rect id="b86c59f0a36a4c63a96a2c05c301c987-oa-13" height="85" width="650.00003" y="509.74997" x="827.25009" stroke="#2D2D2D" fill="#FFEBA2"/>
  <rect id="b86c59f0a36a4c63a96a2c05c301c987-oa-14" height="97.5" width="657.50003" y="617.24998" x="827.25009" stroke="#2D2D2D" fill="#FFEBA2"/>
  <rect id="b86c59f0a36a4c63a96a2c05c301c987-oa-15" height="100" width="647.50002" y="752.24998" x="839.75009" stroke="#2D2D2D" fill="#FFEBA2"/>
 </g>
</svg>