<svg xmlns="http://www.w3.org/2000/svg" width="853" height="537">
 <!-- Created with Image Occlusion Enhanced -->
 <g>
  <title>Labels</title>
 </g>
 <g>
  <title>Masks</title>
  <rect id="b9637e9852e64223bdafd2985456c15a-ao-1" height="65.45455" width="339.09091" y="109.72725" x="114.81819" stroke="#2D2D2D" fill="#FFEBA2"/>
  <g id="b9637e9852e64223bdafd2985456c15a-ao-2">
   <rect height="18.18182" width="109.09091" y="21.54543" x="125.72729" stroke="#2D2D2D" fill="#FFEBA2"/>
   <rect height="17.27273" width="348.18182" y="45.1818" x="195.72729" stroke="#2D2D2D" fill="#FFEBA2"/>
   <rect height="17.27273" width="162.72727" y="67.90907" x="120.27274" stroke="#2D2D2D" fill="#FFEBA2"/>
   <rect height="17.27273" width="62.72727" y="68.81816" x="322.09092" stroke="#2D2D2D" fill="#FFEBA2"/>
  </g>
  <g id="b9637e9852e64223bdafd2985456c15a-ao-3">
   <rect height="22.72727" width="161.81818" y="221.54544" x="133.9091" stroke="#2D2D2D" fill="#FFEBA2"/>
   <rect height="12.72727" width="83.63636" y="249.72726" x="122.09092" stroke="#2D2D2D" fill="#FFEBA2"/>
   <rect height="24.54545" width="215.45455" y="265.1818" x="497.54547" stroke="#2D2D2D" fill="#FFEBA2"/>
   <rect height="15.45455" width="277.27273" y="293.36362" x="194.8182" stroke="#2D2D2D" fill="#FFEBA2"/>
   <rect height="23.63636" width="155.45455" y="310.63635" x="188.45456" stroke="#2D2D2D" fill="#FFEBA2"/>
   <rect height="18.18182" width="287.27273" y="315.1818" x="378.45456" stroke="#2D2D2D" fill="#FFEBA2"/>
   <rect height="13.63636" width="270" y="338.81817" x="209.36365" stroke="#2D2D2D" fill="#FFEBA2"/>
  </g>
  <g id="b9637e9852e64223bdafd2985456c15a-ao-4" class="qshape">
   <rect height="16.36364" width="73.63636" y="381.54544" x="198.45456" stroke="#2D2D2D" fill="#FF7E7E" class="qshape"/>
   <rect height="20" width="49.09091" y="377.90908" x="438.45456" stroke="#2D2D2D" fill="#FF7E7E" class="qshape"/>
   <rect height="19.09091" width="83.63636" y="380.63635" x="514.8182" stroke="#2D2D2D" fill="#FF7E7E" class="qshape"/>
   <rect height="17.27273" width="67.27273" y="404.27271" x="678.45457" stroke="#2D2D2D" fill="#FF7E7E" class="qshape"/>
   <rect height="20" width="268.18182" y="425.1818" x="210.27274" stroke="#2D2D2D" fill="#FF7E7E" class="qshape"/>
   <rect height="16.36364" width="100" y="449.72726" x="165.72729" stroke="#2D2D2D" fill="#FF7E7E" class="qshape"/>
  </g>
  <g id="b9637e9852e64223bdafd2985456c15a-ao-5">
   <rect height="18.18182" width="152.72727" y="494.27271" x="347.54547" stroke="#2D2D2D" fill="#FFEBA2"/>
   <rect stroke="#2D2D2D" height="18.18182" width="290.00002" y="494.27271" x="530.27274" fill="#FFEBA2"/>
   <rect height="17.27273" width="189.09091" y="517.90908" x="199.36365" stroke-linecap="null" stroke-linejoin="null" stroke-dasharray="null" stroke="#2D2D2D" fill="#FFEBA2"/>
  </g>
 </g>
</svg>