<svg xmlns="http://www.w3.org/2000/svg" width="837" height="737">
 <!-- Created with Image Occlusion Enhanced -->
 <g>
  <title>Labels</title>
 </g>
 <g>
  <title>Masks</title>
  <rect id="bf64498056c048c7ac5caf9c4c050a74-ao-1" height="23.75" width="471.25002" y="38.25003" x="196.25004" stroke="#2D2D2D" fill="#FF7E7E" class="qshape"/>
  <rect id="bf64498056c048c7ac5caf9c4c050a74-ao-2" height="13.75" width="536.25002" y="382.00005" x="286.25004" stroke="#2D2D2D" fill="#FFEBA2"/>
  <g id="bf64498056c048c7ac5caf9c4c050a74-ao-3">
   <rect height="20" width="270.00001" y="107.00003" x="287.50004" stroke="#2D2D2D" fill="#FFEBA2"/>
   <rect height="15" width="176.25001" y="112.00004" x="658.75006" stroke="#2D2D2D" fill="#FFEBA2"/>
  </g>
  <g id="bf64498056c048c7ac5caf9c4c050a74-ao-4">
   <rect height="23.75" width="226.25001" y="152.00004" x="357.50004" stroke="#2D2D2D" fill="#FFEBA2"/>
   <rect height="15" width="267.50001" y="178.25004" x="365.00004" stroke="#2D2D2D" fill="#FFEBA2"/>
   <rect height="15" width="266.25001" y="200.75004" x="382.50004" stroke="#2D2D2D" fill="#FFEBA2"/>
   <rect height="16.25" width="301.25001" y="224.50004" x="248.75004" stroke="#2D2D2D" fill="#FFEBA2"/>
  </g>
  <g id="bf64498056c048c7ac5caf9c4c050a74-ao-5">
   <rect height="23.75" width="402.50002" y="312.00004" x="245.00004" stroke="#2D2D2D" fill="#FFEBA2"/>
   <rect height="13.75" width="428.75002" y="338.25004" x="240.00004" stroke="#2D2D2D" fill="#FFEBA2"/>
  </g>
  <g id="bf64498056c048c7ac5caf9c4c050a74-ao-6">
   <rect height="17.5" width="531.25002" y="427.00005" x="273.75004" stroke="#2D2D2D" fill="#FFEBA2"/>
   <rect height="57.5" width="666.25003" y="454.50005" x="158.75004" stroke="#2D2D2D" fill="#FFEBA2"/>
  </g>
  <g id="bf64498056c048c7ac5caf9c4c050a74-ao-7">
   <rect height="21.25" width="153.75001" y="667.00006" x="253.75004" stroke="#2D2D2D" fill="#FFEBA2"/>
   <rect height="13.75" width="122.50001" y="695.75006" x="258.75004" stroke="#2D2D2D" fill="#FFEBA2"/>
   <rect height="16.25" width="125.00001" y="718.25006" x="253.75004" stroke="#2D2D2D" fill="#FFEBA2"/>
   <g>
    <rect height="17.5" width="288.75001" y="562.00005" x="163.75004" stroke="#2D2D2D" fill="#FFEBA2"/>
    <rect height="27.5" width="222.50001" y="603.25006" x="157.50003" stroke="#2D2D2D" fill="#FFEBA2"/>
   </g>
  </g>
  <rect id="bf64498056c048c7ac5caf9c4c050a74-ao-8" height="18.75" width="346.25001" y="269.50004" x="261.25004" stroke-linecap="null" stroke-linejoin="null" stroke-dasharray="null" stroke="#2D2D2D" fill="#FFEBA2"/>
 </g>
</svg>