<svg xmlns="http://www.w3.org/2000/svg" width="1011" height="758">
 <!-- Created with Image Occlusion Enhanced -->
 <g>
  <title>Labels</title>
 </g>
 <g>
  <title>Masks</title>
  <g id="bf6ab59fddfa4626a1a6b3fdfa4b4850-ao-1">
   <rect height="24.35897" width="130.76923" y="245.33335" x="213.35894" stroke="#2D2D2D" fill="#FFEBA2"/>
   <rect height="17.94872" width="220.51282" y="247.89745" x="480.02561" stroke="#2D2D2D" fill="#FFEBA2"/>
   <rect height="25.64103" width="43.58974" y="245.33335" x="714.641" stroke="#2D2D2D" fill="#FFEBA2"/>
   <rect height="26.92308" width="164.10257" y="273.53848" x="51.82047" stroke="#2D2D2D" fill="#FFEBA2"/>
   <rect height="24.35897" width="65.38462" y="277.38463" x="397.97432" stroke="#2D2D2D" fill="#FFEBA2"/>
   <rect height="25.64103" width="92.30769" y="274.82053" x="473.61535" stroke="#2D2D2D" fill="#FFEBA2"/>
   <rect height="21.79487" width="155.12821" y="279.94874" x="609.51279" stroke="#2D2D2D" fill="#FFEBA2"/>
   <rect height="17.94872" width="239.74359" y="304.30771" x="177.4615" stroke="#2D2D2D" fill="#FFEBA2"/>
   <rect height="10.25641" width="150" y="309.43592" x="424.8974" stroke="#2D2D2D" fill="#FFEBA2"/>
   <rect height="21.79487" width="126.92308" y="303.02566" x="731.30766" stroke="#2D2D2D" fill="#FFEBA2"/>
   <rect height="23.07692" width="152.56411" y="327.38463" x="188.99996" stroke="#2D2D2D" fill="#FFEBA2"/>
  </g>
  <g id="bf6ab59fddfa4626a1a6b3fdfa4b4850-ao-2" class="qshape">
   <rect height="20.51282" width="211.53847" y="540.20515" x="121.05124" stroke="#2D2D2D" fill="#FF7E7E" class="qshape"/>
   <rect height="26.92308" width="108.97436" y="541.4872" x="565.92305" stroke="#2D2D2D" fill="#FF7E7E" class="qshape"/>
   <rect height="20.51282" width="96.15385" y="650.46156" x="44.12816" stroke="#2D2D2D" fill="#FF7E7E" class="qshape"/>
   <rect height="23.07692" width="137.17949" y="679.94874" x="446.69227" stroke="#2D2D2D" fill="#FF7E7E" class="qshape"/>
   <rect height="17.94872" width="192.3077" y="709.43592" x="40.28201" stroke="#2D2D2D" fill="#FF7E7E" class="qshape"/>
   <rect height="25.64103" width="175.64103" y="731.23079" x="38.99996" stroke="#2D2D2D" fill="#FF7E7E" class="qshape"/>
  </g>
 </g>
</svg>