<svg xmlns="http://www.w3.org/2000/svg" width="1512" height="799">
 <!-- Created with Image Occlusion Enhanced -->
 <g>
  <title>Labels</title>
 </g>
 <g>
  <title>Masks</title>
  <g id="c457d06fee5943d0a33ef1252d986b54-oa-1">
   <rect height="28.76712" width="93.15068" y="440.72599" x="246.90409" stroke="#2D2D2D" fill="#FFEBA2"/>
   <rect height="32.87671" width="90.41096" y="437.98626" x="631.8356" stroke="#2D2D2D" fill="#FFEBA2"/>
   <rect height="34.24658" width="75.34247" y="439.35612" x="1063.34244" stroke="#2D2D2D" fill="#FFEBA2"/>
   <rect height="34.24658" width="61.64384" y="443.46571" x="1394.84929" stroke="#2D2D2D" fill="#FFEBA2"/>
  </g>
  <g id="c457d06fee5943d0a33ef1252d986b54-oa-2">
   <rect height="68.49315" width="198.63014" y="572.23284" x="82.52053" stroke="#2D2D2D" fill="#FFEBA2"/>
   <rect height="35.61644" width="82.19178" y="591.41092" x="355.12327" stroke="#2D2D2D" fill="#FFEBA2"/>
   <rect height="49.31507" width="97.26027" y="699.63009" x="349.64382" stroke="#2D2D2D" fill="#FFEBA2"/>
   <rect height="45.20548" width="108.21918" y="703.73968" x="133.20546" stroke="#2D2D2D" fill="#FFEBA2"/>
  </g>
  <g id="c457d06fee5943d0a33ef1252d986b54-oa-3">
   <rect height="38.35616" width="80.82192" y="587.30133" x="633.20546" stroke="#2D2D2D" fill="#FFEBA2"/>
   <rect height="65.75342" width="98.63014" y="691.41092" x="552.38354" stroke="#2D2D2D" fill="#FFEBA2"/>
   <rect height="63.0137" width="104.10959" y="692.78078" x="696.21916" stroke="#2D2D2D" fill="#FFEBA2"/>
  </g>
  <g id="c457d06fee5943d0a33ef1252d986b54-oa-4">
   <rect height="64.38356" width="195.89041" y="570.86297" x="875.67121" stroke="#2D2D2D" fill="#FFEBA2"/>
   <rect height="45.20548" width="78.08219" y="591.41092" x="1172.93148" stroke="#2D2D2D" fill="#FFEBA2"/>
   <rect height="42.46575" width="97.26027" y="706.47941" x="929.09587" stroke="#2D2D2D" fill="#FFEBA2"/>
   <rect height="52.05479" width="91.78082" y="698.26023" x="1156.49313" stroke="#2D2D2D" fill="#FFEBA2"/>
  </g>
  <g id="c457d06fee5943d0a33ef1252d986b54-oa-5">
   <rect height="58.90411" width="104.10959" y="573.6027" x="1357.86299" stroke="#2D2D2D" fill="#FFEBA2"/>
   <rect height="56.16438" width="89.0411" y="694.15064" x="1366.08217" stroke="#2D2D2D" fill="#FFEBA2"/>
  </g>
 </g>
</svg>