<svg xmlns="http://www.w3.org/2000/svg" width="1090" height="496.00000000000006">
 <!-- Created with Image Occlusion Enhanced -->
 <g>
  <title>Labels</title>
 </g>
 <g>
  <title>Masks</title>
  <rect id="cbc10eca557148c68f5ada45d6f15f98-ao-1" height="21.68675" width="156.62651" y="208.41768" x="213.21282" stroke="#2D2D2D" fill="#FFEBA2"/>
  <rect id="cbc10eca557148c68f5ada45d6f15f98-ao-2" height="21.68675" width="156.62651" y="355.40561" x="598.75504" stroke="#2D2D2D" fill="#FFEBA2"/>
  <rect stroke="#2D2D2D" id="cbc10eca557148c68f5ada45d6f15f98-ao-3" height="21.68675" width="207.22891" y="315.64658" x="607.18877" fill="#FF7E7E" class="qshape"/>
  <rect stroke="#2D2D2D" id="cbc10eca557148c68f5ada45d6f15f98-ao-4" height="21.68675" width="207.22891" y="280.70682" x="604.77915" fill="#FFEBA2"/>
  <rect stroke="#2D2D2D" id="cbc10eca557148c68f5ada45d6f15f98-ao-5" height="21.68675" width="210.84338" y="245.76706" x="604.77915" fill="#FFEBA2"/>
  <rect stroke="#2D2D2D" id="cbc10eca557148c68f5ada45d6f15f98-ao-6" height="21.68675" width="216.86746" y="212.03212" x="605.98396" fill="#FFEBA2"/>
  <rect id="cbc10eca557148c68f5ada45d6f15f98-ao-7" height="21.68675" width="156.62651" y="354.20079" x="395.14058" stroke="#2D2D2D" fill="#FFEBA2"/>
  <rect id="cbc10eca557148c68f5ada45d6f15f98-ao-8" height="21.68675" width="156.62651" y="318.05622" x="395.14058" stroke="#2D2D2D" fill="#FFEBA2"/>
  <rect id="cbc10eca557148c68f5ada45d6f15f98-ao-9" height="21.68675" width="156.62651" y="284.32128" x="393.93576" stroke="#2D2D2D" fill="#FFEBA2"/>
  <rect id="cbc10eca557148c68f5ada45d6f15f98-ao-10" height="21.68675" width="156.62651" y="243.35742" x="391.52612" stroke="#2D2D2D" fill="#FFEBA2"/>
  <rect id="cbc10eca557148c68f5ada45d6f15f98-ao-11" height="21.68675" width="156.62651" y="210.8273" x="391.52612" stroke="#2D2D2D" fill="#FFEBA2"/>
  <rect id="cbc10eca557148c68f5ada45d6f15f98-ao-12" height="21.68675" width="156.62651" y="351.79116" x="219.23696" stroke="#2D2D2D" fill="#FFEBA2"/>
  <rect id="cbc10eca557148c68f5ada45d6f15f98-ao-13" height="21.68675" width="156.62651" y="318.05622" x="219.23696" stroke="#2D2D2D" fill="#FFEBA2"/>
  <rect id="cbc10eca557148c68f5ada45d6f15f98-ao-14" height="21.68675" width="156.62651" y="280.70682" x="213.21287" stroke="#2D2D2D" fill="#FFEBA2"/>
  <rect id="cbc10eca557148c68f5ada45d6f15f98-ao-15" height="21.68675" width="156.62651" y="243.35742" x="218.03214" stroke="#2D2D2D" fill="#FFEBA2"/>
 </g>
</svg>