<svg xmlns="http://www.w3.org/2000/svg" width="884" height="629">
 <!-- Created with Image Occlusion Enhanced -->
 <g>
  <title>Labels</title>
 </g>
 <g>
  <title>Masks</title>
  <rect id="dea6c4c37d90415988e05072e4b00589-ao-1" height="20.21277" width="219.14893" y="46.95744" x="255.36167" stroke="#2D2D2D" fill="#FF7E7E" class="qshape"/>
  <g id="dea6c4c37d90415988e05072e4b00589-ao-2">
   <rect height="20.21277" width="304.25531" y="112.91488" x="204.29784" stroke="#2D2D2D" fill="#FFEBA2"/>
   <rect height="21.2766" width="82.97872" y="110.78722" x="640.46805" stroke="#2D2D2D" fill="#FFEBA2"/>
   <rect height="22.34043" width="115.95744" y="113.97871" x="744.72336" stroke="#2D2D2D" fill="#FFEBA2"/>
   <rect height="21.2766" width="104.25532" y="138.4468" x="344.72337" stroke="#2D2D2D" fill="#FFEBA2"/>
   <rect height="21.2766" width="180.85106" y="136.31914" x="457.48933" stroke="#2D2D2D" fill="#FFEBA2"/>
   <rect height="17.02128" width="206.38298" y="139.51063" x="648.97868" stroke="#2D2D2D" fill="#FFEBA2"/>
   <rect height="20.21277" width="150" y="159.72339" x="245.7872" stroke="#2D2D2D" fill="#FFEBA2"/>
   <rect height="13.82979" width="150" y="163.97871" x="397.91486" stroke="#2D2D2D" fill="#FFEBA2"/>
  </g>
  <g id="dea6c4c37d90415988e05072e4b00589-ao-3">
   <rect height="18.08511" width="48.93617" y="186.31914" x="259.61699" stroke="#2D2D2D" fill="#FFEBA2"/>
   <rect height="17.02128" width="160.6383" y="185.25531" x="344.72337" stroke="#2D2D2D" fill="#FFEBA2"/>
   <rect height="13.82979" width="163.82978" y="186.31914" x="529.82975" stroke="#2D2D2D" fill="#FFEBA2"/>
   <rect height="19.14894" width="101.06383" y="207.59573" x="162.80848" stroke="#2D2D2D" fill="#FFEBA2"/>
   <rect height="19.14894" width="48.93617" y="206.5319" x="288.34039" stroke="#2D2D2D" fill="#FFEBA2"/>
   <rect height="21.2766" width="70.21276" y="204.40424" x="362.80848" stroke="#2D2D2D" fill="#FFEBA2"/>
   <rect height="20.21277" width="102.12766" y="204.40424" x="459.61699" stroke="#2D2D2D" fill="#FFEBA2"/>
  </g>
  <g id="dea6c4c37d90415988e05072e4b00589-ao-4">
   <rect height="15.95745" width="214.89361" y="227.8085" x="162.80848" stroke="#2D2D2D" fill="#FFEBA2"/>
   <rect height="18.08511" width="70.21276" y="226.74467" x="397.91486" stroke="#2D2D2D" fill="#FFEBA2"/>
   <rect height="20.21277" width="120.21276" y="227.8085" x="492.59571" stroke="#2D2D2D" fill="#FFEBA2"/>
   <rect height="18.08511" width="202.12766" y="226.74467" x="633.02124" stroke="#2D2D2D" fill="#FFEBA2"/>
   <rect height="26.59574" width="53.19149" y="245.8936" x="276.63827" stroke="#2D2D2D" fill="#FFEBA2"/>
   <rect height="22.34043" width="85.10638" y="246.95743" x="361.74465" stroke="#2D2D2D" fill="#FFEBA2"/>
   <rect height="18.08511" width="90.42553" y="273.55318" x="205.36167" stroke="#2D2D2D" fill="#FFEBA2"/>
   <rect height="14.89362" width="142.55319" y="275.68084" x="331.95741" stroke="#2D2D2D" fill="#FFEBA2"/>
  </g>
  <g id="dea6c4c37d90415988e05072e4b00589-ao-5">
   <rect height="15.95745" width="197.87234" y="298.02126" x="164.93614" stroke="#2D2D2D" fill="#FFEBA2"/>
   <rect height="14.89362" width="122.34042" y="299.08509" x="381.95741" stroke="#2D2D2D" fill="#FFEBA2"/>
   <rect height="14.89362" width="98.93617" y="299.08509" x="521.31911" stroke="#2D2D2D" fill="#FFEBA2"/>
   <rect height="18.08511" width="237.23404" y="295.8936" x="640.46805" stroke="#2D2D2D" fill="#FFEBA2"/>
   <rect height="17.02128" width="47.87234" y="318.23403" x="280.89358" stroke="#2D2D2D" fill="#FFEBA2"/>
   <rect height="14.89362" width="56.38298" y="320.36169" x="359.61699" stroke="#2D2D2D" fill="#FFEBA2"/>
   <rect height="17.02128" width="307.4468" y="339.51062" x="284.08507" stroke="#2D2D2D" fill="#FFEBA2"/>
  </g>
  <g id="dea6c4c37d90415988e05072e4b00589-ao-6">
   <rect height="22.34043" width="70.21276" y="361.85105" x="160.68082" stroke="#2D2D2D" fill="#FFEBA2"/>
   <rect height="13.82979" width="90.42553" y="366.10637" x="257.48933" stroke="#2D2D2D" fill="#FFEBA2"/>
   <rect height="18.08511" width="70.21276" y="363.97871" x="369.19146" stroke="#2D2D2D" fill="#FFEBA2"/>
   <rect height="22.34043" width="215.95744" y="361.85105" x="464.93613" stroke="#2D2D2D" fill="#FFEBA2"/>
   <rect height="21.2766" width="44.68085" y="384.19147" x="275.57444" stroke="#2D2D2D" fill="#FFEBA2"/>
  </g>
  <g id="dea6c4c37d90415988e05072e4b00589-ao-7">
   <rect height="12.76596" width="73.40425" y="411.85105" x="161.74465" stroke="#2D2D2D" fill="#FFEBA2"/>
   <rect height="14.89362" width="69.14894" y="409.72339" x="259.61699" stroke="#2D2D2D" fill="#FFEBA2"/>
   <rect height="21.2766" width="68.08511" y="405.46807" x="353.23401" stroke="#2D2D2D" fill="#FFEBA2"/>
   <rect height="23.40425" width="214.89361" y="408.65956" x="446.85103" stroke="#2D2D2D" fill="#FFEBA2"/>
   <rect height="19.14894" width="81.91489" y="428.87232" x="273.44678" stroke="#2D2D2D" fill="#FFEBA2"/>
  </g>
  <g id="dea6c4c37d90415988e05072e4b00589-ao-8">
   <rect height="25.53191" width="84.04255" y="446.95743" x="153.23401" stroke="#2D2D2D" fill="#FFEBA2"/>
   <rect height="22.34043" width="75.53191" y="450.14892" x="257.48933" stroke="#2D2D2D" fill="#FFEBA2"/>
   <rect height="19.14894" width="59.57447" y="452.27658" x="351.10635" stroke="#2D2D2D" fill="#FFEBA2"/>
   <rect height="22.34043" width="94.68085" y="453.34041" x="433.02124" stroke="#2D2D2D" fill="#FFEBA2"/>
  </g>
  <g id="dea6c4c37d90415988e05072e4b00589-ao-9">
   <rect height="17.02128" width="70.21276" y="475.68083" x="162.80848" stroke="#2D2D2D" fill="#FFEBA2"/>
   <rect height="18.08511" width="54.25532" y="474.617" x="261.74465" stroke="#2D2D2D" fill="#FFEBA2"/>
   <rect height="20.21277" width="32.97872" y="472.48934" x="340.46805" stroke="#2D2D2D" fill="#FFEBA2"/>
   <rect height="22.34043" width="194.68085" y="472.48934" x="392.59571" stroke="#2D2D2D" fill="#FFEBA2"/>
   <rect height="21.2766" width="67.02128" y="494.82977" x="310.68082" stroke="#2D2D2D" fill="#FFEBA2"/>
  </g>
  <g id="dea6c4c37d90415988e05072e4b00589-ao-10">
   <rect height="22.34043" width="51.06383" y="537.38296" x="303.23401" stroke="#2D2D2D" fill="#FFEBA2"/>
   <rect height="21.2766" width="86.17021" y="538.44679" x="387.27656" stroke="#2D2D2D" fill="#FFEBA2"/>
   <rect height="25.53191" width="155.31915" y="560.78721" x="552.17018" stroke="#2D2D2D" fill="#FFEBA2"/>
   <rect height="15.95745" width="76.59574" y="565.04253" x="793.65953" stroke="#2D2D2D" fill="#FFEBA2"/>
   <rect height="18.08511" width="161.70212" y="585.2553" x="136.21274" stroke="#2D2D2D" fill="#FFEBA2"/>
   <rect height="20.21277" width="185.10638" y="607.59572" x="420.25528" stroke="#2D2D2D" fill="#FFEBA2"/>
  </g>
 </g>
</svg>