<svg xmlns="http://www.w3.org/2000/svg" width="1322" height="744">
 <!-- Created with Image Occlusion Enhanced -->
 <g>
  <title>Labels</title>
 </g>
 <g>
  <title>Masks</title>
  <rect id="debca9f3d89e477fbda8af68576cfb0f-ao-1" height="32.91139" width="229.11392" y="603.84808" x="271.67088" stroke="#2D2D2D" fill="#FFEBA2"/>
  <g id="debca9f3d89e477fbda8af68576cfb0f-ao-2">
   <rect height="45.56962" width="156.96202" y="188.65821" x="121.03797" stroke="#2D2D2D" fill="#FFEBA2"/>
   <rect height="15.18987" width="51.89873" y="163.34175" x="805.84809" stroke="#2D2D2D" fill="#FFEBA2"/>
  </g>
  <g id="debca9f3d89e477fbda8af68576cfb0f-ao-3">
   <rect height="26.58228" width="122.78481" y="241.82277" x="291.92404" stroke="#2D2D2D" fill="#FFEBA2"/>
   <rect height="39.24051" width="89.87342" y="239.29112" x="479.26581" stroke="#2D2D2D" fill="#FFEBA2"/>
   <rect height="17.72152" width="73.41772" y="379.79745" x="1022.30379" stroke="#2D2D2D" fill="#FFEBA2"/>
  </g>
  <g id="debca9f3d89e477fbda8af68576cfb0f-ao-4">
   <rect height="40.50633" width="316.45569" y="315.24049" x="209.64556" stroke="#2D2D2D" fill="#FFEBA2"/>
   <rect height="39.24051" width="239.24051" y="351.94935" x="105.84809" stroke="#2D2D2D" fill="#FFEBA2"/>
   <rect height="36.70886" width="81.01266" y="462.07593" x="819.77214" stroke="#2D2D2D" fill="#FFEBA2"/>
   <rect height="18.98734" width="112.65823" y="522.83542" x="959.01265" stroke="#2D2D2D" fill="#FFEBA2"/>
  </g>
  <g id="debca9f3d89e477fbda8af68576cfb0f-ao-5">
   <rect height="32.91139" width="136.70886" y="401.31644" x="410.91138" stroke="#2D2D2D" fill="#FFEBA2"/>
   <rect height="12.65823" width="78.48101" y="351.94935" x="970.40505" stroke="#2D2D2D" fill="#FFEBA2"/>
  </g>
  <g id="debca9f3d89e477fbda8af68576cfb0f-ao-6">
   <rect height="35.44304" width="86.07595" y="439.29112" x="276.73417" stroke="#2D2D2D" fill="#FFEBA2"/>
   <rect height="35.44304" width="116.4557" y="477.2658" x="88.12658" stroke="#2D2D2D" fill="#FFEBA2"/>
   <rect height="20.25316" width="58.22785" y="268.40505" x="1019.77214" stroke="#2D2D2D" fill="#FFEBA2"/>
   <rect height="25.31646" width="84.81013" y="344.35441" x="1229.89872" stroke="#2D2D2D" fill="#FFEBA2"/>
  </g>
  <g id="debca9f3d89e477fbda8af68576cfb0f-ao-7">
   <rect height="35.44304" width="169.62025" y="522.83542" x="40.02531" stroke="#2D2D2D" fill="#FFEBA2"/>
   <rect height="31.64557" width="63.29114" y="649.4177" x="585.59493" stroke="#2D2D2D" fill="#FFEBA2"/>
   <rect height="18.98734" width="68.35443" y="529.16454" x="586.86075" stroke-linecap="null" stroke-linejoin="null" stroke-dasharray="null" stroke="#2D2D2D" fill="#FFEBA2"/>
  </g>
  <g id="debca9f3d89e477fbda8af68576cfb0f-ao-8">
   <rect height="29.11392" width="143.03797" y="567.13922" x="207.11392" stroke="#2D2D2D" fill="#FFEBA2"/>
   <rect height="21.51899" width="44.3038" y="710.1772" x="494.45569" stroke="#2D2D2D" fill="#FFEBA2"/>
   <rect height="12.65823" width="54.43038" y="662.07593" x="517.2405" stroke="#2D2D2D" fill="#FFEBA2"/>
  </g>
  <g id="debca9f3d89e477fbda8af68576cfb0f-ao-9" class="qshape">
   <rect height="34.17722" width="59.49367" y="550.68352" x="1122.30379" stroke="#2D2D2D" fill="#FF7E7E" class="qshape"/>
   <rect height="20.25316" width="106.32911" y="648.15188" x="962.81012" stroke="#2D2D2D" fill="#FF7E7E" class="qshape"/>
  </g>
 </g>
</svg>