<svg xmlns="http://www.w3.org/2000/svg" width="1584" height="1224">
 <!-- Created with Image Occlusion Enhanced -->
 <g>
  <title>Labels</title>
 </g>
 <g>
  <title>Masks</title>
  <rect id="df47072e46754068a2e5ea978d34567d-ao-1" height="63.33333" width="329.99999" y="154.20069" x="931.77642" stroke="#2D2D2D" fill="#FFEBA2"/>
  <rect id="df47072e46754068a2e5ea978d34567d-ao-2" height="76.66666" width="283.33333" y="257.53402" x="958.44309" stroke="#2D2D2D" fill="#FFEBA2"/>
  <rect id="df47072e46754068a2e5ea978d34567d-ao-3" height="86.66666" width="369.99999" y="360.86735" x="1215.10975" stroke="#2D2D2D" fill="#FFEBA2"/>
  <g id="df47072e46754068a2e5ea978d34567d-ao-4">
   <rect height="53.33333" width="303.33333" y="420.86735" x="128.44311" stroke="#2D2D2D" fill="#FFEBA2"/>
   <rect height="66.66666" width="216.66666" y="310.86735" x="158.44311" stroke="#2D2D2D" fill="#FFEBA2"/>
   <rect height="93.33333" width="376.66666" y="134.20069" x="258.44311" stroke="#2D2D2D" fill="#FFEBA2"/>
  </g>
  <g id="df47072e46754068a2e5ea978d34567d-ao-5" class="qshape">
   <rect height="96.66666" width="486.66665" y="1077.534" x="241.77644" stroke="#2D2D2D" fill="#FF7E7E" class="qshape"/>
   <rect height="53.33333" width="299.99999" y="990.86733" x="175.10977" stroke="#2D2D2D" fill="#FF7E7E" class="qshape"/>
   <rect height="83.33333" width="303.33333" y="597.53401" x="65.10978" stroke="#2D2D2D" fill="#FF7E7E" class="qshape"/>
  </g>
  <g id="df47072e46754068a2e5ea978d34567d-ao-6">
   <rect height="50" width="283.33333" y="1140.86733" x="931.77642" stroke="#2D2D2D" fill="#FFEBA2"/>
   <rect height="46.66667" width="329.99999" y="1087.534" x="998.44309" stroke="#2D2D2D" fill="#FFEBA2"/>
   <rect height="53.33333" width="416.66666" y="1024.20066" x="1098.44308" stroke="#2D2D2D" fill="#FFEBA2"/>
  </g>
  <g id="df47072e46754068a2e5ea978d34567d-ao-7">
   <rect height="90" width="383.33332" y="917.534" x="1128.44308" stroke="#2D2D2D" fill="#FFEBA2"/>
   <rect height="66.66666" width="316.66666" y="817.534" x="1158.44308" stroke="#2D2D2D" fill="#FFEBA2"/>
   <rect height="50" width="190" y="520.86734" x="1228.44308" stroke="#2D2D2D" fill="#FFEBA2"/>
   <rect height="43.33333" width="226.66666" y="584.20068" x="1215.10975" stroke="#2D2D2D" fill="#FFEBA2"/>
  </g>
 </g>
</svg>