<svg xmlns="http://www.w3.org/2000/svg" width="857" height="636">
 <!-- Created with Image Occlusion Enhanced -->
 <g>
  <title>Labels</title>
 </g>
 <g>
  <title>Masks</title>
  
  <g id="f0a100a7984b4688973dd9a2cc6d0d21-ao-2">
   <rect height="23.65591" width="107.52689" y="321.41939" x="290.95697" stroke="#2D2D2D" fill="#FFEBA2"/>
   <rect height="11.82796" width="100" y="352.60218" x="371.60213" stroke="#2D2D2D" fill="#FFEBA2"/>
   <rect height="23.65591" width="126.88172" y="320.34412" x="592.03225" stroke="#2D2D2D" fill="#FFEBA2"/>
  </g>
  <g id="f0a100a7984b4688973dd9a2cc6d0d21-ao-3">
   <rect height="20.43011" width="36.55914" y="207.44089" x="416.76342" stroke="#2D2D2D" fill="#FFEBA2"/>
   <rect height="20.43011" width="70.96774" y="235.39788" x="195.25804" stroke="#2D2D2D" fill="#FFEBA2"/>
   <rect height="20.43011" width="93.54839" y="235.39788" x="279.12901" stroke="#2D2D2D" fill="#FFEBA2"/>
   <rect height="19.35484" width="73.11828" y="287.01078" x="195.25804" stroke="#2D2D2D" fill="#FFEBA2"/>
   <rect height="19.35484" width="88.17205" y="261.20433" x="197.40858" stroke="#2D2D2D" fill="#FFEBA2"/>
   <rect height="21.50538" width="58.06452" y="208.51616" x="722.13978" stroke="#2D2D2D" fill="#FFEBA2"/>
   <rect height="26.88172" width="61.29032" y="231.0968" x="499.55913" stroke="#2D2D2D" fill="#FFEBA2"/>
   <rect height="23.65591" width="88.17205" y="231.0968" x="631.8172" stroke="#2D2D2D" fill="#FFEBA2"/>
   <rect height="19.35484" width="64.51613" y="261.20433" x="580.20429" stroke="#2D2D2D" fill="#FFEBA2"/>
  </g>
  <g id="f0a100a7984b4688973dd9a2cc6d0d21-ao-4">
   <rect height="27.95699" width="80.64516" y="114.96777" x="359.77418" stroke="#2D2D2D" fill="#FFEBA2"/>
   <rect height="23.65591" width="113.9785" y="116.04304" x="502.78493" stroke="#2D2D2D" fill="#FFEBA2"/>
   <rect height="23.65591" width="94.62366" y="146.15056" x="662.99999" stroke="#2D2D2D" fill="#FFEBA2"/>
  </g>
 </g>
</svg>