<svg xmlns="http://www.w3.org/2000/svg" width="1061" height="778.9999999999999">
 <!-- Created with Image Occlusion Enhanced -->
 <g>
  <title>Labels</title>
 </g>
 <g>
  <title>Masks</title>
  <g id="f70745f9157e4e55817d2f8f59d6009a-ao-11">
   <rect fill="#FFEBA2" stroke="#2D2D2D" x="768.47372" y="461.00005" width="89.47369" height="18.42105"/>
   <rect fill="#FFEBA2" stroke="#2D2D2D" x="761.89477" y="437.31583" width="89.47369" height="17.10526"/>
   <rect fill="#FFEBA2" stroke="#2D2D2D" x="754.00004" y="399.15794" width="113.1579" height="15.78947"/>
  </g>
  <g id="f70745f9157e4e55817d2f8f59d6009a-ao-12">
   <rect fill="#FFEBA2" stroke="#2D2D2D" x="675.05267" y="284.68425" width="43.42105" height="18.42105"/>
   <rect fill="#FFEBA2" stroke="#2D2D2D" x="742.15793" y="287.31583" width="47.36842" height="15.78947"/>
  </g>
  <g id="f70745f9157e4e55817d2f8f59d6009a-ao-1">
   <rect fill="#FFEBA2" stroke="#2D2D2D" x="182.94738" y="224.15793" width="36.84211" height="34.21053"/>
   <rect fill="#FFEBA2" stroke="#2D2D2D" x="227.68423" y="225.47372" width="59.21053" height="28.94737"/>
   <rect fill="#FFEBA2" stroke="#2D2D2D" x="298.73686" y="222.84214" width="194.73685" height="28.94737"/>
   <rect fill="#FFEBA2" stroke="#2D2D2D" x="88.21054" y="254.42109" width="84.21053" height="27.63158"/>
   <rect fill="#FFEBA2" stroke="#2D2D2D" x="179.00002" y="366.2632" width="81.57895" height="28.94737"/>
   <rect fill="#FFEBA2" stroke="#2D2D2D" x="198.73686" y="401.78952" width="100" height="28.94737"/>
   <rect fill="#FFEBA2" stroke="#2D2D2D" x="82.94738" y="516.26321" width="159.21053" height="23.68421"/>
   <rect fill="#FFEBA2" stroke="#2D2D2D" x="332.94739" y="539.94742" width="102.63158" height="30.26316"/>
   <rect fill="#FFEBA2" stroke="#2D2D2D" x="309.26318" y="661.00005" width="136.84211" height="23.68421"/>
   <rect fill="#FFEBA2" stroke="#2D2D2D" x="171.10528" y="687.31584" width="448.68423" height="28.94737"/>
  </g>
 </g>
</svg>