<svg xmlns="http://www.w3.org/2000/svg" width="837" height="336">
 <!-- Created with Image Occlusion Enhanced -->
 <g>
  <title>Labels</title>
 </g>
 <g>
  <title>Masks</title>
  <rect fill="#FFEBA2" stroke="#2D2D2D" x="70.2727" y="64.36362" width="146.66666" height="22.42424" id="f7e60989eb6c4b6480e6f1571afec67c-ao-1"/>
  <rect fill="#FFEBA2" stroke="#2D2D2D" x="70.2727" y="203.15149" width="706.06058" height="17.57576" id="f7e60989eb6c4b6480e6f1571afec67c-ao-2"/>
  
  <g id="f7e60989eb6c4b6480e6f1571afec67c-ao-4">
   <rect fill="#FFEBA2" stroke="#2D2D2D" x="195.72724" y="246.78785" width="62.42424" height="17.57576"/>
   <rect fill="#FFEBA2" stroke="#2D2D2D" x="340.57572" y="247.39391" width="114.54545" height="16.36364"/>
   <rect fill="#FFEBA2" stroke="#2D2D2D" x="746.63631" y="244.36361" width="70.90909" height="19.39394"/>
   <rect fill="#FFEBA2" stroke="#2D2D2D" x="373.90905" y="271.03028" width="106.66666" height="14.54545"/>
   <rect fill="#FFEBA2" stroke="#2D2D2D" x="519.36359" y="271.03028" width="131.51515" height="16.9697"/>
  </g>
  <g id="f7e60989eb6c4b6480e6f1571afec67c-ao-6">
   <rect fill="#FFEBA2" stroke="#2D2D2D" x="76.3333" y="90.42422" width="107.27272" height="19.39394"/>
   <rect fill="#FFEBA2" stroke="#2D2D2D" x="349.66662" y="90.42422" width="102.42424" height="18.18182"/>
   <rect fill="#FFEBA2" stroke="#2D2D2D" x="572.09086" y="86.78786" width="49.09091" height="24.24242"/>
  </g>
  <g id="f7e60989eb6c4b6480e6f1571afec67c-ao-5">
   <rect height="16.9697" width="128.48484" y="21.33332" x="73.90906" stroke="#2D2D2D" fill="#FFEBA2"/>
   <rect height="18.78788" width="94.54545" y="22.54544" x="341.78784" stroke="#2D2D2D" fill="#FFEBA2"/>
   <rect height="15.75758" width="49.69697" y="44.96968" x="116.3333" stroke="#2D2D2D" fill="#FFEBA2"/>
  </g>
  <g id="f7e60989eb6c4b6480e6f1571afec67c-ao-7">
   <rect height="14.54545" width="108.48484" y="114.06059" x="74.51512" stroke-linecap="null" stroke-linejoin="null" stroke-dasharray="null" stroke="#2D2D2D" fill="#FFEBA2"/>
   <rect height="15.75758" width="46.0606" y="114.06059" x="358.15147" stroke-linecap="null" stroke-linejoin="null" stroke-dasharray="null" stroke="#2D2D2D" fill="#FFEBA2"/>
   <rect height="15.75758" width="46.66667" y="134.06059" x="119.96966" stroke-linecap="null" stroke-linejoin="null" stroke-dasharray="null" stroke="#2D2D2D" fill="#FFEBA2"/>
  </g>
 </g>
</svg>