<svg xmlns="http://www.w3.org/2000/svg" width="968" height="699">
 <!-- Created with Image Occlusion Enhanced -->
 <g>
  <title>Labels</title>
 </g>
 <g>
  <title>Masks</title>
  <g id="f92e1ef7e22c428883ae53baf7388a4a-ao-1">
   <rect height="25.88235" width="75.29412" y="96.76466" x="461.41179" stroke="#2D2D2D" fill="#FFEBA2"/>
   <rect height="27.05882" width="91.76471" y="127.35289" x="33.17649" stroke="#2D2D2D" fill="#FFEBA2"/>
   <rect height="37.64706" width="83.52941" y="154.41172" x="297.88237" stroke="#2D2D2D" fill="#FFEBA2"/>
   <rect height="31.76471" width="160" y="189.70584" x="249.64708" stroke="#2D2D2D" fill="#FFEBA2"/>
   <rect height="23.52941" width="177.64706" y="221.47054" x="279.05884" stroke="#2D2D2D" fill="#FFEBA2"/>
   <rect height="30.58824" width="115.29412" y="247.3529" x="96.7059" stroke="#2D2D2D" fill="#FFEBA2"/>
  </g>
  <g id="f92e1ef7e22c428883ae53baf7388a4a-ao-2" class="qshape">
   <rect stroke="#2D2D2D" height="22.35295" width="225.88236" y="379.1176" x="33.17649" fill="#FF7E7E" class="qshape"/>
   <g class="qshape">
    <rect height="23.52941" width="104.70588" y="281.47054" x="136.7059" stroke="#2D2D2D" fill="#FF7E7E" class="qshape"/>
    <rect height="28.23529" width="243.52942" y="312.05878" x="35.52943" stroke="#2D2D2D" fill="#FF7E7E" class="qshape"/>
    <rect height="22.35294" width="157.64706" y="314.41172" x="306.11767" stroke="#2D2D2D" fill="#FF7E7E" class="qshape"/>
    <rect height="30.58824" width="132.94118" y="310.88231" x="734.35297" stroke="#2D2D2D" fill="#FF7E7E" class="qshape"/>
    <rect height="17.64706" width="144.70588" y="348.52937" x="34.35296" stroke="#2D2D2D" fill="#FF7E7E" class="qshape"/>
   </g>
  </g>
  <g id="f92e1ef7e22c428883ae53baf7388a4a-ao-3">
   <rect height="20" width="296.47059" y="440.29408" x="160.23531" stroke-linecap="null" stroke-linejoin="null" stroke-dasharray="null" stroke="#2D2D2D" fill="#FFEBA2"/>
   <rect height="30.58824" width="280" y="466.17643" x="87.29413" stroke-linecap="null" stroke-linejoin="null" stroke-dasharray="null" stroke="#2D2D2D" fill="#FFEBA2"/>
   <rect height="23.52941" width="94.11765" y="560.29408" x="37.88237" stroke-linecap="null" stroke-linejoin="null" stroke-dasharray="null" stroke="#2D2D2D" fill="#FFEBA2"/>
  </g>
 </g>
</svg>