<svg height="747.9999999999999" width="1510" xmlns="http://www.w3.org/2000/svg">
 <!-- Created with Image Occlusion Enhanced -->
 <g>
  <title>Labels</title>
  <rect fill="#ffffff" height="115" id="svg_11" stroke="#2D2D2D" width="485" x="1010" y="1.99995"/>
 </g>
 <g>
  <title>Masks</title>
  <rect fill="#FFEBA2" height="35" id="0f6bb5ea801e47ac8cf020267a97e317-ao-1" stroke="#2D2D2D" width="172.5" x="672.5" y="69.49995"/>
  <rect fill="#FFEBA2" height="62.5" id="0f6bb5ea801e47ac8cf020267a97e317-ao-2" stroke="#2D2D2D" width="167.5" x="347.5" y="4.49995"/>
  <rect class="qshape" fill="#FF7E7E" height="35" id="0f6bb5ea801e47ac8cf020267a97e317-ao-3" stroke="#2D2D2D" width="187.5" x="650" y="671.99995"/>
  <rect fill="#FFEBA2" height="82.5" id="0f6bb5ea801e47ac8cf020267a97e317-ao-4" stroke="#2D2D2D" width="230" x="627.5" y="331.99995"/>
  <g id="0f6bb5ea801e47ac8cf020267a97e317-ao-5">
   <g>
    <rect fill="#FFEBA2" height="30" stroke="#2D2D2D" width="102.5" x="1387.5" y="519.49995"/>
    <rect fill="#FFEBA2" height="30" stroke="#2D2D2D" width="235" x="1252.5" y="546.99995"/>
   </g>
   <g>
    <rect fill="#FFEBA2" height="27.5" stroke="#2D2D2D" width="102.5" x="147.5" y="536.99995"/>
    <rect fill="#FFEBA2" height="25" stroke="#2D2D2D" width="145" x="0" y="569.49995"/>
   </g>
  </g>
  <g id="0f6bb5ea801e47ac8cf020267a97e317-ao-6">
   <rect fill="#FFEBA2" height="40" stroke="#2D2D2D" width="170" x="290" y="579.49995"/>
   <rect fill="#FFEBA2" height="35" stroke="#2D2D2D" width="165" x="1060" y="546.99995"/>
  </g>
  <g id="0f6bb5ea801e47ac8cf020267a97e317-ao-7">
   <g>
    <rect fill="#FFEBA2" height="37.5" stroke="#2D2D2D" width="252.5" x="2.5" y="319.49995"/>
    <rect fill="#FFEBA2" height="35" stroke="#2D2D2D" width="160" x="42.5" y="359.49995"/>
   </g>
   <g>
    <rect fill="#FFEBA2" height="35" stroke="#2D2D2D" width="257.5" x="1195" y="316.99995"/>
    <rect fill="#FFEBA2" height="40" stroke="#2D2D2D" width="122.5" x="1225" y="356.99995"/>
   </g>
  </g>
 </g>
</svg>