<svg xmlns="http://www.w3.org/2000/svg" width="353" height="713">
 <!-- Created with Image Occlusion Enhanced -->
 <g>
  <title>Labels</title>
 </g>
 <g>
  <title>Masks</title>
  <rect fill="#FFEBA2" stroke="#2D2D2D" x="67.70482" y="7.96388" width="43.3735" height="14.45783" id="11eb69e50a674d43bc219d144fcb75cb-ao-1"/>
  <rect fill="#FFEBA2" stroke="#2D2D2D" x="68.90963" y="35.67473" width="42.16868" height="9.63855" id="11eb69e50a674d43bc219d144fcb75cb-ao-2"/>
  <rect fill="#FFEBA2" stroke="#2D2D2D" x="95.41566" y="71.81931" width="33.73494" height="16.86747" id="11eb69e50a674d43bc219d144fcb75cb-ao-3"/>
  <rect fill="#FFEBA2" stroke="#2D2D2D" x="108.66867" y="124.83136" width="56.62651" height="18.07229" id="11eb69e50a674d43bc219d144fcb75cb-ao-4"/>
  <rect fill="#FFEBA2" stroke="#2D2D2D" x="117.10241" y="148.92774" width="45.78313" height="20.48193" id="11eb69e50a674d43bc219d144fcb75cb-ao-5"/>
  <rect fill="#FFEBA2" stroke="#2D2D2D" x="252.04217" y="182.66268" width="55.42169" height="30.12048" id="11eb69e50a674d43bc219d144fcb75cb-ao-6"/>
  <rect fill="#FFEBA2" stroke="#2D2D2D" x="283.36747" y="107.96389" width="60.24097" height="16.86747" id="11eb69e50a674d43bc219d144fcb75cb-ao-7"/>
  <rect fill="#FFEBA2" stroke="#2D2D2D" x="284.57229" y="76.63858" width="42.16868" height="21.68675" id="11eb69e50a674d43bc219d144fcb75cb-ao-8"/>
  <rect fill="#FFEBA2" stroke="#2D2D2D" x="278.5482" y="48.92774" width="57.83133" height="21.68675" id="11eb69e50a674d43bc219d144fcb75cb-ao-9"/>
  <rect fill="#FFEBA2" stroke="#2D2D2D" x="207.46386" y="504.34944" width="53.01205" height="31.3253" id="11eb69e50a674d43bc219d144fcb75cb-ao-13"/>
  <rect fill="#FFEBA2" stroke="#2D2D2D" x="202.64458" y="582.6627" width="75.90362" height="22.89157" id="11eb69e50a674d43bc219d144fcb75cb-ao-14"/>
  <rect fill="#FFEBA2" stroke="#2D2D2D" x="203.8494" y="611.57836" width="60.24097" height="19.27711" id="11eb69e50a674d43bc219d144fcb75cb-ao-15"/>
  <rect fill="#FFEBA2" stroke="#2D2D2D" x="206.25904" y="638.08439" width="51.80723" height="21.68675" id="11eb69e50a674d43bc219d144fcb75cb-ao-16"/>
  <rect fill="#FFEBA2" stroke="#2D2D2D" x="113.48795" y="677.84343" width="69.87952" height="25.30121" id="11eb69e50a674d43bc219d144fcb75cb-ao-17"/>
  <rect fill="#FFEBA2" stroke="#2D2D2D" x="56.86144" y="682.6627" width="49.39759" height="20.48193" id="11eb69e50a674d43bc219d144fcb75cb-ao-18"/>
  <rect fill="#FFEBA2" stroke="#2D2D2D" x="13.48795" y="576.6386" width="54.21687" height="22.89157" id="11eb69e50a674d43bc219d144fcb75cb-ao-19"/>
  <rect fill="#FFEBA2" stroke="#2D2D2D" x="19.51204" y="542.90366" width="43.3735" height="28.91566" id="11eb69e50a674d43bc219d144fcb75cb-ao-20"/>
  <rect fill="#FF7E7E" stroke="#2D2D2D" x="18.30722" y="497.12053" width="73.49398" height="43.3735" id="11eb69e50a674d43bc219d144fcb75cb-ao-21" class="qshape"/>
  <g id="11eb69e50a674d43bc219d144fcb75cb-ao-10">
   <rect fill="#FFEBA2" stroke="#2D2D2D" x="279.75302" y="350.13257" width="34.93976" height="24.09639"/>
   <rect fill="#FFEBA2" stroke="#2D2D2D" x="227.94579" y="336.87956" width="39.75904" height="16.86747"/>
   <rect fill="#FFEBA2" stroke="#2D2D2D" x="230.35542" y="364.5904" width="38.55422" height="16.86747"/>
  </g>
 </g>
</svg>