<svg xmlns="http://www.w3.org/2000/svg" width="1584.0000000000002" height="1224">
 <!-- Created with Image Occlusion Enhanced -->
 <g>
  <title>Labels</title>
 </g>
 <g>
  <title>Masks</title>
  <rect id="120c2ea7cff842dd94bdc4f00c0babef-oa-1" height="37.5" width="255" y="263.81253" x="267.56252" stroke="#2D2D2D" fill="#FFEBA2"/>
  <rect id="120c2ea7cff842dd94bdc4f00c0babef-oa-2" height="58.125" width="251.25" y="305.06253" x="443.81253" stroke="#2D2D2D" fill="#FFEBA2"/>
  <rect id="120c2ea7cff842dd94bdc4f00c0babef-oa-3" height="28.125" width="307.50001" y="366.93753" x="453.18753" stroke="#2D2D2D" fill="#FFEBA2"/>
  <rect id="120c2ea7cff842dd94bdc4f00c0babef-oa-4" height="37.5" width="150" y="383.81253" x="271.31252" stroke="#2D2D2D" fill="#FFEBA2"/>
  <rect id="120c2ea7cff842dd94bdc4f00c0babef-oa-5" height="26.25" width="195" y="430.68753" x="365.06253" stroke="#2D2D2D" fill="#FFEBA2"/>
  <rect id="120c2ea7cff842dd94bdc4f00c0babef-oa-6" height="24.375" width="148.125" y="475.68753" x="376.31253" stroke="#2D2D2D" fill="#FFEBA2"/>
  <rect id="120c2ea7cff842dd94bdc4f00c0babef-oa-7" height="48.75" width="170.625" y="447.56253" x="593.81253" stroke="#2D2D2D" fill="#FFEBA2"/>
  <rect id="120c2ea7cff842dd94bdc4f00c0babef-oa-8" height="35.625" width="328.12501" y="501.93753" x="267.56252" stroke="#2D2D2D" fill="#FFEBA2"/>
  <rect id="120c2ea7cff842dd94bdc4f00c0babef-oa-9" height="61.875" width="258.75" y="554.43753" x="441.93753" stroke="#2D2D2D" fill="#FFEBA2"/>
  <rect id="120c2ea7cff842dd94bdc4f00c0babef-oa-10" height="37.5" width="322.50001" y="623.81253" x="275.06252" stroke="#2D2D2D" fill="#FFEBA2"/>
  <rect id="120c2ea7cff842dd94bdc4f00c0babef-oa-11" height="54.375" width="363.75001" y="653.81254" x="848.81254" stroke="#2D2D2D" fill="#FFEBA2"/>
  <rect id="120c2ea7cff842dd94bdc4f00c0babef-oa-12" height="35.625" width="240" y="490.68753" x="895.68754" stroke="#2D2D2D" fill="#FFEBA2"/>
  <rect id="120c2ea7cff842dd94bdc4f00c0babef-oa-13" height="84.375" width="232.5" y="524.43753" x="893.81254" stroke="#2D2D2D" fill="#FFEBA2"/>
  <rect id="120c2ea7cff842dd94bdc4f00c0babef-oa-14" height="193.125" width="315.00001" y="273.18753" x="899.43754" stroke="#2D2D2D" fill="#FFEBA2"/>
  <rect id="120c2ea7cff842dd94bdc4f00c0babef-oa-15" height="35.625" width="285.00001" y="231.93753" x="901.31254" stroke="#2D2D2D" fill="#FFEBA2"/>
 </g>
</svg>