<svg xmlns="http://www.w3.org/2000/svg" width="591" height="648">
 <!-- Created with Image Occlusion Enhanced -->
 <g>
  <title>Labels</title>
 </g>
 <g>
  <title>Masks</title>
  <rect id="14485355162d498b83ad8806621d5439-ao-1" height="30.76923" width="160.43956" y="208.04397" x="367.02198" stroke="#2D2D2D" fill="#FFEBA2"/>
  <rect id="14485355162d498b83ad8806621d5439-ao-2" height="18.68132" width="142.85714" y="381.67034" x="52.73626" stroke="#2D2D2D" fill="#FFEBA2"/>
  <rect id="14485355162d498b83ad8806621d5439-ao-3" height="30.76923" width="126.37363" y="464.08793" x="83.5055" stroke="#2D2D2D" fill="#FFEBA2"/>
  <g id="14485355162d498b83ad8806621d5439-ao-4">
   <rect height="13.18681" width="58.24176" y="33.31869" x="380.2088" stroke="#2D2D2D" fill="#FFEBA2"/>
   <rect height="12.08791" width="123.07692" y="46.5055" x="371.41759" stroke="#2D2D2D" fill="#FFEBA2"/>
   <rect height="12.08791" width="39.56044" y="65.18682" x="434.05495" stroke="#2D2D2D" fill="#FFEBA2"/>
  </g>
  <g id="14485355162d498b83ad8806621d5439-ao-5">
   <rect height="16.48352" width="42.85714" y="88.26375" x="110.97802" stroke="#2D2D2D" fill="#FFEBA2"/>
   <rect height="14.28571" width="114.28572" y="67.38462" x="46.14286" stroke="#2D2D2D" fill="#FFEBA2"/>
   <rect height="17.58242" width="57.14286" y="103.64836" x="59.32967" stroke="#2D2D2D" fill="#FFEBA2"/>
  </g>
  <g id="14485355162d498b83ad8806621d5439-ao-6" class="qshape">
   <rect height="12.08791" width="42.85714" y="211.34067" x="140.64835" stroke="#2D2D2D" fill="#FF7E7E" class="qshape"/>
   <rect height="17.58242" width="63.73626" y="209.14287" x="34.05495" stroke="#2D2D2D" fill="#FF7E7E" class="qshape"/>
   <rect height="18.68132" width="78.02198" y="169.58243" x="91.1978" stroke="#2D2D2D" fill="#FF7E7E" class="qshape"/>
   <rect height="18.68132" width="69.23077" y="190.46155" x="47.24176" stroke="#2D2D2D" fill="#FF7E7E" class="qshape"/>
  </g>
  <g id="14485355162d498b83ad8806621d5439-ao-7">
   <rect height="20.87912" width="130.76923" y="267.38463" x="375.81319" stroke="#2D2D2D" fill="#FFEBA2"/>
   <rect height="15.38462" width="80.21978" y="288.26375" x="372.51649" stroke="#2D2D2D" fill="#FFEBA2"/>
   <rect height="18.68132" width="59.34066" y="310.24177" x="375.81319" stroke="#2D2D2D" fill="#FFEBA2"/>
   <rect height="18.68132" width="45.05495" y="312.43957" x="482.4066" stroke="#2D2D2D" fill="#FFEBA2"/>
  </g>
 </g>
</svg>