<svg xmlns="http://www.w3.org/2000/svg" width="754.0000000000001" height="311">
 <!-- Created with Image Occlusion Enhanced -->
 <g>
  <title>Labels</title>
 </g>
 <g>
  <title>Masks</title>
  <g id="172349980d85453dbe54ece2d98da765-ao-1">
   <rect height="24.04372" width="72.13115" y="65.39344" x="158.67763" stroke="#2D2D2D" fill="#FFEBA2"/>
   <rect height="19.12568" width="296.72132" y="69.21857" x="437.91261" stroke="#2D2D2D" fill="#FFEBA2"/>
   <rect height="18.03279" width="83.60656" y="89.43715" x="326.4372" stroke="#2D2D2D" fill="#FFEBA2"/>
   <rect height="19.12568" width="65.02732" y="92.16939" x="482.72136" stroke="#2D2D2D" fill="#FFEBA2"/>
   <rect height="15.847" width="239.89072" y="112.38797" x="163.59566" stroke="#2D2D2D" fill="#FFEBA2"/>
   <rect height="15.30055" width="272.13116" y="135.33879" x="164.14211" stroke="#2D2D2D" fill="#FFEBA2"/>
   <rect height="16.39344" width="225.13662" y="158.28961" x="270.69949" stroke="#2D2D2D" fill="#FFEBA2"/>
   <rect height="19.12568" width="135.51913" y="177.96175" x="435.18037" stroke="#2D2D2D" fill="#FFEBA2"/>
  </g>
  <g id="172349980d85453dbe54ece2d98da765-ao-2" class="qshape">
   <rect height="18.03279" width="54.64481" y="221.13115" x="112.77599" stroke="#2D2D2D" fill="#FF7E7E" class="qshape"/>
   <rect height="24.59016" width="39.34426" y="218.94535" x="235.18037" stroke="#2D2D2D" fill="#FF7E7E" class="qshape"/>
   <rect height="20.21858" width="42.62295" y="221.13115" x="425.34431" stroke="#2D2D2D" fill="#FF7E7E" class="qshape"/>
   <rect height="22.40437" width="61.74864" y="221.13115" x="657.58475" stroke="#2D2D2D" fill="#FF7E7E" class="qshape"/>
   <rect height="14.7541" width="315.84701" y="248.45355" x="260.86343" stroke="#2D2D2D" fill="#FF7E7E" class="qshape"/>
   <rect height="17.48634" width="42.0765" y="267.57924" x="235.18037" stroke="#2D2D2D" fill="#FF7E7E" class="qshape"/>
   <rect height="21.85792" width="237.70493" y="267.03279" x="328.62299" stroke="#2D2D2D" fill="#FF7E7E" class="qshape"/>
   <rect height="18.03279" width="131.69399" y="290.53006" x="111.13665" stroke="#2D2D2D" fill="#FF7E7E" class="qshape"/>
  </g>
 </g>
</svg>