<svg xmlns="http://www.w3.org/2000/svg" width="948" height="459">
 <!-- Created with Image Occlusion Enhanced -->
 <g>
  <title>Labels</title>
 </g>
 <g>
  <title>Masks</title>
  <rect id="1d33aba641c748a3bac815ebc649ebd9-ao-1" height="30.23256" width="53.48837" y="271.07754" x="816.03097" stroke="#2D2D2D" fill="#FFEBA2"/>
  <g id="1d33aba641c748a3bac815ebc649ebd9-ao-2">
   <rect height="16.27907" width="96.12403" y="19.91474" x="488.12398" stroke="#2D2D2D" fill="#FFEBA2"/>
   <rect height="15.50388" width="97.67442" y="81.15505" x="493.55034" stroke="#2D2D2D" fill="#FFEBA2"/>
  </g>
  <g id="1d33aba641c748a3bac815ebc649ebd9-ao-3">
   <rect height="17.05426" width="78.29458" y="121.46513" x="503.62786" stroke="#2D2D2D" fill="#FFEBA2"/>
   <rect height="18.60465" width="120.15504" y="198.20932" x="609.05422" stroke="#2D2D2D" fill="#FFEBA2"/>
   <rect height="27.13178" width="65.89147" y="147.04653" x="402.07747" stroke="#2D2D2D" fill="#FFEBA2"/>
   <rect height="15.50388" width="96.89923" y="115.26358" x="385.7984" stroke="#2D2D2D" fill="#FFEBA2"/>
   <rect height="31.78295" width="66.66667" y="143.17056" x="301.30227" stroke="#2D2D2D" fill="#FFEBA2"/>
   <rect height="17.82946" width="54.26357" y="198.98451" x="315.25576" stroke="#2D2D2D" fill="#FFEBA2"/>
   <rect height="15.50388" width="51.16279" y="180.37986" x="457.11623" stroke="#2D2D2D" fill="#FFEBA2"/>
  </g>
  <g id="1d33aba641c748a3bac815ebc649ebd9-ao-4" class="qshape">
   <rect height="15.50388" width="93.02326" y="305.18607" x="23.00769" stroke="#2D2D2D" fill="#FF7E7E" class="qshape"/>
   <rect height="27.13178" width="50.3876" y="310.61242" x="139.28676" stroke="#2D2D2D" fill="#FF7E7E" class="qshape"/>
  </g>
  <g id="1d33aba641c748a3bac815ebc649ebd9-ao-5">
   <rect height="13.17829" width="96.12403" y="306.73645" x="616.80615" stroke="#2D2D2D" fill="#FFEBA2"/>
   <rect height="10.85271" width="110.07752" y="367.97676" x="611.3798" stroke="#2D2D2D" fill="#FFEBA2"/>
   <rect height="18.60465" width="106.97675" y="304.41087" x="393.55033" stroke="#2D2D2D" fill="#FFEBA2"/>
  </g>
 </g>
</svg>