<svg xmlns="http://www.w3.org/2000/svg" width="1227" height="936.9999999999999">
 <!-- Created with Image Occlusion Enhanced -->
 <g>
  <title>Labels</title>
 </g>
 <g>
  <title>Masks</title>
  
  <g id="1e0e3d17d6d04bbaa1e4ac29ab69557f-ao-1">
   <rect height="177.41936" width="329.03226" y="40.41934" x="76.22582" stroke="#2D2D2D" fill="#FFEBA2"/>
   <rect height="30.64516" width="46.77419" y="653.32258" x="755.25809" stroke="#2D2D2D" fill="#FFEBA2"/>
   <rect height="30.64516" width="46.77419" y="625.90322" x="835.90325" stroke="#2D2D2D" fill="#FFEBA2"/>
   <rect height="24.19355" width="33.87097" y="543.64516" x="1121.38713" stroke="#2D2D2D" fill="#FFEBA2"/>
   <rect height="33.87097" width="35.48387" y="64.61289" x="952.03229" stroke="#2D2D2D" fill="#FFEBA2"/>
   <rect height="29.03226" width="37.09677" y="127.51612" x="618.16131" stroke="#2D2D2D" fill="#FFEBA2"/>
  </g>
  <g id="1e0e3d17d6d04bbaa1e4ac29ab69557f-ao-2" class="qshape">
   <rect height="203.22581" width="308.06452" y="275.90322" x="77.83873" stroke="#2D2D2D" fill="#FF7E7E" class="qshape"/>
   <rect height="27.41936" width="30.64516" y="583.96774" x="527.83873" stroke="#2D2D2D" fill="#FF7E7E" class="qshape"/>
   <rect height="30.64516" width="38.70968" y="272.67741" x="1106.871" stroke="#2D2D2D" fill="#FF7E7E" class="qshape"/>
  </g>
  <g id="1e0e3d17d6d04bbaa1e4ac29ab69557f-ao-3">
   <rect height="182.25807" width="317.74194" y="537.19354" x="77.83873" stroke="#2D2D2D" fill="#FFEBA2"/>
   <rect height="20.96774" width="27.41936" y="427.51612" x="824.61293" stroke="#2D2D2D" fill="#FFEBA2"/>
   <rect height="22.58065" width="32.25806" y="287.19354" x="824.61293" stroke="#2D2D2D" fill="#FFEBA2"/>
  </g>
  <g id="1e0e3d17d6d04bbaa1e4ac29ab69557f-ao-4">
   <rect height="22.58065" width="40.32258" y="369.45161" x="482.67744" stroke="#2D2D2D" fill="#FFEBA2"/>
   <rect height="30.64516" width="164.51613" y="733.96774" x="14.9355" stroke="#2D2D2D" fill="#FFEBA2"/>
   <rect height="19.35484" width="35.48387" y="112.99999" x="997.19358" stroke="#2D2D2D" fill="#FFEBA2"/>
  </g>
  <g id="1e0e3d17d6d04bbaa1e4ac29ab69557f-ao-5">
   <rect height="29.03226" width="27.41936" y="509.77419" x="426.22583" stroke="#2D2D2D" fill="#FFEBA2"/>
   <rect height="20.96774" width="33.87097" y="524.29032" x="1195.58068" stroke="#2D2D2D" fill="#FFEBA2"/>
   <rect height="48" width="192" y="852" x="12" stroke="#2D2D2D" fill="#FFEBA2"/>
  </g>
 </g>
</svg>