<svg xmlns="http://www.w3.org/2000/svg" width="876" height="628">
 <!-- Created with Image Occlusion Enhanced -->
 <g>
  <title>Labels</title>
 </g>
 <g>
  <title>Masks</title>
  <rect id="295a4b997bd8494fa048fe578e3220df-ao-1" height="14.89362" width="65.95745" y="411.14892" x="64.21276" stroke="#2D2D2D" fill="#FFEBA2"/>
  <rect id="295a4b997bd8494fa048fe578e3220df-ao-2" height="13.82979" width="88.29787" y="381.36169" x="35.48936" stroke="#2D2D2D" fill="#FFEBA2"/>
  <rect id="295a4b997bd8494fa048fe578e3220df-ao-3" height="15.95745" width="77.65957" y="350.51063" x="42.93617" stroke="#2D2D2D" fill="#FFEBA2"/>
  <rect id="295a4b997bd8494fa048fe578e3220df-ao-4" height="14.89362" width="81.91489" y="320.72339" x="37.61702" stroke="#2D2D2D" fill="#FFEBA2"/>
  <rect id="295a4b997bd8494fa048fe578e3220df-ao-5" height="31.91489" width="135.10638" y="276.04254" x="-0.68085" stroke="#2D2D2D" fill="#FFEBA2"/>
  <rect id="295a4b997bd8494fa048fe578e3220df-ao-6" height="35.10638" width="114.89362" y="195.19148" x="106.76595" stroke="#2D2D2D" fill="#FFEBA2"/>
  <rect id="295a4b997bd8494fa048fe578e3220df-ao-7" height="15.95745" width="65.95745" y="168.59573" x="179.10638" stroke="#2D2D2D" fill="#FFEBA2"/>
  <rect id="295a4b997bd8494fa048fe578e3220df-ao-8" height="21.2766" width="55.31915" y="139.87233" x="228.04255" stroke="#2D2D2D" fill="#FFEBA2"/>
  <rect id="295a4b997bd8494fa048fe578e3220df-ao-9" height="38.29787" width="98.93617" y="96.25531" x="248.25532" stroke="#2D2D2D" fill="#FFEBA2"/>
  <rect id="295a4b997bd8494fa048fe578e3220df-ao-10" height="13.82979" width="98.93617" y="100.51063" x="368.46808" stroke="#2D2D2D" fill="#FFEBA2"/>
  <rect id="295a4b997bd8494fa048fe578e3220df-ao-11" height="10.6383" width="108.51064" y="78.1702" x="417.40425" stroke="#2D2D2D" fill="#FFEBA2"/>
  <rect id="295a4b997bd8494fa048fe578e3220df-ao-12" height="28.7234" width="84.04255" y="101.57446" x="481.23404" stroke="#2D2D2D" fill="#FFEBA2"/>
  <rect id="295a4b997bd8494fa048fe578e3220df-ao-13" height="17.02128" width="89.3617" y="74.97871" x="538.68085" stroke="#2D2D2D" fill="#FFEBA2"/>
  <rect id="295a4b997bd8494fa048fe578e3220df-ao-14" height="8.51064" width="51.06383" y="104.76595" x="591.87234" stroke="#2D2D2D" fill="#FFEBA2"/>
  <rect id="295a4b997bd8494fa048fe578e3220df-ao-15" height="21.2766" width="88.29787" y="72.85105" x="635.48936" stroke="#2D2D2D" fill="#FFEBA2"/>
  <rect id="295a4b997bd8494fa048fe578e3220df-ao-16" height="12.76596" width="67.02128" y="100.51063" x="683.3617" stroke="#2D2D2D" fill="#FF7E7E" class="qshape"/>
  <rect id="295a4b997bd8494fa048fe578e3220df-ao-17" height="24.46809" width="86.17021" y="144.12765" x="762.0851" stroke="#2D2D2D" fill="#FFEBA2"/>
  <rect id="295a4b997bd8494fa048fe578e3220df-ao-18" height="31.91489" width="81.91489" y="182.42552" x="766.34042" stroke="#2D2D2D" fill="#FFEBA2"/>
  <rect id="295a4b997bd8494fa048fe578e3220df-ao-19" height="38.29787" width="60.6383" y="262.21275" x="769.53191" stroke="#2D2D2D" fill="#FFEBA2"/>
  <rect id="295a4b997bd8494fa048fe578e3220df-ao-20" height="43.61702" width="88.29787" y="312.21275" x="766.34042" stroke="#2D2D2D" fill="#FFEBA2"/>
  <rect id="295a4b997bd8494fa048fe578e3220df-ao-21" height="27.65957" width="69.14894" y="366.46807" x="766.34042" stroke="#2D2D2D" fill="#FFEBA2"/>
  <rect id="295a4b997bd8494fa048fe578e3220df-ao-22" height="19.14894" width="94.68085" y="399.4468" x="769.53191" stroke="#2D2D2D" fill="#FFEBA2"/>
  <rect id="295a4b997bd8494fa048fe578e3220df-ao-23" height="26.59574" width="87.23404" y="428.1702" x="768.46808" stroke="#2D2D2D" fill="#FFEBA2"/>
  <rect id="295a4b997bd8494fa048fe578e3220df-ao-24" height="24.46809" width="85.10638" y="466.46807" x="766.34042" stroke="#2D2D2D" fill="#FFEBA2"/>
  <rect id="295a4b997bd8494fa048fe578e3220df-ao-25" height="29.78723" width="80.85106" y="501.57446" x="770.59574" stroke="#2D2D2D" fill="#FFEBA2"/>
  <rect id="295a4b997bd8494fa048fe578e3220df-ao-26" height="31.91489" width="85.10638" y="543.06382" x="766.34042" stroke="#2D2D2D" fill="#FFEBA2"/>
  <rect id="295a4b997bd8494fa048fe578e3220df-ao-27" height="31.91489" width="71.2766" y="591.99999" x="557.82978" stroke="#2D2D2D" fill="#FFEBA2"/>
  <rect id="295a4b997bd8494fa048fe578e3220df-ao-28" height="28.7234" width="55.31915" y="586.68084" x="468.46808" stroke="#2D2D2D" fill="#FFEBA2"/>
  <rect id="295a4b997bd8494fa048fe578e3220df-ao-29" height="27.65957" width="67.02128" y="593.06382" x="372.7234" stroke="#2D2D2D" fill="#FFEBA2"/>
  <rect id="295a4b997bd8494fa048fe578e3220df-ao-30" height="44.68085" width="95.74468" y="515.40424" x="317.40425" stroke="#2D2D2D" fill="#FFEBA2"/>
  <rect id="295a4b997bd8494fa048fe578e3220df-ao-31" height="34.04255" width="59.57447" y="514.34041" x="204.63829" stroke="#2D2D2D" fill="#FFEBA2"/>
 </g>
</svg>