<svg xmlns="http://www.w3.org/2000/svg" width="845" height="353">
 <!-- Created with Image Occlusion Enhanced -->
 <g>
  <title>Labels</title>
 </g>
 <g>
  <title>Masks</title>
  <g id="33f2d9423f864a8cbd12fbcd1dccaefe-ao-1" class="qshape">
   <rect height="17.79141" width="496.31903" y="66.38649" x="159.5399" stroke="#2D2D2D" fill="#FF7E7E" class="qshape"/>
   <rect height="16.56442" width="163.19019" y="90.31287" x="180.39879" stroke="#2D2D2D" fill="#FF7E7E" class="qshape"/>
   <rect height="20.8589" width="214.72393" y="106.87729" x="213.52763" stroke="#2D2D2D" fill="#FF7E7E" class="qshape"/>
   <rect height="18.40491" width="105.52147" y="133.87115" x="238.0675" stroke="#2D2D2D" fill="#FF7E7E" class="qshape"/>
  </g>
  <g id="33f2d9423f864a8cbd12fbcd1dccaefe-ao-2">
   <rect height="17.17791" width="222.69939" y="157.79753" x="298.8037" stroke="#2D2D2D" fill="#FFEBA2"/>
   <rect height="16.56442" width="165.64417" y="178.04293" x="195.12272" stroke="#2D2D2D" fill="#FFEBA2"/>
   <rect height="11.04294" width="289.57056" y="203.8098" x="193.89572" stroke="#2D2D2D" fill="#FFEBA2"/>
  </g>
  <g id="33f2d9423f864a8cbd12fbcd1dccaefe-ao-3">
   <rect height="18.40491" width="66.25767" y="244.3006" x="351.56444" stroke="#2D2D2D" fill="#FFEBA2"/>
   <rect height="10.42945" width="198.15951" y="249.20858" x="451.56444" stroke="#2D2D2D" fill="#FFEBA2"/>
   <rect height="15.33742" width="85.88957" y="246.14109" x="738.06751" stroke="#2D2D2D" fill="#FFEBA2"/>
   <rect height="20.2454" width="99.3865" y="268.22698" x="423.95708" stroke="#2D2D2D" fill="#FFEBA2"/>
   <rect height="20.2454" width="79.7546" y="270.68097" x="549.11045" stroke="#2D2D2D" fill="#FFEBA2"/>
   <rect height="22.69939" width="79.7546" y="268.22698" x="730.70555" stroke="#2D2D2D" fill="#FFEBA2"/>
   <rect height="12.88344" width="82.82209" y="292.76686" x="157.6994" stroke="#2D2D2D" fill="#FFEBA2"/>
  </g>
  <g id="33f2d9423f864a8cbd12fbcd1dccaefe-ao-4">
   <rect height="17.79141" width="201.84049" y="313.01226" x="207.39266" stroke="#2D2D2D" fill="#FFEBA2"/>
   <rect height="15.33742" width="292.63804" y="313.01226" x="424.57057" stroke="#2D2D2D" fill="#FFEBA2"/>
   <rect height="17.17791" width="104.90798" y="313.01226" x="737.45402" stroke="#2D2D2D" fill="#FFEBA2"/>
   <rect height="14.11043" width="156.44172" y="338.16563" x="160.15339" stroke="#2D2D2D" fill="#FFEBA2"/>
  </g>
 </g>
</svg>