<svg xmlns="http://www.w3.org/2000/svg" width="861" height="360">
 <!-- Created with Image Occlusion Enhanced -->
 <g>
  <title>Labels</title>
 </g>
 <g>
  <title>Masks</title>
  <g id="35c8ec31623647abb3bc22cb43ab4432-ao-1" class="qshape">
   <rect height="20" width="86.25" y="24.625" x="161.00002" stroke="#2D2D2D" fill="#FF7E7E" class="qshape"/>
   <rect height="16.25" width="120" y="49" x="165.37502" stroke="#2D2D2D" fill="#FF7E7E" class="qshape"/>
  </g>
  <g id="35c8ec31623647abb3bc22cb43ab4432-ao-2">
   <rect height="16.875" width="111.875" y="71.5" x="168.50002" stroke="#2D2D2D" fill="#FFEBA2"/>
   <rect height="16.25" width="133.75" y="94" x="168.50002" stroke="#2D2D2D" fill="#FFEBA2"/>
   <rect height="17.5" width="94.375" y="116.5" x="207.87502" stroke="#2D2D2D" fill="#FFEBA2"/>
   <rect height="21.875" width="198.125" y="112.75" x="412.87502" stroke="#2D2D2D" fill="#FFEBA2"/>
   <rect height="16.875" width="53.75" y="116.5" x="632.87503" stroke="#2D2D2D" fill="#FFEBA2"/>
  </g>
  <g id="35c8ec31623647abb3bc22cb43ab4432-ao-3">
   <rect height="16.875" width="60.625" y="138.375" x="215.37502" stroke="#2D2D2D" fill="#FFEBA2"/>
   <rect height="14.375" width="124.375" y="161.5" x="252.87502" stroke="#2D2D2D" fill="#FFEBA2"/>
   <rect height="17.5" width="41.25" y="159" x="421.62502" stroke="#2D2D2D" fill="#FFEBA2"/>
   <rect height="17.5" width="105.625" y="161.5" x="572.87503" stroke="#2D2D2D" fill="#FFEBA2"/>
  </g>
  <g id="35c8ec31623647abb3bc22cb43ab4432-ao-4">
   <rect height="16.25" width="121.875" y="205.25" x="250.37502" stroke="#2D2D2D" fill="#FFEBA2"/>
   <rect height="18.75" width="95.625" y="204.625" x="502.87502" stroke="#2D2D2D" fill="#FFEBA2"/>
   <rect height="15.625" width="111.25" y="205.25" x="681.62503" stroke="#2D2D2D" fill="#FFEBA2"/>
  </g>
  <g id="35c8ec31623647abb3bc22cb43ab4432-ao-5">
   <rect height="16.875" width="81.25" y="249.625" x="411.62502" stroke="#2D2D2D" fill="#FFEBA2"/>
   <rect height="15.625" width="176.875" y="250.25" x="574.12503" stroke="#2D2D2D" fill="#FFEBA2"/>
   <rect height="21.25" width="165.625" y="270.875" x="236.00002" stroke="#2D2D2D" fill="#FFEBA2"/>
   <rect height="14.375" width="113.125" y="274" x="424.12502" stroke="#2D2D2D" fill="#FFEBA2"/>
   <rect height="18.75" width="139.375" y="271.5" x="626.00003" stroke="#2D2D2D" fill="#FFEBA2"/>
   <rect height="17.5" width="106.25" y="295.875" x="306.62502" stroke="#2D2D2D" fill="#FFEBA2"/>
   <rect height="15.625" width="135" y="296.5" x="568.50003" stroke="#2D2D2D" fill="#FFEBA2"/>
   <rect height="15" width="193.125" y="316.5" x="168.50002" stroke="#2D2D2D" fill="#FFEBA2"/>
   <rect height="15" width="105" y="341.5" x="318.50002" stroke="#2D2D2D" fill="#FFEBA2"/>
   <rect height="19.375" width="147.5" y="338.375" x="442.87502" stroke="#2D2D2D" fill="#FFEBA2"/>
  </g>
 </g>
</svg>