<svg xmlns="http://www.w3.org/2000/svg" width="1381" height="790">
 <!-- Created with Image Occlusion Enhanced -->
 <g>
  <title>Labels</title>
 </g>
 <g>
  <title>Masks</title>
  <rect id="385dad0214a548f2bc72d1b7cbc31c55-ao-1" height="53.33333" width="204" y="579.6" x="1127.53333" stroke="#2D2D2D" fill="#FFEBA2"/>
  <rect id="385dad0214a548f2bc72d1b7cbc31c55-ao-2" height="57.33333" width="280" y="691.6" x="1079.53333" stroke="#2D2D2D" fill="#FFEBA2"/>
  <rect id="385dad0214a548f2bc72d1b7cbc31c55-ao-3" height="134.66667" width="381.33333" y="592.93333" x="622.2" stroke="#2D2D2D" fill="#FFEBA2"/>
  <rect id="385dad0214a548f2bc72d1b7cbc31c55-ao-4" height="174.66667" width="301.33333" y="191.6" x="650.2" stroke="#2D2D2D" fill="#FFEBA2"/>
  <rect id="385dad0214a548f2bc72d1b7cbc31c55-ao-5" height="102.66667" width="202.66667" y="398.26667" x="498.2" stroke="#2D2D2D" fill="#FFEBA2"/>
  <rect id="385dad0214a548f2bc72d1b7cbc31c55-ao-6" height="80" width="153.33333" y="446.26667" x="319.53333" stroke="#2D2D2D" fill="#FFEBA2"/>
  <g id="385dad0214a548f2bc72d1b7cbc31c55-ao-7">
   <rect height="109.33333" width="153.33333" y="100.93333" x="1094.2" stroke="#2D2D2D" fill="#FFEBA2"/>
   <rect stroke="#2D2D2D" height="44" width="118.66667" y="211.6" x="1239.53333" fill="#FFEBA2"/>
  </g>
  <g id="385dad0214a548f2bc72d1b7cbc31c55-ao-8">
   <rect height="65.33333" width="165.33333" y="611.6" x="396.86667" stroke="#2D2D2D" fill="#FFEBA2"/>
   <rect height="40" width="133.33333" y="719.6" x="410.2" stroke="#2D2D2D" fill="#FFEBA2"/>
  </g>
  <g id="385dad0214a548f2bc72d1b7cbc31c55-ao-9" class="qshape">
   <rect height="106.66667" width="268" y="195.6" x="311.53333" stroke="#2D2D2D" fill="#FF7E7E" class="qshape"/>
   <rect height="38.66667" width="124" y="351.6" x="350.2" stroke="#2D2D2D" fill="#FF7E7E" class="qshape"/>
  </g>
  <g id="385dad0214a548f2bc72d1b7cbc31c55-ao-10">
   <rect height="29.33333" width="141.33333" y="202.26667" x="118.2" stroke="#2D2D2D" fill="#FFEBA2"/>
   <rect height="24" width="68" y="231.6" x="26.2" stroke="#2D2D2D" fill="#FFEBA2"/>
   <rect height="16" width="154.66667" y="234.26667" x="104.86667" stroke="#2D2D2D" fill="#FFEBA2"/>
   <rect height="17.33333" width="225.33333" y="258.26667" x="34.2" stroke="#2D2D2D" fill="#FFEBA2"/>
   <rect height="13.33333" width="158.66667" y="280.93333" x="39.53333" stroke="#2D2D2D" fill="#FFEBA2"/>
  </g>
  <g id="385dad0214a548f2bc72d1b7cbc31c55-ao-11">
   <rect height="25.33333" width="138.66667" y="308.93333" x="126.2" stroke="#2D2D2D" fill="#FFEBA2"/>
   <rect height="20" width="241.33333" y="339.6" x="28.86667" stroke="#2D2D2D" fill="#FFEBA2"/>
   <rect height="16" width="220" y="366.26667" x="32.86667" stroke="#2D2D2D" fill="#FFEBA2"/>
   <rect height="18.66667" width="140" y="387.6" x="27.53333" stroke="#2D2D2D" fill="#FFEBA2"/>
   <rect height="16" width="112" y="387.6" x="178.2" stroke="#2D2D2D" fill="#FFEBA2"/>
   <rect height="24" width="124" y="412.93333" x="32.86667" stroke="#2D2D2D" fill="#FFEBA2"/>
  </g>
  <g id="385dad0214a548f2bc72d1b7cbc31c55-ao-12">
   <rect height="18.66667" width="136" y="471.6" x="30.2" stroke="#2D2D2D" fill="#FFEBA2"/>
   <rect height="21.33333" width="64" y="472.93333" x="178.2" stroke="#2D2D2D" fill="#FFEBA2"/>
   <rect height="14.66667" width="86.66667" y="500.93333" x="32.86667" stroke="#2D2D2D" fill="#FFEBA2"/>
  </g>
  <g id="385dad0214a548f2bc72d1b7cbc31c55-ao-13">
   <rect height="25.33333" width="84" y="531.6" x="206.2" stroke="#2D2D2D" fill="#FFEBA2"/>
   <rect height="21.33333" width="190.66667" y="558.26667" x="34.2" stroke="#2D2D2D" fill="#FFEBA2"/>
   <rect height="14.66667" width="64" y="555.6" x="236.86667" stroke="#2D2D2D" fill="#FFEBA2"/>
   <rect height="13.33333" width="162.66667" y="583.6" x="26.2" stroke="#2D2D2D" fill="#FFEBA2"/>
   <rect height="13.33333" width="77.33333" y="579.6" x="199.53333" stroke="#2D2D2D" fill="#FFEBA2"/>
   <rect height="14.66667" width="78.66667" y="607.6" x="35.53333" stroke="#2D2D2D" fill="#FFEBA2"/>
   <rect height="17.33333" width="48" y="604.93333" x="126.2" stroke="#2D2D2D" fill="#FFEBA2"/>
   <rect height="18.66667" width="77.33333" y="604.93333" x="204.86667" stroke="#2D2D2D" fill="#FFEBA2"/>
   <rect height="20" width="48" y="626.26667" x="28.86667" stroke="#2D2D2D" fill="#FFEBA2"/>
   <rect height="24" width="56" y="627.6" x="112.86667" stroke="#2D2D2D" fill="#FFEBA2"/>
  </g>
 </g>
</svg>