<svg xmlns="http://www.w3.org/2000/svg" width="843.9999999999999" height="334">
 <!-- Created with Image Occlusion Enhanced -->
 <g>
  <title>Labels</title>
 </g>
 <g>
  <title>Masks</title>
  <rect id="44a49a6896884a5884d22ebed648abc5-ao-1" height="85.27608" width="723.9264" y="112.25768" x="115.50922" stroke="#2D2D2D" fill="#FF7E7E" class="qshape"/>
  <g id="44a49a6896884a5884d22ebed648abc5-ao-2">
   <rect height="22.08589" width="36.19632" y="18.39265" x="378.08592" stroke="#2D2D2D" fill="#FFEBA2"/>
   <rect height="15.33742" width="233.74234" y="44.15952" x="228.39266" stroke="#2D2D2D" fill="#FFEBA2"/>
   <rect height="15.33742" width="266.87117" y="67.47241" x="227.77916" stroke="#2D2D2D" fill="#FFEBA2"/>
  </g>
  <g id="44a49a6896884a5884d22ebed648abc5-ao-3">
   <rect height="19.6319" width="44.78528" y="243.54603" x="251.70554" stroke="#2D2D2D" fill="#FFEBA2"/>
   <rect height="13.49693" width="92.63804" y="225.75462" x="333.91413" stroke="#2D2D2D" fill="#FFEBA2"/>
   <rect height="17.79141" width="90.79755" y="222.68713" x="529.00617" stroke="#2D2D2D" fill="#FFEBA2"/>
   <rect height="13.49693" width="60.7362" y="225.14112" x="657.22703" stroke="#2D2D2D" fill="#FFEBA2"/>
   <rect height="12.26994" width="67.48466" y="225.14112" x="754.15955" stroke="#2D2D2D" fill="#FFEBA2"/>
   <rect height="13.49693" width="73.61963" y="247.84051" x="159.0675" stroke="#2D2D2D" fill="#FFEBA2"/>
   <rect height="19.01841" width="74.84663" y="243.54603" x="493.42334" stroke="#2D2D2D" fill="#FFEBA2"/>
  </g>
  <g id="44a49a6896884a5884d22ebed648abc5-ao-4">
   <rect height="19.6319" width="30.67485" y="288.33131" x="471.33745" stroke="#2D2D2D" fill="#FFEBA2"/>
   <rect height="19.01841" width="73.00614" y="290.7853" x="572.56445" stroke="#2D2D2D" fill="#FFEBA2"/>
   <rect height="14.72393" width="53.98773" y="291.39879" x="777.47243" stroke="#2D2D2D" fill="#FFEBA2"/>
   <rect height="15.95092" width="232.51534" y="312.25769" x="154.15953" stroke="#2D2D2D" fill="#FFEBA2"/>
   <rect height="16.56442" width="161.3497" y="312.87119" x="425.93868" stroke="#2D2D2D" fill="#FFEBA2"/>
  </g>
 </g>
</svg>