<svg xmlns="http://www.w3.org/2000/svg" width="1290" height="728">
 <!-- Created with Image Occlusion Enhanced -->
 <g>
  <title>Labels</title>
 </g>
 <g>
  <title>Masks</title>
  <g id="6039c9be06e8485fbd8bb571f4641620-ao-1" class="qshape">
   <rect height="24.69136" width="129.62963" y="150.0247" x="228.27155" stroke="#2D2D2D" fill="#FF7E7E" class="qshape"/>
   <rect height="24.69136" width="174.07408" y="150.0247" x="507.2839" stroke="#2D2D2D" fill="#FF7E7E" class="qshape"/>
   <rect height="24.69136" width="12.34568" y="150.0247" x="692.46909" stroke="#2D2D2D" fill="#FF7E7E" class="qshape"/>
   <rect height="29.62963" width="14.81481" y="150.0247" x="715.92588" stroke="#2D2D2D" fill="#FF7E7E" class="qshape"/>
   <rect height="25.92593" width="76.54321" y="178.41976" x="229.50612" stroke="#2D2D2D" fill="#FF7E7E" class="qshape"/>
   <rect height="19.75309" width="71.60494" y="180.8889" x="329.50612" stroke="#2D2D2D" fill="#FF7E7E" class="qshape"/>
   <rect height="27.16049" width="112.34568" y="174.71606" x="452.96292" stroke="#2D2D2D" fill="#FF7E7E" class="qshape"/>
   <rect height="19.75309" width="111.11111" y="209.28396" x="292.46909" stroke="#2D2D2D" fill="#FF7E7E" class="qshape"/>
   <rect height="27.16049" width="56.79012" y="240.14816" x="289.99995" stroke="#2D2D2D" fill="#FF7E7E" class="qshape"/>
  </g>
  <g id="6039c9be06e8485fbd8bb571f4641620-ao-2">
   <rect height="25.92593" width="90.12346" y="533.97532" x="166.54316" stroke="#2D2D2D" fill="#FFEBA2"/>
   <rect height="20.98765" width="158.02469" y="564.83952" x="319.62958" stroke="#2D2D2D" fill="#FFEBA2"/>
   <rect height="23.45679" width="83.95062" y="595.70372" x="245.55551" stroke="#2D2D2D" fill="#FFEBA2"/>
   <rect height="19.75309" width="80.24691" y="594.46915" x="377.65427" stroke="#2D2D2D" fill="#FFEBA2"/>
   <rect height="24.69136" width="165.4321" y="626.56792" x="162.83945" stroke="#2D2D2D" fill="#FFEBA2"/>
  </g>
  <g id="6039c9be06e8485fbd8bb571f4641620-ao-3">
   <rect height="18.51852" width="197.53087" y="178.41976" x="938.14811" stroke="#2D2D2D" fill="#FFEBA2"/>
   <rect stroke="#2D2D2D" height="23.45679" width="209.87655" y="205.58026" x="936.91354" fill="#FFEBA2"/>
   <rect height="25.92593" width="22.22222" y="204.34569" x="1154.19749" stroke="#2D2D2D" fill="#FFEBA2"/>
   <rect height="18.51852" width="188.88889" y="235.20989" x="1027.037" stroke-linecap="null" stroke-linejoin="null" stroke-dasharray="null" stroke="#2D2D2D" fill="#FFEBA2"/>
   <rect height="18.51852" width="162.96296" y="268.54322" x="928.27156" stroke-linecap="null" stroke-linejoin="null" stroke-dasharray="null" stroke="#2D2D2D" fill="#FFEBA2"/>
   <rect height="25.92593" width="118.51852" y="293.23458" x="948.02465" stroke-linecap="null" stroke-linejoin="null" stroke-dasharray="null" stroke="#2D2D2D" fill="#FFEBA2"/>
  </g>
 </g>
</svg>