<svg xmlns="http://www.w3.org/2000/svg" width="1095" height="714">
 <!-- Created with Image Occlusion Enhanced -->
 <g>
  <title>Labels</title>
 </g>
 <g>
  <title>Masks</title>
  <rect id="6767195d4874405989940505270c978c-ao-1" height="53.01205" width="127.71085" y="206.48193" x="172.22895" stroke="#2D2D2D" fill="#FFEBA2"/>
  <rect id="6767195d4874405989940505270c978c-ao-2" height="21.68675" width="83.13253" y="554.67471" x="291.50606" stroke="#2D2D2D" fill="#FFEBA2"/>
  <rect id="6767195d4874405989940505270c978c-ao-3" height="33.73494" width="130.12049" y="288.40965" x="908.37355" stroke="#2D2D2D" fill="#FFEBA2"/>
  <rect id="6767195d4874405989940505270c978c-ao-4" height="25.30121" width="109.63856" y="504.0723" x="890.30126" stroke="#2D2D2D" fill="#FFEBA2"/>
  <rect id="6767195d4874405989940505270c978c-ao-5" height="15.66265" width="143.3735" y="542.62652" x="881.86752" stroke="#2D2D2D" fill="#FF7E7E" class="qshape"/>
  <rect id="6767195d4874405989940505270c978c-ao-6" height="22.89157" width="134.93976" y="589.61447" x="886.6868" stroke="#2D2D2D" fill="#FFEBA2"/>
  <rect id="6767195d4874405989940505270c978c-ao-7" height="13.25301" width="96.38554" y="620.93977" x="422.83137" stroke="#2D2D2D" fill="#FFEBA2"/>
  <rect id="6767195d4874405989940505270c978c-ao-8" height="13.25301" width="119.27711" y="654.67472" x="424.03619" stroke="#2D2D2D" fill="#FFEBA2"/>
  <rect id="6767195d4874405989940505270c978c-ao-9" height="42.16868" width="49.39759" y="476.36146" x="440.90366" stroke="#2D2D2D" fill="#FFEBA2"/>
  <rect id="6767195d4874405989940505270c978c-ao-10" height="34.93976" width="95.18073" y="528.16869" x="410.78317" stroke="#2D2D2D" fill="#FFEBA2"/>
  <rect id="6767195d4874405989940505270c978c-ao-11" height="16.86747" width="153.01205" y="583.59038" x="350.54221" stroke="#2D2D2D" fill="#FFEBA2"/>
  <rect id="6767195d4874405989940505270c978c-ao-12" height="24.09639" width="168.6747" y="423.34941" x="898.73499" stroke="#2D2D2D" fill="#FFEBA2"/>
  <rect id="6767195d4874405989940505270c978c-ao-13" height="14.45783" width="102.40964" y="452.26507" x="893.91572" stroke="#2D2D2D" fill="#FFEBA2"/>
  <rect id="6767195d4874405989940505270c978c-ao-14" height="15.66265" width="125.30121" y="477.56628" x="890.30126" stroke="#2D2D2D" fill="#FFEBA2"/>
  <rect id="6767195d4874405989940505270c978c-ao-15" height="20.48193" width="124.09639" y="207.68675" x="914.39764" stroke="#2D2D2D" fill="#FFEBA2"/>
  <rect id="6767195d4874405989940505270c978c-ao-16" height="18.07229" width="80.72289" y="263.10844" x="915.60246" stroke="#2D2D2D" fill="#FFEBA2"/>
  <rect id="6767195d4874405989940505270c978c-ao-17" height="14.45783" width="148.19278" y="105.27711" x="701.14463" stroke="#2D2D2D" fill="#FFEBA2"/>
  <rect id="6767195d4874405989940505270c978c-ao-18" height="10.84337" width="143.3735" y="124.55422" x="736.08439" stroke="#2D2D2D" fill="#FFEBA2"/>
  <rect id="6767195d4874405989940505270c978c-ao-19" height="10.84337" width="119.27711" y="87.20482" x="666.20487" stroke="#2D2D2D" fill="#FFEBA2"/>
 </g>
</svg>