<svg xmlns="http://www.w3.org/2000/svg" width="1139" height="640">
 <!-- Created with Image Occlusion Enhanced -->
 <g>
  <title>Labels</title>
 </g>
 <g>
  <title>Masks</title>
  <rect fill="#FFEBA2" stroke="#2D2D2D" x="109.47824" y="188.69567" width="308.69566" height="32.6087" id="67de1c1dd7374410b46752098b8fa834-ao-1"/>
  <rect fill="#FFEBA2" stroke="#2D2D2D" x="108.39129" y="270.21741" width="325.00001" height="26.08696" id="67de1c1dd7374410b46752098b8fa834-ao-2"/>
  <rect fill="#FFEBA2" stroke="#2D2D2D" x="108.39129" y="493.0435" width="411.95653" height="47.82609" id="67de1c1dd7374410b46752098b8fa834-ao-3"/>
  <rect fill="#FF7E7E" stroke="#2D2D2D" x="109.47824" y="599.56524" width="425.00001" height="26.08696" id="67de1c1dd7374410b46752098b8fa834-ao-4" class="qshape"/>
  <rect fill="#FFEBA2" stroke="#2D2D2D" x="997.52174" y="162.60871" width="68.47826" height="35.86957" id="67de1c1dd7374410b46752098b8fa834-ao-7"/>
  <rect fill="#FFEBA2" stroke="#2D2D2D" x="583.3913" y="258.26089" width="104.34783" height="58.69565" id="67de1c1dd7374410b46752098b8fa834-ao-8"/>
  <rect fill="#FFEBA2" stroke="#2D2D2D" x="589.91304" y="210.4348" width="88.04348" height="30.43478" id="67de1c1dd7374410b46752098b8fa834-ao-9"/>
  <rect fill="#FFEBA2" stroke="#2D2D2D" x="592.08695" y="163.69567" width="98.91305" height="39.13044" id="67de1c1dd7374410b46752098b8fa834-ao-10"/>
  <rect fill="#FFEBA2" stroke="#2D2D2D" x="793.17391" y="433.26089" width="77.17391" height="15.21739" id="67de1c1dd7374410b46752098b8fa834-ao-11"/>
  <rect fill="#FFEBA2" stroke="#2D2D2D" x="795.34782" y="456.08698" width="45.65217" height="13.04348" id="67de1c1dd7374410b46752098b8fa834-ao-12"/>
  <rect fill="#FFEBA2" stroke="#2D2D2D" x="918.17391" y="406.08698" width="139.13044" height="68.47826" id="67de1c1dd7374410b46752098b8fa834-ao-13"/>
  <rect fill="#FFEBA2" stroke="#2D2D2D" x="794.26087" y="473.47828" width="61.95652" height="11.95652" id="67de1c1dd7374410b46752098b8fa834-ao-14"/>
  <rect fill="#FFEBA2" stroke="#2D2D2D" x="793.17391" y="493.0435" width="67.39131" height="10.86957" id="67de1c1dd7374410b46752098b8fa834-ao-15"/>
  <rect fill="#FFEBA2" stroke="#2D2D2D" x="794.26087" y="506.08698" width="84.78261" height="15.21739" id="67de1c1dd7374410b46752098b8fa834-ao-16"/>
  <g id="67de1c1dd7374410b46752098b8fa834-ao-17">
   <rect fill="#FFEBA2" stroke="#2D2D2D" x="111.65216" y="352.82611" width="394.56523" height="53.26087"/>
   <rect fill="#FFEBA2" stroke="#2D2D2D" x="109.47824" y="419.13046" width="252.17392" height="21.73913"/>
  </g>
  <g id="67de1c1dd7374410b46752098b8fa834-ao-5">
   <rect fill="#FFEBA2" stroke="#2D2D2D" x="900.78261" y="559.34785" width="201.08696" height="25"/>
   <rect fill="#FFEBA2" stroke="#2D2D2D" x="570.34782" y="587.60872" width="542.39132" height="41.30435"/>
  </g>
 </g>
</svg>