<svg xmlns="http://www.w3.org/2000/svg" width="993.0000000000001" height="755">
 <!-- Created with Image Occlusion Enhanced -->
 <g>
  <title>Labels</title>
 </g>
 <g>
  <title>Masks</title>
  <g id="68c470fb284f477da52557f365041c26-ao-1">
   <rect height="34.61539" width="147.4359" y="368.5897" x="55.97439" stroke="#2D2D2D" fill="#FFEBA2"/>
   <rect height="30.76923" width="55.12821" y="372.43585" x="225.20516" stroke="#2D2D2D" fill="#FFEBA2"/>
   <rect height="41.02564" width="98.71795" y="367.30765" x="307.25645" stroke="#2D2D2D" fill="#FFEBA2"/>
   <rect height="34.61539" width="103.84616" y="371.1538" x="632.89748" stroke="#2D2D2D" fill="#FFEBA2"/>
   <rect height="32.05128" width="69.23077" y="373.7179" x="757.25646" stroke="#2D2D2D" fill="#FFEBA2"/>
   <rect height="30.76923" width="64.10257" y="373.7179" x="845.718" stroke="#2D2D2D" fill="#FFEBA2"/>
   <rect height="29.48718" width="37.17949" y="374.99995" x="931.61544" stroke="#2D2D2D" fill="#FFEBA2"/>
  </g>
  <g id="68c470fb284f477da52557f365041c26-ao-2">
   <rect height="28.20513" width="146.15385" y="219.87174" x="140.58978" stroke="#2D2D2D" fill="#FFEBA2"/>
   <rect height="30.76923" width="92.30769" y="217.30764" x="338.02568" stroke="#2D2D2D" fill="#FFEBA2"/>
   <rect height="29.48718" width="51.28205" y="249.35892" x="620.07697" stroke="#2D2D2D" fill="#FFEBA2"/>
   <rect height="23.07692" width="74.35898" y="314.74354" x="514.94876" stroke="#2D2D2D" fill="#FFEBA2"/>
  </g>
  
  <g id="68c470fb284f477da52557f365041c26-ao-4">
   <rect height="33.33333" width="135.89744" y="617.30765" x="108.53849" stroke-linecap="null" stroke-linejoin="null" stroke-dasharray="null" stroke="#2D2D2D" fill="#FFEBA2"/>
   <rect height="26.92308" width="326.92309" y="651.92304" x="67.51285" stroke-linecap="null" stroke-linejoin="null" stroke-dasharray="null" stroke="#2D2D2D" fill="#FFEBA2"/>
   <rect height="25.64103" width="185.89744" y="653.20509" x="635.46158" stroke-linecap="null" stroke-linejoin="null" stroke-dasharray="null" stroke="#2D2D2D" fill="#FFEBA2"/>
   <rect height="20.51282" width="193.58975" y="683.97432" x="703.4103" stroke-linecap="null" stroke-linejoin="null" stroke-dasharray="null" stroke="#2D2D2D" fill="#FFEBA2"/>
   <rect height="24.35898" width="91.02564" y="710.8974" x="464.94876" stroke-linecap="null" stroke-linejoin="null" stroke-dasharray="null" stroke="#2D2D2D" fill="#FFEBA2"/>
  </g>
 </g>
</svg>