<svg xmlns="http://www.w3.org/2000/svg" width="842" height="292">
 <!-- Created with Image Occlusion Enhanced -->
 <g>
  <title>Labels</title>
 </g>
 <g>
  <title>Masks</title>
  <g id="6a852d5e9410445fa63be85db091e40e-ao-1">
   <rect height="13.41463" width="168.90244" y="23.7317" x="109.82926" stroke="#2D2D2D" fill="#FFEBA2"/>
   <rect height="20.12195" width="202.43902" y="45.07317" x="139.09756" stroke="#2D2D2D" fill="#FFEBA2"/>
  </g>
  <g id="6a852d5e9410445fa63be85db091e40e-ao-2" class="qshape">
   <rect height="18.90244" width="498.78049" y="88.97561" x="325.68292" stroke="#2D2D2D" fill="#FF7E7E" class="qshape"/>
   <rect height="19.5122" width="178.65854" y="110.92682" x="112.87805" stroke="#2D2D2D" fill="#FF7E7E" class="qshape"/>
   <rect height="17.68293" width="67.68293" y="113.36585" x="638.4878" stroke="#2D2D2D" fill="#FF7E7E" class="qshape"/>
   <rect height="15.85366" width="206.70732" y="135.92682" x="248.2439" stroke="#2D2D2D" fill="#FF7E7E" class="qshape"/>
   <rect height="15.85366" width="239.02439" y="135.92682" x="557.39024" stroke="#2D2D2D" fill="#FF7E7E" class="qshape"/>
   <rect height="17.07317" width="82.31707" y="156.65853" x="297.02439" stroke="#2D2D2D" fill="#FF7E7E" class="qshape"/>
  </g>
  <g id="6a852d5e9410445fa63be85db091e40e-ao-3">
   <rect height="17.68293" width="109.7561" y="201.78048" x="339.70731" stroke="#2D2D2D" fill="#FFEBA2"/>
   <rect height="15.85366" width="170.12195" y="204.21951" x="472.63414" stroke="#2D2D2D" fill="#FFEBA2"/>
   <rect height="16.46341" width="33.53659" y="201.78048" x="693.36585" stroke="#2D2D2D" fill="#FFEBA2"/>
   <rect height="18.90244" width="235.36585" y="224.34146" x="118.36585" stroke="#2D2D2D" fill="#FFEBA2"/>
   <rect height="15.2439" width="251.82927" y="249.95121" x="334.82926" stroke="#2D2D2D" fill="#FFEBA2"/>
   <rect height="12.19512" width="184.14634" y="250.56097" x="608.60975" stroke="#2D2D2D" fill="#FFEBA2"/>
   <rect height="17.07317" width="448.17073" y="269.46341" x="168.36585" stroke="#2D2D2D" fill="#FFEBA2"/>
  </g>
 </g>
</svg>