<svg xmlns="http://www.w3.org/2000/svg" width="829" height="479">
 <!-- Created with Image Occlusion Enhanced -->
 <g>
  <title>Labels</title>
 </g>
 <g>
  <title>Masks</title>
  
  <rect id="78997efd53b14b9f8bb57bed8cf6ede6-ao-2" height="18.69919" width="413.82115" y="364.08946" x="196.04066" stroke="#2D2D2D" fill="#FFEBA2"/>
  <g id="78997efd53b14b9f8bb57bed8cf6ede6-ao-3">
   <rect height="21.95122" width="608.94311" y="43.76424" x="213.92684" stroke="#2D2D2D" fill="#FFEBA2"/>
   <rect height="18.69919" width="126.82927" y="68.15449" x="119.6179" stroke="#2D2D2D" fill="#FFEBA2"/>
  </g>
  <g id="78997efd53b14b9f8bb57bed8cf6ede6-ao-4">
   <rect height="18.69919" width="38.21138" y="90.10571" x="226.93497" stroke="#2D2D2D" fill="#FFEBA2"/>
   <rect height="22.76423" width="91.86992" y="90.10571" x="317.99189" stroke="#2D2D2D" fill="#FFEBA2"/>
   <rect height="14.63415" width="206.50407" y="92.54473" x="487.91059" stroke="#2D2D2D" fill="#FFEBA2"/>
   <rect height="17.88618" width="98.37399" y="114.49595" x="273.27644" stroke="#2D2D2D" fill="#FFEBA2"/>
   <rect height="17.88618" width="199.187" y="135.63416" x="161.89432" stroke="#2D2D2D" fill="#FFEBA2"/>
  </g>
  <g id="78997efd53b14b9f8bb57bed8cf6ede6-ao-5">
   <rect height="19.5122" width="452.03253" y="223.43904" x="335.87807" stroke="#2D2D2D" fill="#FFEBA2"/>
   <rect height="12.19512" width="120.32521" y="251.08132" x="465.95937" stroke="#2D2D2D" fill="#FFEBA2"/>
   <rect height="15.44715" width="100" y="273.03254" x="546.44718" stroke="#2D2D2D" fill="#FFEBA2"/>
   <rect height="22.76423" width="73.98374" y="291.73173" x="317.99189" stroke="#2D2D2D" fill="#FFEBA2"/>
   <rect height="17.07317" width="70.73171" y="319.37401" x="448.8862" stroke="#2D2D2D" fill="#FFEBA2"/>
   <rect height="19.5122" width="91.05691" y="317.74799" x="712.30084" stroke="#2D2D2D" fill="#FFEBA2"/>
  </g>
  <g id="78997efd53b14b9f8bb57bed8cf6ede6-ao-6">
   <rect height="15.44715" width="61.78862" y="409.61791" x="487.91059" stroke="#2D2D2D" fill="#FFEBA2"/>
   <rect height="17.07317" width="71.54472" y="410.43092" x="721.24393" stroke="#2D2D2D" fill="#FFEBA2"/>
   <rect height="13.82114" width="210.56911" y="436.44718" x="157.82928" stroke="#2D2D2D" fill="#FFEBA2"/>
   <rect height="13.00813" width="69.10569" y="457.58539" x="500.10571" stroke="#2D2D2D" fill="#FFEBA2"/>
  </g>
 </g>
</svg>