<svg xmlns="http://www.w3.org/2000/svg" width="1137" height="786">
 <!-- Created with Image Occlusion Enhanced -->
 <g>
  <title>Labels</title>
 </g>
 <g>
  <title>Masks</title>
  <g id="8010452b8bd64731afdb6acb23b2efac-ao-1">
   <rect height="18.66667" width="202.66667" y="64.93333" x="183" stroke="#2D2D2D" fill="#FFEBA2"/>
   <rect height="22.66667" width="36" y="87.6" x="147" stroke="#2D2D2D" fill="#FFEBA2"/>
   <rect height="16" width="138.66667" y="87.6" x="216.33333" stroke="#2D2D2D" fill="#FFEBA2"/>
  </g>
  <g id="8010452b8bd64731afdb6acb23b2efac-ao-2">
   <rect height="18.66667" width="298.66667" y="134.26667" x="187" stroke="#2D2D2D" fill="#FFEBA2"/>
   <rect height="18.66667" width="86.66667" y="155.6" x="145.66667" stroke="#2D2D2D" fill="#FFEBA2"/>
   <rect height="18.66667" width="108" y="154.26667" x="243" stroke="#2D2D2D" fill="#FFEBA2"/>
  </g>
  <g id="8010452b8bd64731afdb6acb23b2efac-ao-3">
   <rect height="25.33333" width="136" y="198.26667" x="195" stroke="#2D2D2D" fill="#FFEBA2"/>
   <rect height="13.33333" width="129.33333" y="224.93333" x="203" stroke="#2D2D2D" fill="#FFEBA2"/>
   <rect height="17.33333" width="80" y="243.6" x="195" stroke="#2D2D2D" fill="#FFEBA2"/>
  </g>
  <g id="8010452b8bd64731afdb6acb23b2efac-ao-4">
   <rect height="17.33333" width="112" y="270.26667" x="424.33333" stroke="#2D2D2D" fill="#FFEBA2"/>
   <rect height="18.66667" width="201.33333" y="290.26667" x="265.66667" stroke="#2D2D2D" fill="#FFEBA2"/>
  </g>
  
  <g id="8010452b8bd64731afdb6acb23b2efac-ao-6">
   <rect height="21.33333" width="41.33333" y="446.26667" x="205.66667" stroke="#2D2D2D" fill="#FFEBA2"/>
   <rect height="22.66667" width="102.66667" y="446.26667" x="455" stroke="#2D2D2D" fill="#FFEBA2"/>
   <rect height="34.66667" width="136" y="440.93333" x="593.66667" stroke="#2D2D2D" fill="#FFEBA2"/>
   <rect height="25.33333" width="129.33333" y="444.93333" x="789.66667" stroke="#2D2D2D" fill="#FFEBA2"/>
   <rect height="24" width="133.33333" y="464.93333" x="284.33333" stroke="#2D2D2D" fill="#FFEBA2"/>
  </g>
  <g id="8010452b8bd64731afdb6acb23b2efac-ao-7">
   <rect height="28" width="84" y="534.26667" x="423" stroke="#2D2D2D" fill="#FFEBA2"/>
   <rect height="25.33333" width="100" y="535.6" x="541.66667" stroke="#2D2D2D" fill="#FFEBA2"/>
   <rect height="24" width="48" y="556.93333" x="376.33333" stroke="#2D2D2D" fill="#FFEBA2"/>
  </g>
  <g id="8010452b8bd64731afdb6acb23b2efac-ao-8">
   <rect height="24" width="74.66667" y="603.6" x="424.33333" stroke="#2D2D2D" fill="#FFEBA2"/>
   <rect height="26.66667" width="93.33333" y="604.93333" x="541.66667" stroke="#2D2D2D" fill="#FFEBA2"/>
   <rect height="25.33333" width="64" y="626.26667" x="371" stroke="#2D2D2D" fill="#FFEBA2"/>
  </g>
  <g id="8010452b8bd64731afdb6acb23b2efac-ao-9">
   <rect height="22.66667" width="128" y="672.93333" x="296.33333" stroke="#2D2D2D" fill="#FFEBA2"/>
   <rect height="13.33333" width="153.33333" y="699.6" x="292.33333" stroke="#2D2D2D" fill="#FFEBA2"/>
  </g>
  <g id="8010452b8bd64731afdb6acb23b2efac-ao-10">
   <rect height="20" width="356" y="739.6" x="329.66667" stroke="#2D2D2D" fill="#FFEBA2"/>
   <rect height="17.33333" width="120" y="763.6" x="160.33333" stroke="#2D2D2D" fill="#FFEBA2"/>
  </g>
 </g>
</svg>