<svg xmlns="http://www.w3.org/2000/svg" width="835" height="333">
 <!-- Created with Image Occlusion Enhanced -->
 <g>
  <title>Labels</title>
 </g>
 <g>
  <title>Masks</title>
  <rect id="81a63ef4c73944c993bf24e65257d73e-ao-1" height="14.54545" width="240.60606" y="46.63635" x="191.78788" stroke="#2D2D2D" fill="#FF7E7E" class="qshape"/>
  <rect id="81a63ef4c73944c993bf24e65257d73e-ao-2" height="18.78788" width="164.24242" y="133.90908" x="208.75758" stroke="#2D2D2D" fill="#FFEBA2"/>
  <rect id="81a63ef4c73944c993bf24e65257d73e-ao-3" height="18.78788" width="232.72727" y="179.96969" x="190.57576" stroke="#2D2D2D" fill="#FFEBA2"/>
  <g id="81a63ef4c73944c993bf24e65257d73e-ao-4">
   <rect height="18.78788" width="208.48485" y="67.24241" x="357.84848" stroke="#2D2D2D" fill="#FFEBA2"/>
   <rect height="19.39394" width="181.81818" y="88.45453" x="221.48485" stroke="#2D2D2D" fill="#FFEBA2"/>
   <rect height="19.39394" width="103.0303" y="87.84847" x="426.33333" stroke="#2D2D2D" fill="#FFEBA2"/>
   <rect height="15.75758" width="70.30303" y="90.27272" x="657.24242" stroke="#2D2D2D" fill="#FFEBA2"/>
   <rect height="18.18182" width="44.24242" y="86.63635" x="749.36364" stroke="#2D2D2D" fill="#FFEBA2"/>
   <rect height="17.57576" width="41.81818" y="112.0909" x="160.87879" stroke="#2D2D2D" fill="#FFEBA2"/>
   <rect height="19.39394" width="70.90909" y="110.87878" x="291.18182" stroke="#2D2D2D" fill="#FFEBA2"/>
   <rect height="18.78788" width="164.84848" y="115.1212" x="526.33333" stroke="#2D2D2D" fill="#FFEBA2"/>
  </g>
  <g id="81a63ef4c73944c993bf24e65257d73e-ao-5">
   <rect height="18.78788" width="103.63636" y="223.60605" x="162.69697" stroke="#2D2D2D" fill="#FFEBA2"/>
   <rect height="21.81818" width="115.75758" y="221.18181" x="400.27273" stroke="#2D2D2D" fill="#FFEBA2"/>
   <rect height="16.9697" width="90.90909" y="226.03029" x="616.0303" stroke="#2D2D2D" fill="#FFEBA2"/>
   <rect height="14.54545" width="76.9697" y="247.84847" x="160.27273" stroke="#2D2D2D" fill="#FFEBA2"/>
   <rect height="18.78788" width="75.15152" y="244.81817" x="269.36364" stroke="#2D2D2D" fill="#FFEBA2"/>
   <rect height="20" width="100.60606" y="245.42423" x="379.66667" stroke="#2D2D2D" fill="#FFEBA2"/>
   <rect height="18.78788" width="77.57576" y="269.66666" x="160.87879" stroke="#2D2D2D" fill="#FFEBA2"/>
   <rect height="16.36364" width="175.75758" y="292.0909" x="218.45455" stroke="#2D2D2D" fill="#FFEBA2"/>
   <rect height="16.36364" width="186.06061" y="313.90908" x="299.06061" stroke="#2D2D2D" fill="#FFEBA2"/>
   <rect height="17.57576" width="142.42424" y="313.30302" x="620.27273" stroke="#2D2D2D" fill="#FFEBA2"/>
  </g>
 </g>
</svg>