<svg xmlns="http://www.w3.org/2000/svg" width="834" height="561">
 <!-- Created with Image Occlusion Enhanced -->
 <g>
  <title>Labels</title>
 </g>
 <g>
  <title>Masks</title>
  <g id="89c477ca15cc4a33a146363e9ce6ed68-ao-1">
   <rect height="23.80952" width="213.33334" y="42.04763" x="160.28569" stroke="#2D2D2D" fill="#FFEBA2"/>
   <rect height="24.76191" width="55.2381" y="43.00001" x="570.76189" stroke="#2D2D2D" fill="#FFEBA2"/>
   <rect height="22.85714" width="89.52381" y="43.95239" x="701.23808" stroke="#2D2D2D" fill="#FFEBA2"/>
   <rect height="24.76191" width="104.76191" y="63.00001" x="279.33331" stroke="#2D2D2D" fill="#FFEBA2"/>
   <rect height="24.76191" width="84.76191" y="89.66668" x="171.71426" stroke="#2D2D2D" fill="#FFEBA2"/>
  </g>
  <g id="89c477ca15cc4a33a146363e9ce6ed68-ao-2">
   <rect height="20.95238" width="38.09524" y="135.38097" x="155.52379" stroke="#2D2D2D" fill="#FFEBA2"/>
   <rect height="19.04762" width="78.09524" y="136.33335" x="390.76189" stroke="#2D2D2D" fill="#FFEBA2"/>
   <rect height="19.04762" width="100" y="135.38097" x="527.90475" stroke="#2D2D2D" fill="#FFEBA2"/>
   <rect height="23.80952" width="81.90476" y="160.14287" x="285.0476" stroke="#2D2D2D" fill="#FFEBA2"/>
   <rect height="25.71429" width="61.90476" y="177.28573" x="170.76188" stroke="#2D2D2D" fill="#FFEBA2"/>
  </g>
  <g id="89c477ca15cc4a33a146363e9ce6ed68-ao-3">
   <rect height="25.71429" width="121.90476" y="223.00002" x="435.52379" stroke="#2D2D2D" fill="#FFEBA2"/>
   <rect height="27.61905" width="123.80953" y="223.00002" x="575.5238" stroke="#2D2D2D" fill="#FFEBA2"/>
  </g>
  <g id="89c477ca15cc4a33a146363e9ce6ed68-ao-4">
   <rect height="20" width="165.71429" y="270.61906" x="121.23807" stroke="#2D2D2D" fill="#FFEBA2"/>
   <rect height="23.80952" width="34.28571" y="269.66668" x="464.09522" stroke="#2D2D2D" fill="#FFEBA2"/>
   <rect height="26.66667" width="86.66667" y="268.7143" x="583.14284" stroke="#2D2D2D" fill="#FFEBA2"/>
   <rect height="20.95238" width="113.33334" y="269.66668" x="694.57142" stroke="#2D2D2D" fill="#FFEBA2"/>
   <rect height="19.04762" width="147.61905" y="291.57145" x="287.90474" stroke="#2D2D2D" fill="#FFEBA2"/>
   <rect height="18.09524" width="76.19048" y="317.28573" x="174.57141" stroke="#2D2D2D" fill="#FFEBA2"/>
  </g>
  <g id="89c477ca15cc4a33a146363e9ce6ed68-ao-5">
   <rect height="26.66667" width="92.38095" y="356.33335" x="273.61903" stroke="#2D2D2D" fill="#FFEBA2"/>
   <rect height="21.90476" width="128.57143" y="359.1905" x="469.80951" stroke="#2D2D2D" fill="#FFEBA2"/>
  </g>
  
  <g id="89c477ca15cc4a33a146363e9ce6ed68-ao-7">
   <rect height="20" width="106.66667" y="492.52383" x="117.42855" stroke="#2D2D2D" fill="#FFEBA2"/>
   <rect height="23.80952" width="125.71429" y="493.47621" x="616.47618" stroke="#2D2D2D" fill="#FFEBA2"/>
  </g>
  <g id="89c477ca15cc4a33a146363e9ce6ed68-ao-8">
   <rect height="18.09524" width="102.85714" y="539.1905" x="117.42855" stroke="#2D2D2D" fill="#FFEBA2"/>
   <rect height="21.90476" width="227.61905" y="535.38098" x="323.14284" stroke="#2D2D2D" fill="#FFEBA2"/>
   <rect height="22.85714" width="241.90477" y="537.28574" x="586.95237" stroke="#2D2D2D" fill="#FFEBA2"/>
  </g>
 </g>
</svg>