<svg xmlns="http://www.w3.org/2000/svg" width="986" height="745">
 <!-- Created with Image Occlusion Enhanced -->
 <g>
  <title>Labels</title>
 </g>
 <g>
  <title>Masks</title>
  
  <g id="8bb898270a4d4a50ad870391169cf075-ao-2">
   <rect height="34.17722" width="211.39241" y="295.00002" x="394.50632" stroke="#2D2D2D" fill="#FFEBA2"/>
   <rect height="22.78481" width="146.83545" y="393.7342" x="365.3924" stroke="#2D2D2D" fill="#FFEBA2"/>
   <rect height="24.05063" width="63.29114" y="424.11395" x="540.07595" stroke="#2D2D2D" fill="#FFEBA2"/>
   <rect height="20.25316" width="77.21519" y="421.5823" x="646.40506" stroke="#2D2D2D" fill="#FFEBA2"/>
   <rect height="32.91139" width="97.46836" y="451.96205" x="38.81011" stroke="#2D2D2D" fill="#FFEBA2"/>
   <rect height="25.31646" width="70.88608" y="483.60762" x="286.91138" stroke="#2D2D2D" fill="#FFEBA2"/>
   <rect height="25.31646" width="182.27848" y="482.3418" x="495.77215" stroke="#2D2D2D" fill="#FFEBA2"/>
   <rect height="25.31646" width="56.96203" y="513.98737" x="629.94937" stroke="#2D2D2D" fill="#FFEBA2"/>
   <rect height="29.11392" width="205.0633" y="545.63294" x="666.65823" stroke="#2D2D2D" fill="#FFEBA2"/>
   <rect height="24.05063" width="78.48101" y="578.54433" x="472.98734" stroke="#2D2D2D" fill="#FFEBA2"/>
   <rect height="31.64557" width="59.49367" y="574.74686" x="595.77215" stroke="#2D2D2D" fill="#FFEBA2"/>
   <rect height="25.31646" width="60.75949" y="578.54433" x="703.36709" stroke="#2D2D2D" fill="#FFEBA2"/>
   <rect height="24.05063" width="69.62025" y="611.45572" x="413.49366" stroke="#2D2D2D" fill="#FFEBA2"/>
   <rect height="25.31646" width="124.05064" y="669.68357" x="472.98734" stroke="#2D2D2D" fill="#FFEBA2"/>
   <rect height="25.31646" width="62.02532" y="668.41775" x="732.48101" stroke="#2D2D2D" fill="#FFEBA2"/>
   <rect height="29.11392" width="144.3038" y="697.53168" x="814.7595" stroke="#2D2D2D" fill="#FFEBA2"/>
  </g>
 </g>
</svg>