<svg xmlns="http://www.w3.org/2000/svg" width="1341" height="754">
 <!-- Created with Image Occlusion Enhanced -->
 <g>
  <title>Labels</title>
 </g>
 <g>
  <title>Masks</title>
  <rect id="8c35444484ed48a5aa20809917f1c250-ao-1" height="88.46154" width="135.89744" y="-0.41025" x="196.69234" stroke="#2D2D2D" fill="#FFEBA2"/>
  <rect id="8c35444484ed48a5aa20809917f1c250-ao-2" height="48.71795" width="115.38462" y="102.15385" x="304.38465" stroke="#2D2D2D" fill="#FFEBA2"/>
  <rect id="8c35444484ed48a5aa20809917f1c250-ao-3" height="48.71795" width="120.51282" y="106" x="97.97439" stroke="#2D2D2D" fill="#FFEBA2"/>
  <rect id="8c35444484ed48a5aa20809917f1c250-ao-4" height="58.97436" width="133.33334" y="182.92308" x="13.359" stroke="#2D2D2D" fill="#FFEBA2"/>
  <rect id="8c35444484ed48a5aa20809917f1c250-ao-5" height="65.38462" width="148.71795" y="206.00001" x="368.48721" stroke="#2D2D2D" fill="#FFEBA2"/>
  <rect id="8c35444484ed48a5aa20809917f1c250-ao-6" height="101.28205" width="102.5641" y="309.84616" x="430.02567" stroke="#2D2D2D" fill="#FFEBA2"/>
  <rect id="8c35444484ed48a5aa20809917f1c250-ao-7" height="57.69231" width="70.51282" y="539.33335" x="342.84619" stroke="#2D2D2D" fill="#FFEBA2"/>
  <rect id="8c35444484ed48a5aa20809917f1c250-ao-8" height="74.35898" width="84.61539" y="539.33335" x="112.07695" stroke="#2D2D2D" fill="#FFEBA2"/>
  <rect stroke="#2D2D2D" id="8c35444484ed48a5aa20809917f1c250-ao-9" height="230.76941" width="152.56411" y="506.00012" x="1164.64107" fill="#FFEBA2"/>
  
  
  <g id="8c35444484ed48a5aa20809917f1c250-ao-10" class="qshape">
   <rect height="69.23077" width="61.53846" y="461.12822" x="512.07696" stroke="#2D2D2D" fill="#FF7E7E" class="qshape"/>
   <rect height="82.05128" width="144.8718" y="170.10257" x="568.48722" stroke="#2D2D2D" fill="#FF7E7E" class="qshape"/>
   <rect height="52.5641" width="110.25641" y="118.82052" x="683.87183" stroke="#2D2D2D" fill="#FF7E7E" class="qshape"/>
   <rect height="79.48718" width="115.38462" y="561.12822" x="654.38465" stroke-linecap="null" stroke-linejoin="null" stroke-dasharray="null" stroke="#2D2D2D" fill="#FF7E7E" class="qshape"/>
  </g>
  <g id="8c35444484ed48a5aa20809917f1c250-ao-11">
   <rect height="26.92308" width="117.94872" y="662.41027" x="671.05132" stroke-linecap="null" stroke-linejoin="null" stroke-dasharray="null" stroke="#2D2D2D" fill="#FFEBA2"/>
   <rect height="16.66667" width="82.05128" y="723.94873" x="886.43594" stroke-linecap="null" stroke-linejoin="null" stroke-dasharray="null" stroke="#2D2D2D" fill="#FFEBA2"/>
   <g>
    <rect height="23.07692" width="80.76923" y="593.1795" x="782.58978" stroke-linecap="null" stroke-linejoin="null" stroke-dasharray="null" stroke="#2D2D2D" fill="#FFEBA2"/>
    <rect height="20.51282" width="42.30769" y="621.38463" x="860.79491" stroke-linecap="null" stroke-linejoin="null" stroke-dasharray="null" stroke="#2D2D2D" fill="#FFEBA2"/>
   </g>
  </g>
  <g id="8c35444484ed48a5aa20809917f1c250-ao-12">
   <rect height="30.76923" width="134.61539" y="54.71795" x="1026.17953" stroke="#2D2D2D" fill="#FFEBA2"/>
   <rect height="46.15385" width="114.10257" y="67.53847" x="1196.69236" stroke="#2D2D2D" fill="#FFEBA2"/>
   <rect height="53.84615" width="103.84616" y="416.25642" x="1201.82056" stroke="#2D2D2D" fill="#FFEBA2"/>
  </g>
  <g id="8c35444484ed48a5aa20809917f1c250-ao-13">
   <rect height="85.89744" width="79.48718" y="403.43591" x="339.00003" stroke="#2D2D2D" fill="#FFEBA2"/>
   <rect height="21.79487" width="33.33333" y="494.46155" x="347.97439" stroke="#2D2D2D" fill="#FFEBA2"/>
  </g>
 </g>
</svg>