<svg xmlns="http://www.w3.org/2000/svg" width="1370" height="770">
 <!-- Created with Image Occlusion Enhanced -->
 <g>
  <title>Labels</title>
 </g>
 <g>
  <title>Masks</title>
  <rect id="8dc00d68162f49139f06a294cae16713-ao-1" height="36.36364" width="183.11688" y="180.64931" x="69.22075" stroke="#2D2D2D" fill="#FFEBA2"/>
  <rect id="8dc00d68162f49139f06a294cae16713-ao-2" height="46.75325" width="172.72727" y="180.64931" x="293.89607" stroke="#2D2D2D" fill="#FFEBA2"/>
  <rect id="8dc00d68162f49139f06a294cae16713-ao-3" height="51.94805" width="170.12987" y="176.7532" x="514.67528" stroke="#2D2D2D" fill="#FFEBA2"/>
  <rect id="8dc00d68162f49139f06a294cae16713-ao-4" height="41.55844" width="197.40259" y="181.94801" x="723.76619" stroke="#2D2D2D" fill="#FFEBA2"/>
  <g id="8dc00d68162f49139f06a294cae16713-ao-5">
   <rect height="29.87013" width="120.77922" y="187.14281" x="1148.4415" stroke="#2D2D2D" fill="#FFEBA2"/>
   <rect height="22.07792" width="125.97402" y="317.01294" x="969.22073" stroke="#2D2D2D" fill="#FFEBA2"/>
   <rect height="24.67532" width="123.37662" y="319.61034" x="1167.92202" stroke="#2D2D2D" fill="#FFEBA2"/>
   <rect height="31.16883" width="106.4935" y="349.48047" x="1231.55838" stroke="#2D2D2D" fill="#FFEBA2"/>
   <rect height="28.57143" width="158.44155" y="378.0519" x="1177.01293" stroke="#2D2D2D" fill="#FFEBA2"/>
  </g>
  <g id="8dc00d68162f49139f06a294cae16713-ao-6" class="qshape">
   <rect height="29.87013" width="172.72727" y="506.62333" x="971.81813" stroke="#2D2D2D" fill="#FF7E7E" class="qshape"/>
   <rect height="23.37662" width="146.75324" y="510.51943" x="1192.59734" stroke="#2D2D2D" fill="#FF7E7E" class="qshape"/>
   <rect height="15.58442" width="122.07792" y="544.28566" x="1102.98696" stroke="#2D2D2D" fill="#FF7E7E" class="qshape"/>
   <rect height="22.07792" width="164.93506" y="572.85709" x="975.71423" stroke="#2D2D2D" fill="#FF7E7E" class="qshape"/>
   <rect height="25.97403" width="151.94805" y="667.66228" x="974.41553" stroke="#2D2D2D" fill="#FF7E7E" class="qshape"/>
   <rect height="23.37662" width="170.12987" y="666.36358" x="1162.72721" stroke="#2D2D2D" fill="#FF7E7E" class="qshape"/>
   <rect height="25.97403" width="79.22078" y="698.83111" x="969.22073" stroke="#2D2D2D" fill="#FF7E7E" class="qshape"/>
   <rect height="27.27273" width="210.38961" y="697.53241" x="1099.09085" stroke="#2D2D2D" fill="#FF7E7E" class="qshape"/>
  </g>
 </g>
</svg>