<svg xmlns="http://www.w3.org/2000/svg" width="1339" height="758">
 <!-- Created with Image Occlusion Enhanced -->
 <g>
  <title>Labels</title>
 </g>
 <g>
  <title>Masks</title>
  <g id="91d2386da0874ba6bf582a3e29bd672a-ao-1">
   <rect height="24.35897" width="248.71795" y="172.25643" x="234.07683" stroke="#2D2D2D" fill="#FFEBA2"/>
   <rect height="23.07692" width="389.7436" y="197.89745" x="86.64093" stroke="#2D2D2D" fill="#FFEBA2"/>
   <rect height="19.23077" width="347.4359" y="229.94873" x="184.07683" stroke="#2D2D2D" fill="#FFEBA2"/>
   <rect height="16.66667" width="147.4359" y="258.15386" x="85.35888" stroke="#2D2D2D" fill="#FFEBA2"/>
   <rect height="21.79487" width="96.15385" y="310.71797" x="210.99991" stroke="#2D2D2D" fill="#FFEBA2"/>
   <rect height="19.23077" width="283.33334" y="344.0513" x="221.25632" stroke="#2D2D2D" fill="#FFEBA2"/>
   <rect height="23.07692" width="229.48718" y="365.84617" x="87.92298" stroke="#2D2D2D" fill="#FFEBA2"/>
   <rect height="14.10256" width="256.41026" y="394.0513" x="168.69221" stroke="#2D2D2D" fill="#FFEBA2"/>
  </g>
  <g id="91d2386da0874ba6bf582a3e29bd672a-ao-2" class="qshape">
   <rect height="25.64103" width="258.97436" y="485.07694" x="232.79478" stroke="#2D2D2D" fill="#FF7E7E" class="qshape"/>
   <rect height="24.35897" width="415.38462" y="510.71797" x="78.94862" stroke="#2D2D2D" fill="#FF7E7E" class="qshape"/>
   <rect height="12.82051" width="287.17949" y="544.0513" x="216.12811" stroke="#2D2D2D" fill="#FF7E7E" class="qshape"/>
   <rect height="24.35897" width="135.89744" y="562.00002" x="75.10247" stroke="#2D2D2D" fill="#FF7E7E" class="qshape"/>
   <rect height="16.66667" width="107.69231" y="606.87182" x="205.8717" stroke="#2D2D2D" fill="#FF7E7E" class="qshape"/>
   <rect height="21.79487" width="282.05129" y="632.51284" x="223.82042" stroke="#2D2D2D" fill="#FF7E7E" class="qshape"/>
   <rect height="19.23077" width="388.46154" y="658.15387" x="85.35888" stroke="#2D2D2D" fill="#FF7E7E" class="qshape"/>
   <rect height="11.53846" width="320.51283" y="688.9231" x="175.10247" stroke="#2D2D2D" fill="#FF7E7E" class="qshape"/>
   <rect height="10.25641" width="328.20513" y="713.28208" x="85.35888" stroke="#2D2D2D" fill="#FF7E7E" class="qshape"/>
  </g>
 </g>
</svg>