<svg xmlns="http://www.w3.org/2000/svg" width="916" height="388">
 <!-- Created with Image Occlusion Enhanced -->
 <g>
  <title>Labels</title>
 </g>
 <g>
  <title>Masks</title>
  <rect id="9b1e1901758e475bb59a9f3bb7fa1802-ao-1" height="20.66667" width="136" y="69.6" x="211.86667" stroke="#2D2D2D" fill="#FFEBA2"/>
  <g id="9b1e1901758e475bb59a9f3bb7fa1802-ao-2">
   <rect height="20.66667" width="60.66667" y="94.26667" x="775.2" stroke="#2D2D2D" fill="#FFEBA2"/>
   <rect height="46.66667" width="182.66667" y="138.93333" x="206.53333" stroke="#2D2D2D" fill="#FFEBA2"/>
  </g>
  <g id="9b1e1901758e475bb59a9f3bb7fa1802-ao-3">
   <rect height="16" width="43.33333" y="232.26667" x="317.86667" stroke="#2D2D2D" fill="#FFEBA2"/>
   <rect height="14" width="66" y="233.6" x="364.53333" stroke="#2D2D2D" fill="#FFEBA2"/>
   <rect height="17.33333" width="110.66667" y="230.93333" x="443.86667" stroke="#2D2D2D" fill="#FFEBA2"/>
   <rect height="16.66667" width="138.66667" y="231.6" x="563.86667" stroke="#2D2D2D" fill="#FFEBA2"/>
   <rect height="15.33333" width="73.33333" y="232.26667" x="712.53333" stroke="#2D2D2D" fill="#FFEBA2"/>
  </g>
  <g id="9b1e1901758e475bb59a9f3bb7fa1802-ao-4">
   <rect height="14" width="153.33333" y="280.26667" x="322.53333" stroke="#2D2D2D" fill="#FFEBA2"/>
   <rect height="15.33333" width="138" y="277.6" x="483.86667" stroke="#2D2D2D" fill="#FFEBA2"/>
   <rect height="17.33333" width="90" y="277.6" x="629.2" stroke="#2D2D2D" fill="#FFEBA2"/>
  </g>
  <g id="9b1e1901758e475bb59a9f3bb7fa1802-ao-5">
   <rect height="17.33333" width="59.33333" y="323.6" x="315.86667" stroke="#2D2D2D" fill="#FFEBA2"/>
   <rect height="19.33333" width="44.66667" y="321.6" x="381.86667" stroke="#2D2D2D" fill="#FFEBA2"/>
   <rect height="15.33333" width="94" y="323.6" x="433.86667" stroke="#2D2D2D" fill="#FFEBA2"/>
   <rect height="18" width="48" y="322.93333" x="535.2" stroke="#2D2D2D" fill="#FFEBA2"/>
   <rect height="17.33333" width="115.33333" y="324.93333" x="592.53333" stroke="#2D2D2D" fill="#FFEBA2"/>
   <rect height="16.66667" width="40.66667" y="324.93333" x="714.53333" stroke="#2D2D2D" fill="#FFEBA2"/>
   <rect height="18" width="36" y="322.93333" x="760.53333" stroke="#2D2D2D" fill="#FFEBA2"/>
   <rect height="20.66667" width="50.66667" y="322.93333" x="801.86667" stroke="#2D2D2D" fill="#FFEBA2"/>
  </g>
  <g id="9b1e1901758e475bb59a9f3bb7fa1802-ao-6" class="qshape">
   <rect height="18" width="57.33333" y="366.93333" x="382.53333" stroke="#2D2D2D" fill="#FF7E7E" class="qshape"/>
   <rect height="17.33333" width="36.66667" y="368.26667" x="445.2" stroke="#2D2D2D" fill="#FF7E7E" class="qshape"/>
   <rect height="16.66667" width="67.33333" y="370.26667" x="488.53333" stroke="#2D2D2D" fill="#FF7E7E" class="qshape"/>
   <rect height="16" width="62.66667" y="370.93333" x="564.53333" stroke="#2D2D2D" fill="#FF7E7E" class="qshape"/>
   <rect height="17.33333" width="54.66667" y="368.26667" x="637.2" stroke="#2D2D2D" fill="#FF7E7E" class="qshape"/>
   <rect height="18.66667" width="34.66667" y="365.6" x="697.86667" stroke="#2D2D2D" fill="#FF7E7E" class="qshape"/>
   <rect height="18.66667" width="75.33333" y="366.93333" x="741.2" stroke="#2D2D2D" fill="#FF7E7E" class="qshape"/>
  </g>
 </g>
</svg>