<svg xmlns="http://www.w3.org/2000/svg" width="886" height="406">
 <!-- Created with Image Occlusion Enhanced -->
 <g>
  <title>Labels</title>
 </g>
 <g>
  <title>Masks</title>
  <g id="9c0808ce31e245cf9192f5d87c3150cc-ao-1">
   <rect height="17.12329" width="95.20548" y="47.01369" x="213.31501" stroke="#2D2D2D" fill="#FFEBA2"/>
   <rect height="17.80822" width="76.0274" y="49.06849" x="437.28761" stroke="#2D2D2D" fill="#FFEBA2"/>
   <rect height="19.17808" width="258.90411" y="70.30136" x="257.83556" stroke="#2D2D2D" fill="#FFEBA2"/>
   <rect height="19.86301" width="297.26027" y="70.98629" x="542.76706" stroke="#2D2D2D" fill="#FFEBA2"/>
   <rect height="19.17808" width="164.38356" y="94.27396" x="676.3287" stroke="#2D2D2D" fill="#FFEBA2"/>
   <rect height="13.69863" width="393.83561" y="118.9315" x="113.31501" stroke="#2D2D2D" fill="#FFEBA2"/>
   <rect height="16.43836" width="76.71233" y="138.10958" x="414.68487" stroke="#2D2D2D" fill="#FFEBA2"/>
   <rect height="15.06849" width="95.89041" y="140.84931" x="753.04103" stroke="#2D2D2D" fill="#FFEBA2"/>
  </g>
  
  <g id="9c0808ce31e245cf9192f5d87c3150cc-ao-3">
   <rect height="17.80822" width="101.36986" y="271.67122" x="398.24652" stroke="#2D2D2D" fill="#FFEBA2"/>
   <rect height="18.49315" width="69.17808" y="295.64382" x="437.28761" stroke="#2D2D2D" fill="#FFEBA2"/>
   <rect height="19.17808" width="160.9589" y="294.95889" x="541.3972" stroke="#2D2D2D" fill="#FFEBA2"/>
   <rect height="19.86301" width="80.82192" y="295.64382" x="733.17802" stroke="#2D2D2D" fill="#FFEBA2"/>
   <rect height="17.12329" width="56.16438" y="318.93149" x="257.15063" stroke="#2D2D2D" fill="#FFEBA2"/>
   <rect height="16.43836" width="101.36986" y="317.56163" x="346.19172" stroke="#2D2D2D" fill="#FFEBA2"/>
   <rect height="17.12329" width="71.91781" y="318.93149" x="559.20542" stroke="#2D2D2D" fill="#FFEBA2"/>
   <rect height="17.12329" width="117.12329" y="362.08218" x="193.452" stroke="#2D2D2D" fill="#FFEBA2"/>
   <rect height="15.75342" width="47.9452" y="363.45204" x="394.13693" stroke="#2D2D2D" fill="#FFEBA2"/>
  </g>
 </g>
</svg>