<svg xmlns="http://www.w3.org/2000/svg" width="373.00000000000006" height="807">
 <!-- Created with Image Occlusion Enhanced -->
 <g>
  <title>Labels</title>
 </g>
 <g>
  <title>Masks</title>
  <rect id="a5ccf748a13341d6a184f37591e51845-ao-1" height="20.54795" width="65.75343" y="45.60276" x="11.02056" stroke="#2D2D2D" fill="#FFEBA2"/>
  <rect id="a5ccf748a13341d6a184f37591e51845-ao-2" height="10.9589" width="89.0411" y="45.60276" x="238.41783" stroke="#2D2D2D" fill="#FFEBA2"/>
  <rect id="a5ccf748a13341d6a184f37591e51845-ao-3" height="16.43836" width="54.79452" y="67.52057" x="246.63701" stroke="#2D2D2D" fill="#FFEBA2"/>
  <rect id="a5ccf748a13341d6a184f37591e51845-ao-4" height="41.09589" width="98.63014" y="92.1781" x="245.26715" stroke="#2D2D2D" fill="#FFEBA2"/>
  <rect id="a5ccf748a13341d6a184f37591e51845-ao-5" height="27.39726" width="75.34247" y="151.08222" x="242.52742" stroke="#2D2D2D" fill="#FFEBA2"/>
  <rect id="a5ccf748a13341d6a184f37591e51845-ao-6" height="36.9863" width="73.9726" y="133.274" x="9.6507" stroke="#2D2D2D" fill="#FFEBA2"/>
  <rect id="a5ccf748a13341d6a184f37591e51845-ao-7" height="15.06849" width="76.71233" y="178.47948" x="11.02056" stroke="#2D2D2D" fill="#FFEBA2"/>
  <rect id="a5ccf748a13341d6a184f37591e51845-ao-8" height="16.43836" width="87.67124" y="205.87674" x="5.54111" stroke="#2D2D2D" fill="#FFEBA2"/>
  <rect id="a5ccf748a13341d6a184f37591e51845-ao-9" height="23.28767" width="58.90411" y="199.02742" x="241.15756" stroke="#2D2D2D" fill="#FFEBA2"/>
  
  <rect id="a5ccf748a13341d6a184f37591e51845-ao-11" height="21.91781" width="73.9726" y="237.38359" x="13.76029" stroke="#2D2D2D" fill="#FFEBA2"/>
  <rect id="a5ccf748a13341d6a184f37591e51845-ao-12" height="23.28767" width="87.67124" y="260.67126" x="237.04797" stroke="#2D2D2D" fill="#FFEBA2"/>
  <rect id="a5ccf748a13341d6a184f37591e51845-ao-13" height="20.54795" width="78.08219" y="297.65756" x="248.00687" stroke="#2D2D2D" fill="#FFEBA2"/>
  <rect id="a5ccf748a13341d6a184f37591e51845-ao-14" height="21.91781" width="109.58904" y="352.45208" x="216.50002" stroke="#2D2D2D" fill="#FFEBA2"/>
  <rect id="a5ccf748a13341d6a184f37591e51845-ao-15" height="38.35617" width="73.9726" y="379.84934" x="11.02056" stroke="#2D2D2D" fill="#FFEBA2"/>
  <rect id="a5ccf748a13341d6a184f37591e51845-ao-16" height="26.0274" width="79.45206" y="425.05483" x="11.02056" stroke="#2D2D2D" fill="#FFEBA2"/>
  <rect id="a5ccf748a13341d6a184f37591e51845-ao-17" height="34.24658" width="63.0137" y="703.13702" x="6.91098" stroke="#2D2D2D" fill="#FFEBA2"/>
  <rect id="a5ccf748a13341d6a184f37591e51845-ao-18" height="38.35617" width="58.90411" y="544.23291" x="237.04797" stroke="#2D2D2D" fill="#FFEBA2"/>
  <rect id="a5ccf748a13341d6a184f37591e51845-ao-19" height="47.94521" width="115.0685" y="642.86305" x="245.26715" stroke="#2D2D2D" fill="#FFEBA2"/>
  <rect id="a5ccf748a13341d6a184f37591e51845-ao-20" height="42.46575" width="110.95891" y="752.45209" x="245.26715" stroke="#2D2D2D" fill="#FFEBA2"/>
 </g>
</svg>