<svg xmlns="http://www.w3.org/2000/svg" width="787" height="513">
 <!-- Created with Image Occlusion Enhanced -->
 <g>
  <title>Labels</title>
 </g>
 <g>
  <title>Masks</title>
  <g id="a61668ea08bb4e9d8ef5e995df3b5150-ao-1" class="qshape">
   <rect height="26.08696" width="88.69565" y="17.26085" x="427.78263" stroke="#2D2D2D" fill="#FF7E7E" class="qshape"/>
   <rect height="23.47826" width="102.6087" y="18.13042" x="589.52176" stroke="#2D2D2D" fill="#FF7E7E" class="qshape"/>
   <rect height="19.13044" width="80.86957" y="42.47824" x="340.8261" stroke="#2D2D2D" fill="#FF7E7E" class="qshape"/>
   <rect height="16.52174" width="210.43479" y="68.5652" x="196.47827" stroke="#2D2D2D" fill="#FF7E7E" class="qshape"/>
   <rect height="18.26087" width="131.30435" y="67.69563" x="627.78263" stroke="#2D2D2D" fill="#FF7E7E" class="qshape"/>
   <rect height="15.65217" width="390.43479" y="112.04346" x="159.08697" stroke="#2D2D2D" fill="#FF7E7E" class="qshape"/>
   <rect height="18.26087" width="86.95652" y="135.52172" x="341.69567" stroke="#2D2D2D" fill="#FF7E7E" class="qshape"/>
   <rect height="21.73913" width="153.04348" y="132.04346" x="565.17393" stroke="#2D2D2D" fill="#FF7E7E" class="qshape"/>
  </g>
  <g id="a61668ea08bb4e9d8ef5e995df3b5150-ao-2">
   <rect height="44.34783" width="690.43479" y="176.39129" x="69.52175" stroke="#2D2D2D" fill="#FFEBA2"/>
   <rect height="15.65217" width="452.17392" y="225.08694" x="213.86958" stroke="#2D2D2D" fill="#FFEBA2"/>
   <rect height="22.6087" width="590.43479" y="246.82607" x="159.08697" stroke="#2D2D2D" fill="#FFEBA2"/>
   <rect height="23.47826" width="146.95652" y="267.69564" x="71.26088" stroke="#2D2D2D" fill="#FFEBA2"/>
  </g>
  <g id="a61668ea08bb4e9d8ef5e995df3b5150-ao-3">
   <rect height="16.52174" width="32.17391" y="313.78259" x="196.47827" stroke="#2D2D2D" fill="#FFEBA2"/>
   <rect height="19.13044" width="88.69565" y="313.78259" x="258.21741" stroke="#2D2D2D" fill="#FFEBA2"/>
   <rect height="20.86957" width="120.86957" y="314.65216" x="396.47828" stroke="#2D2D2D" fill="#FFEBA2"/>
   <rect height="23.47826" width="127.82609" y="333.78259" x="68.65219" stroke="#2D2D2D" fill="#FFEBA2"/>
   <rect height="14.78261" width="208.69565" y="338.99999" x="247.78262" stroke="#2D2D2D" fill="#FFEBA2"/>
   <rect height="16.52174" width="98.26087" y="360.73912" x="226.04349" stroke="#2D2D2D" fill="#FFEBA2"/>
   <rect height="19.13044" width="103.47826" y="381.60868" x="115.60871" stroke="#2D2D2D" fill="#FFEBA2"/>
   <rect height="19.13044" width="526.95653" y="423.34781" x="114.73914" stroke="#2D2D2D" fill="#FFEBA2"/>
   <rect height="40" width="615.65218" y="470.30433" x="162.56523" stroke="#2D2D2D" fill="#FFEBA2"/>
  </g>
 </g>
</svg>