<svg xmlns="http://www.w3.org/2000/svg" width="831" height="630">
 <!-- Created with Image Occlusion Enhanced -->
 <g>
  <title>Labels</title>
 </g>
 <g>
  <title>Masks</title>
  <rect id="b584582d7cef492fbe8540347837f5f6-ao-1" height="22.34043" width="138.29787" y="311.48934" x="377.08508" stroke="#2D2D2D" fill="#FFEBA2"/>
  <rect id="b584582d7cef492fbe8540347837f5f6-ao-2" height="15.95745" width="165.95744" y="337.02126" x="330.27657" stroke="#2D2D2D" fill="#FFEBA2"/>
  <rect id="b584582d7cef492fbe8540347837f5f6-ao-3" height="15.95745" width="190.42553" y="361.48934" x="348.36168" stroke="#2D2D2D" fill="#FFEBA2"/>
  <rect id="b584582d7cef492fbe8540347837f5f6-ao-4" height="17.02128" width="143.61702" y="382.76594" x="328.14891" stroke="#2D2D2D" fill="#FFEBA2"/>
  <g id="b584582d7cef492fbe8540347837f5f6-ao-5">
   <rect height="24.46808" width="70.21276" y="64.68084" x="434.53189" stroke="#2D2D2D" fill="#FFEBA2"/>
   <rect height="17.02128" width="82.97872" y="90.21275" x="302.617" stroke="#2D2D2D" fill="#FFEBA2"/>
   <rect height="21.2766" width="357.4468" y="135.95743" x="216.44679" stroke="#2D2D2D" fill="#FFEBA2"/>
   <rect height="12.76596" width="113.82979" y="114.68084" x="216.44679" stroke="#2D2D2D" fill="#FFEBA2"/>
   <rect height="14.89362" width="81.91489" y="159.36169" x="236.65955" stroke="#2D2D2D" fill="#FFEBA2"/>
  </g>
  <g id="b584582d7cef492fbe8540347837f5f6-ao-6">
   <rect height="18.08511" width="255.31914" y="202.97871" x="245.17019" stroke="#2D2D2D" fill="#FFEBA2"/>
   <rect height="11.70213" width="503.19148" y="229.57445" x="252.617" stroke="#2D2D2D" fill="#FFEBA2"/>
   <rect height="19.14894" width="107.44681" y="269.99998" x="223.8936" stroke="#2D2D2D" fill="#FFEBA2"/>
   <rect height="19.14894" width="129.78723" y="272.12764" x="352.617" stroke="#2D2D2D" fill="#FFEBA2"/>
  </g>
  <g id="b584582d7cef492fbe8540347837f5f6-ao-7" class="qshape">
   <rect height="18.08511" width="112.76596" y="246.59573" x="194.10636" stroke="#2D2D2D" fill="#FF7E7E" class="qshape"/>
   <rect height="18.08511" width="80.85106" y="246.59573" x="321.76594" stroke="#2D2D2D" fill="#FF7E7E" class="qshape"/>
   <rect height="14.89362" width="91.48936" y="250.85105" x="410.06381" stroke="#2D2D2D" fill="#FF7E7E" class="qshape"/>
  </g>
  <g id="b584582d7cef492fbe8540347837f5f6-ao-8">
   <rect height="17.02128" width="272.34042" y="426.38296" x="438.78721" stroke="#2D2D2D" fill="#FFEBA2"/>
   <rect stroke="#2D2D2D" height="14.89361" width="88.29787" y="447.65956" x="170.70211" fill="#FFEBA2"/>
   <rect height="13.82979" width="55.31915" y="475.31913" x="161.12764" stroke-linecap="null" stroke-linejoin="null" stroke-dasharray="null" stroke="#2D2D2D" fill="#FFEBA2"/>
   <rect height="15.95745" width="87.23404" y="473.19147" x="248.36168" stroke-linecap="null" stroke-linejoin="null" stroke-dasharray="null" stroke="#2D2D2D" fill="#FFEBA2"/>
   <rect height="17.02128" width="51.06383" y="494.46806" x="169.63828" stroke-linecap="null" stroke-linejoin="null" stroke-dasharray="null" stroke="#2D2D2D" fill="#FFEBA2"/>
  </g>
  <g id="b584582d7cef492fbe8540347837f5f6-ao-9">
   <rect height="21.2766" width="286.17021" y="534.89359" x="160.06381" stroke-linecap="null" stroke-linejoin="null" stroke-dasharray="null" stroke="#2D2D2D" fill="#FFEBA2"/>
   <rect height="20.21277" width="96.80851" y="558.29785" x="237.72338" stroke-linecap="null" stroke-linejoin="null" stroke-dasharray="null" stroke="#2D2D2D" fill="#FFEBA2"/>
   <rect height="17.02128" width="139.3617" y="560.42551" x="360.06381" stroke-linecap="null" stroke-linejoin="null" stroke-dasharray="null" stroke="#2D2D2D" fill="#FFEBA2"/>
   <rect height="14.89362" width="128.7234" y="582.76593" x="166.44679" stroke-linecap="null" stroke-linejoin="null" stroke-dasharray="null" stroke="#2D2D2D" fill="#FFEBA2"/>
   <rect height="15.95745" width="114.89361" y="585.95742" x="548.36168" stroke-linecap="null" stroke-linejoin="null" stroke-dasharray="null" stroke="#2D2D2D" fill="#FFEBA2"/>
   <rect height="14.89362" width="290.42553" y="608.29785" x="167.51062" stroke-linecap="null" stroke-linejoin="null" stroke-dasharray="null" stroke="#2D2D2D" fill="#FFEBA2"/>
  </g>
 </g>
</svg>