<svg xmlns="http://www.w3.org/2000/svg" width="775" height="544">
 <!-- Created with Image Occlusion Enhanced -->
 <g>
  <title>Labels</title>
 </g>
 <g>
  <title>Masks</title>
  <rect id="b98e461886e24dd8a039ed606182b751-ao-1" height="21.10092" width="335.77982" y="42.78896" x="403.53211" stroke="#2D2D2D" fill="#FFEBA2"/>
  <rect id="b98e461886e24dd8a039ed606182b751-ao-2" height="23.85321" width="198.16514" y="246.45869" x="301.69725" stroke="#2D2D2D" fill="#FFEBA2"/>
  <g id="b98e461886e24dd8a039ed606182b751-ao-3">
   <rect height="17.43119" width="84.40367" y="88.66052" x="458.57798" stroke="#2D2D2D" fill="#FFEBA2"/>
   <rect height="25.68807" width="33.02752" y="84.9908" x="654.90826" stroke="#2D2D2D" fill="#FFEBA2"/>
   <rect height="20.18349" width="41.2844" y="86.82566" x="730.13761" stroke="#2D2D2D" fill="#FFEBA2"/>
   <rect height="22.93578" width="35.77982" y="107.00914" x="249.40367" stroke="#2D2D2D" fill="#FFEBA2"/>
   <rect height="25.68807" width="69.72477" y="106.09171" x="367.75229" stroke="#2D2D2D" fill="#FFEBA2"/>
  </g>
  <g id="b98e461886e24dd8a039ed606182b751-ao-4">
   <rect height="20.18349" width="507.33945" y="176.73391" x="211.78899" stroke="#2D2D2D" fill="#FFEBA2"/>
   <rect height="18.34862" width="253.21101" y="198.75226" x="209.0367" stroke="#2D2D2D" fill="#FFEBA2"/>
  </g>
  <g id="b98e461886e24dd8a039ed606182b751-ao-5">
   <rect height="24.77064" width="100" y="266.64217" x="209.0367" stroke="#2D2D2D" fill="#FFEBA2"/>
   <rect height="20.18349" width="88.99083" y="295.08254" x="301.69725" stroke="#2D2D2D" fill="#FFEBA2"/>
   <rect height="18.34862" width="189.90826" y="296.9174" x="427.38532" stroke="#2D2D2D" fill="#FFEBA2"/>
  </g>
  <g id="b98e461886e24dd8a039ed606182b751-ao-6">
   <rect height="21.10092" width="69.72477" y="334.53208" x="248.48624" stroke="#2D2D2D" fill="#FFEBA2"/>
   <rect height="19.26606" width="96.33028" y="340.03667" x="417.29358" stroke="#2D2D2D" fill="#FFEBA2"/>
   <rect height="16.51376" width="40.36697" y="361.13758" x="370.50459" stroke="#2D2D2D" fill="#FFEBA2"/>
   <rect height="18.34862" width="105.50459" y="384.07336" x="410.87156" stroke="#2D2D2D" fill="#FFEBA2"/>
  </g>
  
  <g id="b98e461886e24dd8a039ed606182b751-ao-8">
   <rect height="23.85321" width="203.66972" y="495.99997" x="208.11927" stroke="#2D2D2D" fill="#FFEBA2"/>
   <rect height="14.6789" width="163.30275" y="523.52291" x="317.29358" stroke="#2D2D2D" fill="#FFEBA2"/>
  </g>
 </g>
</svg>