<svg xmlns="http://www.w3.org/2000/svg" width="852" height="658">
 <!-- Created with Image Occlusion Enhanced -->
 <g>
  <title>Labels</title>
 </g>
 <g>
  <title>Masks</title>
  <rect id="ba0ad98751c6465c830fb015a5618e67-ao-1" height="13.33333" width="57.77778" y="8.88886" x="73.55557" stroke="#2D2D2D" fill="#FFEBA2"/>
  <rect id="ba0ad98751c6465c830fb015a5618e67-ao-2" height="10" width="64.44445" y="15.55553" x="198.00002" stroke="#2D2D2D" fill="#FFEBA2"/>
  <rect id="ba0ad98751c6465c830fb015a5618e67-ao-3" height="21.11111" width="48.88889" y="58.88886" x="248.00002" stroke="#2D2D2D" fill="#FFEBA2"/>
  <rect id="ba0ad98751c6465c830fb015a5618e67-ao-4" height="22.22222" width="57.77778" y="115.55553" x="212.44446" stroke="#2D2D2D" fill="#FFEBA2"/>
  <rect id="ba0ad98751c6465c830fb015a5618e67-ao-5" height="14.44444" width="28.88889" y="255.55553" x="202.44446" stroke="#2D2D2D" fill="#FFEBA2"/>
  <rect id="ba0ad98751c6465c830fb015a5618e67-ao-6" height="18.88889" width="43.33333" y="296.66665" x="202.44446" stroke="#2D2D2D" fill="#FFEBA2"/>
  <rect id="ba0ad98751c6465c830fb015a5618e67-ao-7" height="24.44444" width="50" y="334.44442" x="200.22224" stroke="#2D2D2D" fill="#FFEBA2"/>
  <rect id="ba0ad98751c6465c830fb015a5618e67-ao-8" height="25.55556" width="57.77778" y="377.77776" x="195.77779" stroke="#2D2D2D" fill="#FFEBA2"/>
  <rect id="ba0ad98751c6465c830fb015a5618e67-ao-9" height="22.22222" width="38.88889" y="367.77776" x="44.66668" stroke="#2D2D2D" fill="#FFEBA2"/>
  
  <rect id="ba0ad98751c6465c830fb015a5618e67-ao-11" height="15.55556" width="34.44444" y="267.77776" x="43.55557" stroke="#2D2D2D" fill="#FFEBA2"/>
  <rect id="ba0ad98751c6465c830fb015a5618e67-ao-12" height="28.88889" width="60" y="185.55553" x="23.55557" stroke="#2D2D2D" fill="#FFEBA2"/>
  <rect id="ba0ad98751c6465c830fb015a5618e67-ao-13" height="16.66667" width="65.55556" y="93.33331" x="14.66668" stroke="#2D2D2D" fill="#FFEBA2"/>
  <rect id="ba0ad98751c6465c830fb015a5618e67-ao-14" height="14.44444" width="60" y="68.88886" x="6.8889" stroke="#2D2D2D" fill="#FFEBA2"/>
  <rect id="ba0ad98751c6465c830fb015a5618e67-ao-15" height="24.44444" width="55.55556" y="37.77775" x="15.77779" stroke="#2D2D2D" fill="#FFEBA2"/>
  <rect id="ba0ad98751c6465c830fb015a5618e67-ao-16" height="23.33333" width="56.66667" y="582.22221" x="22.44446" stroke="#2D2D2D" fill="#FFEBA2"/>
  <rect id="ba0ad98751c6465c830fb015a5618e67-ao-17" height="22.22222" width="44.44445" y="626.66665" x="32.44446" stroke="#2D2D2D" fill="#FFEBA2"/>
  <rect id="ba0ad98751c6465c830fb015a5618e67-ao-18" height="20" width="40" y="603.33332" x="213.55557" stroke="#2D2D2D" fill="#FFEBA2"/>
  <rect id="ba0ad98751c6465c830fb015a5618e67-ao-19" height="15.55556" width="83.33333" y="352.2222" x="383.55558" stroke="#2D2D2D" fill="#FFEBA2"/>
  <rect id="ba0ad98751c6465c830fb015a5618e67-ao-20" height="17.77778" width="76.66667" y="318.88887" x="323.55557" stroke="#2D2D2D" fill="#FFEBA2"/>
  <rect id="ba0ad98751c6465c830fb015a5618e67-ao-21" height="13.33333" width="117.77778" y="198.88887" x="678.00002" stroke="#2D2D2D" fill="#FFEBA2"/>
 </g>
</svg>