<svg xmlns="http://www.w3.org/2000/svg" width="1584" height="1224">
 <!-- Created with Image Occlusion Enhanced -->
 <g>
  <title>Labels</title>
 </g>
 <g>
  <title>Masks</title>
  <rect id="be24d733ef18474a8094cc5658966516-oa-1" height="29.53125" width="220.78125" y="580.92182" x="332.01558" stroke="#2D2D2D" fill="#FFEBA2"/>
  <rect id="be24d733ef18474a8094cc5658966516-oa-2" height="137.8125" width="49.21875" y="576.70307" x="225.14059" stroke="#2D2D2D" fill="#FFEBA2"/>
  <rect id="be24d733ef18474a8094cc5658966516-oa-3" height="28.125" width="201.09375" y="630.14057" x="420.60933" stroke="#2D2D2D" fill="#FFEBA2"/>
  <rect id="be24d733ef18474a8094cc5658966516-oa-4" height="53.4375" width="420.46874" y="663.89057" x="528.89058" stroke="#2D2D2D" fill="#FFEBA2"/>
  <rect id="be24d733ef18474a8094cc5658966516-oa-5" height="47.8125" width="278.43749" y="412.17183" x="613.9687" stroke="#2D2D2D" fill="#FFEBA2"/>
  <rect id="be24d733ef18474a8094cc5658966516-oa-6" height="29.53125" width="192.65625" y="465.60933" x="795.37495" stroke="#2D2D2D" fill="#FFEBA2"/>
  <rect id="be24d733ef18474a8094cc5658966516-oa-7" height="37.96875" width="496.40624" y="503.57808" x="467.71871" stroke="#2D2D2D" fill="#FFEBA2"/>
  <rect id="be24d733ef18474a8094cc5658966516-oa-8" height="68.90625" width="243.28124" y="344.67183" x="793.9687" stroke="#2D2D2D" fill="#FFEBA2"/>
  <rect id="be24d733ef18474a8094cc5658966516-oa-9" height="50.625" width="77.34375" y="353.10933" x="609.04683" stroke="#2D2D2D" fill="#FFEBA2"/>
  <rect id="be24d733ef18474a8094cc5658966516-oa-10" height="33.75" width="271.40624" y="308.81246" x="610.45308" stroke="#2D2D2D" fill="#FFEBA2"/>
  <rect id="be24d733ef18474a8094cc5658966516-oa-11" height="26.71875" width="293.90624" y="230.06246" x="628.73433" stroke="#2D2D2D" fill="#FFEBA2"/>
  <rect id="be24d733ef18474a8094cc5658966516-oa-12" height="35.15625" width="149.0625" y="263.81246" x="801.70307" stroke="#2D2D2D" fill="#FFEBA2"/>
  <rect id="be24d733ef18474a8094cc5658966516-oa-13" height="37.96875" width="205.3125" y="228.65621" x="213.18746" stroke="#2D2D2D" fill="#FFEBA2"/>
  <rect id="be24d733ef18474a8094cc5658966516-oa-14" height="59.0625" width="326.24999" y="301.78121" x="235.68746" stroke="#2D2D2D" fill="#FFEBA2"/>
  <rect id="be24d733ef18474a8094cc5658966516-oa-15" height="30.9375" width="279.84374" y="366.4687" x="258.18746" stroke="#2D2D2D" fill="#FFEBA2"/>
  <rect id="be24d733ef18474a8094cc5658966516-oa-16" height="43.59375" width="90" y="403.0312" x="386.15621" stroke="#2D2D2D" fill="#FFEBA2"/>
  <rect id="be24d733ef18474a8094cc5658966516-oa-17" height="32.34375" width="293.90624" y="224.43746" x="1065.37494" stroke="#2D2D2D" fill="#FFEBA2"/>
  <rect id="be24d733ef18474a8094cc5658966516-oa-18" height="255.93749" width="296.71874" y="260.99996" x="1065.37494" stroke="#2D2D2D" fill="#FFEBA2"/>
 </g>
</svg>