<svg xmlns="http://www.w3.org/2000/svg" width="986" height="736">
 <!-- Created with Image Occlusion Enhanced -->
 <g>
  <title>Labels</title>
 </g>
 <g>
  <title>Masks</title>
  <rect id="cc120090177f4d258a2b31dffcb26c48-ao-1" height="27.5" width="108.75" y="168.25002" x="113.75002" stroke="#2D2D2D" fill="#FFEBA2"/>
  <g id="cc120090177f4d258a2b31dffcb26c48-ao-2">
   <rect height="17.5" width="161.25" y="660.75003" x="307.50002" stroke="#2D2D2D" fill="#FFEBA2"/>
   <rect height="15" width="130" y="517.00003" x="412.50002" stroke="#2D2D2D" fill="#FFEBA2"/>
   <rect height="23.75" width="116.25" y="657.00003" x="532.50002" stroke="#2D2D2D" fill="#FFEBA2"/>
  </g>
  <g id="cc120090177f4d258a2b31dffcb26c48-ao-3">
   <rect height="15" width="47.5" y="528.25003" x="715.00003" stroke="#2D2D2D" fill="#FFEBA2"/>
   <rect height="8.75" width="45" y="552.00003" x="718.75003" stroke="#2D2D2D" fill="#FFEBA2"/>
   <rect height="11.25" width="40" y="568.25003" x="713.75003" stroke="#2D2D2D" fill="#FFEBA2"/>
  </g>
  <g id="cc120090177f4d258a2b31dffcb26c48-ao-4">
   <rect height="7.5" width="43.75" y="535.75003" x="920.00003" stroke="#2D2D2D" fill="#FFEBA2"/>
   <rect height="10" width="36.25" y="552.00003" x="922.50003" stroke="#2D2D2D" fill="#FFEBA2"/>
   <rect height="13.75" width="37.5" y="567.00003" x="923.75003" stroke="#2D2D2D" fill="#FFEBA2"/>
  </g>
  <g id="cc120090177f4d258a2b31dffcb26c48-ao-5">
   <rect height="22.5" width="241.25001" y="102.00002" x="321.25002" stroke="#2D2D2D" fill="#FFEBA2"/>
   <rect height="11.25" width="232.5" y="130.75002" x="303.75002" stroke="#2D2D2D" fill="#FFEBA2"/>
   <rect height="22.5" width="76.25" y="147.00002" x="512.50002" stroke="#2D2D2D" fill="#FFEBA2"/>
  </g>
  <g id="cc120090177f4d258a2b31dffcb26c48-ao-6">
   <rect height="26.25" width="178.75" y="252.00002" x="158.75002" stroke="#2D2D2D" fill="#FFEBA2"/>
   <rect height="11.25" width="96.25" y="283.25002" x="296.25002" stroke="#2D2D2D" fill="#FFEBA2"/>
   <rect height="17.5" width="126.25" y="277.00002" x="420.00002" stroke="#2D2D2D" fill="#FFEBA2"/>
  </g>
  
 </g>
</svg>