<svg xmlns="http://www.w3.org/2000/svg" width="845" height="423">
 <!-- Created with Image Occlusion Enhanced -->
 <g>
  <title>Labels</title>
 </g>
 <g>
  <title>Masks</title>
  <g id="cf2c7123c7ea4cf88b8f703bdd5d76c1-ao-1">
   <rect height="15" width="579.28571" y="23.14284" x="257.42857" stroke="#2D2D2D" fill="#FFEBA2"/>
   <rect height="14.28571" width="54.28571" y="44.57142" x="114.57143" stroke="#2D2D2D" fill="#FFEBA2"/>
  </g>
  <g id="cf2c7123c7ea4cf88b8f703bdd5d76c1-ao-2">
   <rect height="16.42857" width="122.85714" y="89.57142" x="160.28571" stroke="#2D2D2D" fill="#FFEBA2"/>
   <rect height="15.71429" width="75" y="90.2857" x="518.14286" stroke="#2D2D2D" fill="#FFEBA2"/>
   <rect height="15" width="343.57143" y="113.14284" x="173.14286" stroke="#2D2D2D" fill="#FFEBA2"/>
   <rect height="20" width="100.71429" y="108.85713" x="673.14286" stroke="#2D2D2D" fill="#FFEBA2"/>
   <rect height="16.42857" width="52.85714" y="158.14284" x="346" stroke="#2D2D2D" fill="#FFEBA2"/>
   <rect height="15" width="293.57143" y="158.14284" x="521.71429" stroke="#2D2D2D" fill="#FFEBA2"/>
   <rect height="17.14286" width="121.42857" y="180.2857" x="114.57143" stroke="#2D2D2D" fill="#FFEBA2"/>
   <rect height="17.85714" width="42.14286" y="178.85713" x="463.85714" stroke="#2D2D2D" fill="#FFEBA2"/>
   <rect height="19.28571" width="46.42857" y="201.71427" x="196" stroke="#2D2D2D" fill="#FFEBA2"/>
  </g>
  
  <g id="cf2c7123c7ea4cf88b8f703bdd5d76c1-ao-4">
   <rect height="16.42857" width="81.42857" y="358.85713" x="242.42857" stroke="#2D2D2D" fill="#FFEBA2"/>
   <rect height="21.42857" width="50" y="356.71427" x="355.28571" stroke="#2D2D2D" fill="#FFEBA2"/>
   <rect height="20" width="71.42857" y="358.14284" x="670.28571" stroke="#2D2D2D" fill="#FFEBA2"/>
   <rect height="16.42857" width="30" y="380.99999" x="518.14286" stroke="#2D2D2D" fill="#FFEBA2"/>
   <rect height="15.71429" width="90.71429" y="381.71427" x="617.42857" stroke="#2D2D2D" fill="#FFEBA2"/>
   <rect height="19.28571" width="79.28571" y="401.71427" x="185.28571" stroke="#2D2D2D" fill="#FFEBA2"/>
   <rect height="13.57143" width="131.42857" y="403.85713" x="341.71429" stroke="#2D2D2D" fill="#FFEBA2"/>
   <rect height="18.57143" width="42.14286" y="400.99999" x="504.57143" stroke="#2D2D2D" fill="#FFEBA2"/>
   <rect height="17.85714" width="47.14286" y="403.14284" x="574.57143" stroke="#2D2D2D" fill="#FFEBA2"/>
  </g>
 </g>
</svg>