<svg xmlns="http://www.w3.org/2000/svg" width="910" height="742">
 <!-- Created with Image Occlusion Enhanced -->
 <g>
  <title>Labels</title>
 </g>
 <g>
  <title>Masks</title>
  <rect id="dab998cfcc104164b9a5a7c3fd5f87b4-ao-1" height="101.25" width="647.50003" y="476.25005" x="210.74999" stroke="#2D2D2D" fill="#FFEBA2"/>
  <g id="dab998cfcc104164b9a5a7c3fd5f87b4-ao-2">
   <rect height="20" width="477.50002" y="92.50003" x="211.99999" stroke="#2D2D2D" fill="#FFEBA2"/>
   <rect height="17.5" width="323.75001" y="117.50004" x="358.25" stroke="#2D2D2D" fill="#FFEBA2"/>
   <rect height="22.5" width="161.25001" y="111.25004" x="720.75001" stroke="#2D2D2D" fill="#FFEBA2"/>
  </g>
  <g id="dab998cfcc104164b9a5a7c3fd5f87b4-ao-3">
   <rect height="15" width="563.75002" y="228.75004" x="296.99999" stroke="#2D2D2D" fill="#FFEBA2"/>
   <rect height="15" width="207.50001" y="251.25004" x="158.24999" stroke="#2D2D2D" fill="#FFEBA2"/>
   <g>
    <rect height="21.25" width="367.50002" y="178.75004" x="241.99999" stroke="#2D2D2D" fill="#FFEBA2"/>
    <rect height="16.25" width="521.25002" y="207.50004" x="253.24999" stroke="#2D2D2D" fill="#FFEBA2"/>
   </g>
  </g>
  <g id="dab998cfcc104164b9a5a7c3fd5f87b4-ao-4">
   <rect height="15" width="115" y="275.00004" x="240.74999" stroke="#2D2D2D" fill="#FFEBA2"/>
   <rect height="18.75" width="177.50001" y="271.25004" x="358.25" stroke="#2D2D2D" fill="#FFEBA2"/>
   <rect height="15" width="165.00001" y="275.00004" x="545.75" stroke="#2D2D2D" fill="#FFEBA2"/>
   <rect height="17.5" width="365.00002" y="295.00004" x="286.99999" stroke="#2D2D2D" fill="#FFEBA2"/>
  </g>
  <g id="dab998cfcc104164b9a5a7c3fd5f87b4-ao-5">
   <rect height="40" width="665.00003" y="340.00004" x="210.74999" stroke="#2D2D2D" fill="#FFEBA2"/>
   <rect height="17.5" width="250.00001" y="385.00005" x="385.75" stroke="#2D2D2D" fill="#FFEBA2"/>
  </g>
  <g id="dab998cfcc104164b9a5a7c3fd5f87b4-ao-6">
   <rect height="21.25" width="102.5" y="425.00005" x="240.74999" stroke="#2D2D2D" fill="#FFEBA2"/>
   <rect height="22.5" width="131.25001" y="586.25005" x="502" stroke="#2D2D2D" fill="#FFEBA2"/>
  </g>
  
 </g>
</svg>