<svg xmlns="http://www.w3.org/2000/svg" width="834" height="718">
 <!-- Created with Image Occlusion Enhanced -->
 <g>
  <title>Labels</title>
 </g>
 <g>
  <title>Masks</title>
  <rect id="de1710a48ebb42a5a57c221868a2d12f-ao-1" height="91.46341" width="604.87804" y="558.09754" x="208.92682" stroke="#2D2D2D" fill="#FFEBA2"/>
  
  <g id="de1710a48ebb42a5a57c221868a2d12f-ao-3">
   <rect height="18.29268" width="68.29268" y="494.68291" x="272.34146" stroke="#2D2D2D" fill="#FFEBA2"/>
   <rect height="21.95122" width="148.78049" y="492.24388" x="432.09755" stroke="#2D2D2D" fill="#FFEBA2"/>
   <rect height="18.29268" width="126.82927" y="492.24388" x="617.4634" stroke="#2D2D2D" fill="#FFEBA2"/>
  </g>
  <g id="de1710a48ebb42a5a57c221868a2d12f-ao-4">
   <rect height="25.60976" width="124.39024" y="355.65852" x="236.9756" stroke="#2D2D2D" fill="#FFEBA2"/>
   <rect height="20.73171" width="124.39024" y="358.09754" x="433.31706" stroke="#2D2D2D" fill="#FFEBA2"/>
   <rect height="18.29268" width="176.82927" y="384.92681" x="294.29267" stroke="#2D2D2D" fill="#FFEBA2"/>
   <rect height="19.51219" width="386.58536" y="403.21949" x="239.41463" stroke="#2D2D2D" fill="#FFEBA2"/>
   <rect height="17.07317" width="129.26829" y="426.39023" x="215.02438" stroke="#2D2D2D" fill="#FFEBA2"/>
   <rect height="19.51219" width="323.17073" y="449.56096" x="238.19511" stroke="#2D2D2D" fill="#FFEBA2"/>
  </g>
  <g id="de1710a48ebb42a5a57c221868a2d12f-ao-5">
   <rect height="24.39024" width="126.82927" y="201.99998" x="283.31707" stroke="#2D2D2D" fill="#FFEBA2"/>
   <rect height="25.60976" width="234.14634" y="200.78047" x="436.9756" stroke="#2D2D2D" fill="#FFEBA2"/>
   <rect height="13.41463" width="312.19512" y="227.60974" x="278.43902" stroke="#2D2D2D" fill="#FFEBA2"/>
   <rect height="21.95122" width="150" y="247.12193" x="223.56097" stroke="#2D2D2D" fill="#FFEBA2"/>
   <rect height="20.73171" width="578.04878" y="270.29267" x="239.41463" stroke="#2D2D2D" fill="#FFEBA2"/>
   <rect height="14.63415" width="70.73171" y="294.68291" x="160.14633" stroke="#2D2D2D" fill="#FFEBA2"/>
   <rect height="13.41463" width="376.82927" y="316.63413" x="240.63414" stroke="#2D2D2D" fill="#FFEBA2"/>
  </g>
  <g id="de1710a48ebb42a5a57c221868a2d12f-ao-6">
   <rect height="15.85366" width="397.56097" y="70.29267" x="208.92682" stroke="#2D2D2D" fill="#FFEBA2"/>
   <rect height="17.07317" width="375.60975" y="89.80486" x="243.07316" stroke="#2D2D2D" fill="#FFEBA2"/>
   <rect height="14.63415" width="342.68292" y="114.19511" x="268.68292" stroke="#2D2D2D" fill="#FFEBA2"/>
   <rect height="18.29268" width="504.87805" y="133.7073" x="241.85365" stroke="#2D2D2D" fill="#FFEBA2"/>
   <rect height="15.85366" width="103.65854" y="159.31706" x="285.75609" stroke="#2D2D2D" fill="#FFEBA2"/>
   <rect height="23.17073" width="47.56098" y="155.65852" x="457.70731" stroke="#2D2D2D" fill="#FFEBA2"/>
  </g>
 </g>
</svg>