<svg xmlns="http://www.w3.org/2000/svg" width="1018" height="763">
 <!-- Created with Image Occlusion Enhanced -->
 <g>
  <title>Labels</title>
 </g>
 <g>
  <title>Masks</title>
  <g id="e1736933880446d08f718d3743973b5b-ao-1">
   <rect height="15.58442" width="88.31169" y="234.40258" x="862.25978" stroke="#2D2D2D" fill="#FFEBA2"/>
   <rect height="20.77922" width="103.89611" y="281.15582" x="862.25978" stroke="#2D2D2D" fill="#FFEBA2"/>
  </g>
  <rect id="e1736933880446d08f718d3743973b5b-ao-2" height="15.58442" width="67.53247" y="260.3766" x="857.06497" stroke="#2D2D2D" fill="#FFEBA2"/>
  <g id="e1736933880446d08f718d3743973b5b-ao-3">
   <rect height="58.44156" width="231.16884" y="118.81816" x="58.36366" stroke="#2D2D2D" fill="#FFEBA2"/>
   <rect height="25.97403" width="341.55845" y="182.45452" x="42.77924" stroke="#2D2D2D" fill="#FFEBA2"/>
   <rect height="19.48052" width="37.66234" y="213.62335" x="66.15586" stroke="#2D2D2D" fill="#FFEBA2"/>
   <rect height="22.07792" width="209.09091" y="670.76622" x="162.25976" stroke="#2D2D2D" fill="#FFEBA2"/>
   <rect height="22.07792" width="64.93507" y="701.93505" x="81.74028" stroke="#2D2D2D" fill="#FFEBA2"/>
   <rect height="29.87013" width="223.37663" y="577.25972" x="53.16885" stroke="#2D2D2D" fill="#FFEBA2"/>
  </g>
  <g id="e1736933880446d08f718d3743973b5b-ao-4">
   <rect height="44.15584" width="187.01299" y="239.59738" x="540.18185" stroke="#2D2D2D" fill="#FFEBA2"/>
   <rect height="25.97403" width="93.5065" y="174.66231" x="912.90913" stroke="#2D2D2D" fill="#FFEBA2"/>
  </g>
  <g id="e1736933880446d08f718d3743973b5b-ao-5">
   <rect height="18.18182" width="72.72727" y="246.09089" x="58.36366" stroke="#2D2D2D" fill="#FFEBA2"/>
   <rect height="23.37662" width="101.2987" y="304.53245" x="60.96106" stroke="#2D2D2D" fill="#FFEBA2"/>
   <rect height="29.87013" width="72.72727" y="360.3766" x="54.46755" stroke="#2D2D2D" fill="#FFEBA2"/>
   <rect height="28.57143" width="118.18182" y="452.5844" x="203.8182" stroke="#2D2D2D" fill="#FFEBA2"/>
   <rect height="29.87013" width="116.88312" y="422.71427" x="62.25976" stroke="#2D2D2D" fill="#FFEBA2"/>
   <rect height="18.18182" width="110.38961" y="488.94803" x="53.16885" stroke="#2D2D2D" fill="#FFEBA2"/>
   <rect height="27.27273" width="124.67533" y="518.81817" x="158.36366" stroke="#2D2D2D" fill="#FFEBA2"/>
  </g>
 </g>
</svg>