<svg xmlns="http://www.w3.org/2000/svg" width="1312" height="735">
 <!-- Created with Image Occlusion Enhanced -->
 <g>
  <title>Labels</title>
 </g>
 <g>
  <title>Masks</title>
  <rect id="ea6d75ceaf9d49f78de2d8d7e09db895-ao-1" height="32.5" width="61.25" y="198.5" x="813.00005" stroke="#2D2D2D" fill="#FFEBA2"/>
  <rect id="ea6d75ceaf9d49f78de2d8d7e09db895-ao-2" height="33.75" width="106.25" y="273.5" x="884.25005" stroke="#2D2D2D" fill="#FFEBA2"/>
  <rect id="ea6d75ceaf9d49f78de2d8d7e09db895-ao-3" height="40" width="56.25" y="191" x="1076.75006" stroke="#2D2D2D" fill="#FFEBA2"/>
  <rect id="ea6d75ceaf9d49f78de2d8d7e09db895-ao-4" height="33.75" width="57.5" y="483.5" x="814.25005" stroke="#2D2D2D" fill="#FFEBA2"/>
  <rect id="ea6d75ceaf9d49f78de2d8d7e09db895-ao-5" height="33.75" width="62.5" y="482.25" x="941.75005" stroke="#2D2D2D" fill="#FFEBA2"/>
  <g id="ea6d75ceaf9d49f78de2d8d7e09db895-ao-6">
   <rect height="18.75" width="270.00001" y="132.24999" x="251.75004" stroke-linecap="null" stroke-linejoin="null" stroke-dasharray="null" stroke="#2D2D2D" fill="#FFEBA2"/>
   <rect height="20" width="58.75" y="171" x="224.25004" stroke-linecap="null" stroke-linejoin="null" stroke-dasharray="null" stroke="#2D2D2D" fill="#FFEBA2"/>
  </g>
  <g id="ea6d75ceaf9d49f78de2d8d7e09db895-ao-7" class="qshape">
   <rect height="20" width="231.25001" y="226" x="230.50004" stroke="#2D2D2D" fill="#FF7E7E" class="qshape"/>
   <rect height="15" width="185" y="251" x="271.75004" stroke="#2D2D2D" fill="#FF7E7E" class="qshape"/>
  </g>
  <g id="ea6d75ceaf9d49f78de2d8d7e09db895-ao-8">
   <rect height="22.5" width="337.50001" y="343.5" x="203.00004" stroke="#2D2D2D" fill="#FFEBA2"/>
   <rect height="18.75" width="191.25" y="321" x="396.75004" stroke-linecap="null" stroke-linejoin="null" stroke-dasharray="null" stroke="#2D2D2D" fill="#FFEBA2"/>
  </g>
  <g id="ea6d75ceaf9d49f78de2d8d7e09db895-ao-9">
   <rect height="20" width="287.50001" y="424.75" x="341.75004" stroke="#2D2D2D" fill="#FFEBA2"/>
   <rect height="20" width="98.75" y="451" x="150.50003" stroke="#2D2D2D" fill="#FFEBA2"/>
  </g>
  <g id="ea6d75ceaf9d49f78de2d8d7e09db895-ao-10">
   <rect height="20" width="87.5" y="539.75" x="145.50003" stroke="#2D2D2D" fill="#FFEBA2"/>
   <rect height="22.5" width="101.25" y="563.5" x="198.00004" stroke="#2D2D2D" fill="#FFEBA2"/>
   <rect stroke="#2D2D2D" height="13.75" width="105.00001" y="593.50001" x="206.75003" fill="#FFEBA2"/>
   <rect height="15" width="198.75" y="614.75001" x="221.75004" stroke="#2D2D2D" fill="#FFEBA2"/>
  </g>
 </g>
</svg>