<svg xmlns="http://www.w3.org/2000/svg" width="1402" height="784">
 <!-- Created with Image Occlusion Enhanced -->
 <g>
  <title>Labels</title>
 </g>
 <g>
  <title>Masks</title>
  <g id="fad85e0673504cbc94e554920e7570a2-ao-1">
   <rect height="32" width="37.33333" y="125.06667" x="1107.86667" stroke="#2D2D2D" fill="#FFEBA2"/>
   <rect height="22.66667" width="36" y="130.4" x="1055.86667" stroke="#2D2D2D" fill="#FFEBA2"/>
   <rect height="21.33333" width="46.66667" y="235.73333" x="995.86667" stroke="#2D2D2D" fill="#FFEBA2"/>
   <rect stroke="#2D2D2D" height="22.66667" width="41.33333" y="235.73333" x="1123.86667" fill="#FFEBA2"/>
   <rect height="29.33333" width="41.33333" y="330.4" x="1066.53333" stroke="#2D2D2D" fill="#FFEBA2"/>
   <rect height="24" width="49.33333" y="333.06667" x="1190.53333" stroke="#2D2D2D" fill="#FFEBA2"/>
   <rect height="25.33333" width="42.66667" y="479.73333" x="1191.86667" stroke="#2D2D2D" fill="#FFEBA2"/>
  </g>
  
  <g id="fad85e0673504cbc94e554920e7570a2-ao-3">
   <rect height="34.66667" width="216" y="315.73333" x="503.86667" stroke="#2D2D2D" fill="#FFEBA2"/>
   <rect height="44" width="101.33333" y="355.73333" x="355.86667" stroke="#2D2D2D" fill="#FFEBA2"/>
   <rect height="61.33333" width="65.33333" y="405.06667" x="542.53333" stroke="#2D2D2D" fill="#FFEBA2"/>
   <rect height="46.66667" width="70.66667" y="421.06667" x="625.2" stroke="#2D2D2D" fill="#FFEBA2"/>
   <rect height="44" width="56" y="415.73333" x="727.86667" stroke="#2D2D2D" fill="#FFEBA2"/>
   <rect height="45.33333" width="61.33333" y="475.73333" x="67.86667" stroke="#2D2D2D" fill="#FFEBA2"/>
   <rect height="28" width="134.66667" y="530.4" x="65.2" stroke="#2D2D2D" fill="#FFEBA2"/>
   <rect height="32" width="120" y="529.06667" x="219.86667" stroke="#2D2D2D" fill="#FFEBA2"/>
   <rect height="41.33333" width="240" y="523.73333" x="418.53333" stroke="#2D2D2D" fill="#FFEBA2"/>
  </g>
 </g>
</svg>