<svg xmlns="http://www.w3.org/2000/svg" width="1035" height="610">
 <!-- Created with Image Occlusion Enhanced -->
 <g>
  <title>Labels</title>
 </g>
 <g>
  <title>Masks</title>
  <rect id="1e83373a016545e5aaaef394789ecbda-ao-1" height="38.14433" width="212.37113" y="328.3505" x="296.95875" stroke="#2D2D2D" fill="#FFEBA2"/>
  <rect id="1e83373a016545e5aaaef394789ecbda-ao-2" height="36.08247" width="236.08247" y="371.64946" x="304.17524" stroke="#2D2D2D" fill="#FFEBA2"/>
  <rect id="1e83373a016545e5aaaef394789ecbda-ao-3" height="25.7732" width="271.13402" y="419.07214" x="311.39174" stroke="#2D2D2D" fill="#FFEBA2"/>
  <rect id="1e83373a016545e5aaaef394789ecbda-ao-4" height="24.74227" width="216.49484" y="459.27833" x="305.20617" stroke="#2D2D2D" fill="#FFEBA2"/>
  <g id="1e83373a016545e5aaaef394789ecbda-ao-5">
   <rect height="17.52577" width="15.46392" y="179.89689" x="819.63915" stroke="#2D2D2D" fill="#FFEBA2"/>
   <rect height="21.64948" width="21.64948" y="266.49483" x="819.63915" stroke="#2D2D2D" fill="#FFEBA2"/>
   <rect height="17.52577" width="22.68041" y="365.4639" x="823.76286" stroke="#2D2D2D" fill="#FFEBA2"/>
   <rect height="17.52577" width="19.58763" y="490.20616" x="873.2474" stroke="#2D2D2D" fill="#FFEBA2"/>
  </g>
  <g id="1e83373a016545e5aaaef394789ecbda-ao-6">
   <rect height="17.52577" width="21.64948" y="519.07214" x="786.64946" stroke="#2D2D2D" fill="#FFEBA2"/>
   <rect height="15.46392" width="15.46392" y="377.83503" x="806.23709" stroke="#2D2D2D" fill="#FFEBA2"/>
   <rect height="14.43299" width="16.49485" y="131.44328" x="840.25771" stroke="#2D2D2D" fill="#FFEBA2"/>
  </g>
  <g id="1e83373a016545e5aaaef394789ecbda-ao-7">
   <rect height="18.5567" width="16.49485" y="531.44328" x="828.9175" stroke="#2D2D2D" fill="#FFEBA2"/>
   <rect height="11.34021" width="15.46392" y="181.95875" x="790.77317" stroke="#2D2D2D" fill="#FFEBA2"/>
   <rect height="10.30928" width="18.5567" y="113.91751" x="866.0309" stroke="#2D2D2D" fill="#FFEBA2"/>
  </g>
  <rect id="1e83373a016545e5aaaef394789ecbda-ao-8" height="12.37113" width="20.61856" y="226.28864" x="860.87627" stroke="#2D2D2D" fill="#FFEBA2"/>
  <rect id="1e83373a016545e5aaaef394789ecbda-ao-9" height="16.49485" width="25.7732" y="284.0206" x="864.99998" stroke="#2D2D2D" fill="#FFEBA2"/>
  <rect id="1e83373a016545e5aaaef394789ecbda-ao-10" height="15.46392" width="24.74227" y="393.29895" x="864.99998" stroke="#2D2D2D" fill="#FFEBA2"/>
  <g id="1e83373a016545e5aaaef394789ecbda-ao-11">
   <rect height="14.43299" width="25.7732" y="449.99998" x="867.06183" stroke="#2D2D2D" fill="#FFEBA2"/>
   <rect height="18.5567" width="14.43299" y="521.134" x="874.27833" stroke="#2D2D2D" fill="#FFEBA2"/>
  </g>
  <g id="1e83373a016545e5aaaef394789ecbda-ao-12">
   <g>
    <rect height="25.7732" width="29.89691" y="81.95875" x="859.84534" stroke="#2D2D2D" fill="#FFEBA2"/>
    <rect height="83.50515" width="14.43299" y="131.44328" x="868.09276" stroke="#2D2D2D" fill="#FFEBA2"/>
   </g>
   <rect height="55.6701" width="38.14433" y="113.91751" x="644.38142" stroke="#2D2D2D" fill="#FFEBA2"/>
  </g>
  <rect id="1e83373a016545e5aaaef394789ecbda-ao-13" height="13.40206" width="20.61856" y="179.89689" x="671.18555" stroke="#2D2D2D" fill="#FFEBA2"/>
  <rect id="1e83373a016545e5aaaef394789ecbda-ao-14" height="13.40206" width="21.64948" y="222.16493" x="660.87627" stroke="#2D2D2D" fill="#FFEBA2"/>
  <rect id="1e83373a016545e5aaaef394789ecbda-ao-15" height="15.46392" width="17.52577" y="284.0206" x="671.18555" stroke="#2D2D2D" fill="#FFEBA2"/>
  <rect id="1e83373a016545e5aaaef394789ecbda-ao-16" height="16.49485" width="14.43299" y="403.60823" x="667.06183" stroke="#2D2D2D" fill="#FFEBA2"/>
  <rect id="1e83373a016545e5aaaef394789ecbda-ao-17" height="12.37113" width="18.5567" y="428.3505" x="685.61854" stroke="#2D2D2D" fill="#FFEBA2"/>
  <rect id="1e83373a016545e5aaaef394789ecbda-ao-18" height="14.43299" width="18.5567" y="512.88658" x="710.3608" stroke="#2D2D2D" fill="#FFEBA2"/>
  <rect id="1e83373a016545e5aaaef394789ecbda-ao-19" height="13.40206" width="19.58763" y="513.9175" x="621.70101" stroke="#2D2D2D" fill="#FFEBA2"/>
  <g id="1e83373a016545e5aaaef394789ecbda-ao-20">
   <rect height="26.80412" width="223.71134" y="505.67008" x="345.41235" stroke="#2D2D2D" fill="#FFEBA2"/>
   <rect height="29.89691" width="134.02062" y="543.81441" x="248.50514" stroke="#2D2D2D" fill="#FFEBA2"/>
  </g>
 </g>
</svg>