<svg xmlns="http://www.w3.org/2000/svg" width="842" height="606">
 <!-- Created with Image Occlusion Enhanced -->
 <g>
  <title>Labels</title>
 </g>
 <g>
  <title>Masks</title>
  <rect id="3af3833cca4944109dd02f7ef6916b13-ao-1" height="19.58763" width="68.04124" y="88.43298" x="215.93816" stroke="#2D2D2D" fill="#FFEBA2"/>
  <rect id="3af3833cca4944109dd02f7ef6916b13-ao-2" height="41.23711" width="221.64949" y="132.76287" x="162.32991" stroke="#2D2D2D" fill="#FFEBA2"/>
  <rect id="3af3833cca4944109dd02f7ef6916b13-ao-3" height="18.5567" width="70.10309" y="402.86597" x="216.96908" stroke="#2D2D2D" fill="#FFEBA2"/>
  <rect id="3af3833cca4944109dd02f7ef6916b13-ao-4" height="64.94845" width="288.6598" y="445.13401" x="160.26805" stroke="#2D2D2D" fill="#FF7E7E" class="qshape"/>
  <g id="3af3833cca4944109dd02f7ef6916b13-ao-5">
   <rect height="21.64948" width="173.19588" y="199.77318" x="201.50517" stroke="#2D2D2D" fill="#FFEBA2"/>
   <rect height="20.61856" width="98.96907" y="199.77318" x="456.14435" stroke="#2D2D2D" fill="#FFEBA2"/>
   <rect height="16.49485" width="89.69072" y="224.51545" x="310.78352" stroke="#2D2D2D" fill="#FFEBA2"/>
   <rect height="9.27835" width="93.81443" y="227.60824" x="475.73197" stroke="#2D2D2D" fill="#FFEBA2"/>
   <rect height="18.5567" width="135.05155" y="224.51545" x="623.15466" stroke="#2D2D2D" fill="#FFEBA2"/>
   <rect height="20.61856" width="157.73196" y="245.13401" x="324.18558" stroke="#2D2D2D" fill="#FFEBA2"/>
   <rect height="19.58763" width="134.02062" y="245.13401" x="533.46393" stroke="#2D2D2D" fill="#FFEBA2"/>
  </g>
  <g id="3af3833cca4944109dd02f7ef6916b13-ao-6">
   <rect height="17.52577" width="61.85567" y="291.52576" x="216.96908" stroke="#2D2D2D" fill="#FFEBA2"/>
   <rect height="16.49485" width="125.7732" y="335.85566" x="163.36084" stroke="#2D2D2D" fill="#FFEBA2"/>
   <rect height="15.46392" width="75.25773" y="359.567" x="271.60826" stroke="#2D2D2D" fill="#FFEBA2"/>
   <rect height="28.86598" width="58.76289" y="352.3505" x="358.2062" stroke="#2D2D2D" fill="#FFEBA2"/>
  </g>
  <g id="3af3833cca4944109dd02f7ef6916b13-ao-7">
   <rect height="19.58763" width="65.97938" y="533.79381" x="215.93816" stroke="#2D2D2D" fill="#FFEBA2"/>
   <rect height="23.71134" width="290.72165" y="580.18556" x="159.23713" stroke="#2D2D2D" fill="#FFEBA2"/>
  </g>
 </g>
</svg>