<svg xmlns="http://www.w3.org/2000/svg" width="826" height="536">
 <!-- Created with Image Occlusion Enhanced -->
 <g>
  <title>Labels</title>
 </g>
 <g>
  <title>Masks</title>
  <g id="fca5b1a74b5d49749bd0b2883d2c8a67-ao-1">
   <rect height="20.90909" width="90" y="22.90911" x="290.90912" stroke="#2D2D2D" fill="#FFEBA2"/>
   <rect height="19.09091" width="66.36364" y="22.00002" x="421.81822" stroke="#2D2D2D" fill="#FFEBA2"/>
   <rect height="15.45455" width="51.81818" y="46.54548" x="75.45456" stroke="#2D2D2D" fill="#FFEBA2"/>
  </g>
  <g id="fca5b1a74b5d49749bd0b2883d2c8a67-ao-2">
   <rect height="21.81818" width="40" y="87.45457" x="257.27275" stroke="#2D2D2D" fill="#FFEBA2"/>
   <rect height="15.45455" width="164.54546" y="89.27275" x="420.00003" stroke="#2D2D2D" fill="#FFEBA2"/>
   <rect height="23.63636" width="374.54547" y="111.09094" x="229.09093" stroke="#2D2D2D" fill="#FFEBA2"/>
  </g>
  <g id="fca5b1a74b5d49749bd0b2883d2c8a67-ao-3">
   <rect height="17.27273" width="240.00001" y="156.54548" x="174.54548" stroke="#2D2D2D" fill="#FFEBA2"/>
   <rect height="15.45455" width="222.72728" y="201.09094" x="163.63639" stroke="#2D2D2D" fill="#FFEBA2"/>
   <rect height="19.09091" width="54.54546" y="199.27276" x="739.09096" stroke="#2D2D2D" fill="#FFEBA2"/>
   <rect height="18.18182" width="196.36364" y="222.90912" x="167.27275" stroke="#2D2D2D" fill="#FFEBA2"/>
  </g>
  <g id="fca5b1a74b5d49749bd0b2883d2c8a67-ao-4">
   <rect height="14.54546" width="286.36365" y="268.36367" x="165.45457" stroke="#2D2D2D" fill="#FFEBA2"/>
   <rect height="16.36364" width="210.9091" y="292.00003" x="283.63639" stroke="#2D2D2D" fill="#FFEBA2"/>
   <rect height="20" width="294.54547" y="313.81822" x="280.90912" stroke="#2D2D2D" fill="#FFEBA2"/>
  </g>
  <g id="fca5b1a74b5d49749bd0b2883d2c8a67-ao-5">
   <rect height="18.18182" width="240.00001" y="358.36367" x="185.45457" stroke="#2D2D2D" fill="#FFEBA2"/>
   <rect height="17.27273" width="629.09094" y="403.81822" x="161.8182" stroke="#2D2D2D" fill="#FFEBA2"/>
  </g>
  
 </g>
</svg>